u2194_random 2.ufo
<glyph name="exclam" format="1">
  <advance width="280"/>
  <unicode hex="0021"/>
  <outline>
    <contour>
      <point x="140" y="111" type="curve" smooth="yes"/>
      <point x="189" y="111"/>
      <point x="230" y="152"/>
      <point x="230" y="201" type="curve" smooth="yes"/>
      <point x="230" y="801" type="line" smooth="yes"/>
      <point x="230" y="850"/>
      <point x="189" y="891"/>
      <point x="140" y="891" type="curve" smooth="yes"/>
      <point x="91" y="891"/>
      <point x="50" y="850"/>
      <point x="50" y="801" type="curve" smooth="yes"/>
      <point x="50" y="201" type="line" smooth="yes"/>
      <point x="50" y="152"/>
      <point x="91" y="111"/>
    </contour>
    <contour>
      <point x="140" y="108" type="curve" smooth="yes"/>
      <point x="91" y="108"/>
      <point x="50" y="67"/>
      <point x="50" y="18" type="curve" smooth="yes"/>
      <point x="50" y="1" type="line" smooth="yes"/>
      <point x="50" y="-48"/>
      <point x="91" y="-89"/>
      <point x="140" y="-89" type="curve" smooth="yes"/>
      <point x="189" y="-89"/>
      <point x="230" y="-48"/>
      <point x="230" y="1" type="curve" smooth="yes"/>
      <point x="230" y="18" type="line" smooth="yes"/>
      <point x="230" y="67"/>
      <point x="189" y="108"/>
    </contour>
  </outline>
</glyph>
<glyph name="numbersign" format="1">
  <advance width="990"/>
  <unicode hex="0023"/>
  <outline>
    <contour>
      <point x="636" y="-36" type="curve" smooth="yes"/>
      <point x="658" y="54" type="line"/>
      <point x="695" y="54" type="line" smooth="yes"/>
      <point x="773" y="54"/>
      <point x="840" y="121"/>
      <point x="840" y="199" type="curve" smooth="yes"/>
      <point x="840" y="265"/>
      <point x="792" y="324"/>
      <point x="730" y="340" type="curve"/>
      <point x="758" y="454" type="line"/>
      <point x="795" y="454" type="line" smooth="yes"/>
      <point x="873" y="454"/>
      <point x="940" y="521"/>
      <point x="940" y="599" type="curve" smooth="yes"/>
      <point x="940" y="665"/>
      <point x="892" y="724"/>
      <point x="830" y="740" type="curve"/>
      <point x="836" y="764" type="line" smooth="yes"/>
      <point x="855" y="840"/>
      <point x="806" y="921"/>
      <point x="730" y="940" type="curve" smooth="yes"/>
      <point x="681" y="952"/>
      <point x="630" y="936"/>
      <point x="595" y="903" type="curve"/>
      <point x="577" y="920"/>
      <point x="555" y="933"/>
      <point x="530" y="940" type="curve" smooth="yes"/>
      <point x="454" y="959"/>
      <point x="373" y="910"/>
      <point x="354" y="834" type="curve" smooth="yes"/>
      <point x="332" y="744" type="line"/>
      <point x="289" y="744" type="line" smooth="yes"/>
      <point x="211" y="744"/>
      <point x="144" y="677"/>
      <point x="144" y="599" type="curve" smooth="yes"/>
      <point x="144" y="531"/>
      <point x="195" y="471"/>
      <point x="260" y="457" type="curve"/>
      <point x="232" y="344" type="line"/>
      <point x="195" y="344" type="line" smooth="yes"/>
      <point x="117" y="344"/>
      <point x="50" y="277"/>
      <point x="50" y="199" type="curve" smooth="yes"/>
      <point x="50" y="133"/>
      <point x="98" y="74"/>
      <point x="160" y="58" type="curve"/>
      <point x="154" y="34" type="line" smooth="yes"/>
      <point x="135" y="-42"/>
      <point x="184" y="-123"/>
      <point x="260" y="-142" type="curve" smooth="yes"/>
      <point x="309" y="-154"/>
      <point x="360" y="-138"/>
      <point x="395" y="-105" type="curve"/>
      <point x="413" y="-122"/>
      <point x="435" y="-135"/>
      <point x="460" y="-142" type="curve" smooth="yes"/>
      <point x="536" y="-161"/>
      <point x="617" y="-112"/>
    </contour>
  </outline>
</glyph>
<glyph name="dollar" format="1">
  <advance width="873"/>
  <unicode hex="0024"/>
  <outline>
    <contour>
      <point x="351" y="492" type="line"/>
      <point x="262" y="506" type="line"/>
      <point x="228" y="602" type="line"/>
      <point x="269" y="695" type="line"/>
      <point x="351" y="706" type="line"/>
    </contour>
    <contour>
      <point x="523" y="86" type="line"/>
      <point x="523" y="313" type="line"/>
      <point x="546" y="313" type="line"/>
      <point x="640" y="247" type="line"/>
      <point x="641" y="154" type="line"/>
      <point x="544" y="86" type="line"/>
    </contour>
    <contour>
      <point x="437" y="-87" type="curve" smooth="yes"/>
      <point x="440" y="-87"/>
      <point x="443" y="-87"/>
      <point x="445" y="-87" type="curve"/>
      <point x="572" y="-86" type="line" smooth="yes"/>
      <point x="587" y="-85"/>
      <point x="609" y="-79"/>
      <point x="621" y="-70" type="curve" smooth="yes"/>
      <point x="777" y="39" type="line" smooth="yes"/>
      <point x="798" y="53"/>
      <point x="815" y="85"/>
      <point x="814" y="111" type="curve" smooth="yes"/>
      <point x="811" y="294" type="line" smooth="yes"/>
      <point x="811" y="318"/>
      <point x="794" y="349"/>
      <point x="774" y="363" type="curve" smooth="yes"/>
      <point x="622" y="469" type="line" smooth="yes"/>
      <point x="610" y="478"/>
      <point x="588" y="485"/>
      <point x="573" y="485" type="curve" smooth="yes"/>
      <point x="523" y="485" type="line"/>
      <point x="523" y="711" type="line"/>
      <point x="554" y="710" type="line"/>
      <point x="648" y="632" type="line"/>
      <point x="651" y="593" type="line" smooth="yes"/>
      <point x="655" y="546"/>
      <point x="697" y="510"/>
      <point x="743" y="513" type="curve" smooth="yes"/>
      <point x="790" y="517"/>
      <point x="826" y="559"/>
      <point x="823" y="605" type="curve" smooth="yes"/>
      <point x="817" y="681" type="line" smooth="yes"/>
      <point x="816" y="701"/>
      <point x="802" y="728"/>
      <point x="786" y="740" type="curve" smooth="yes"/>
      <point x="640" y="862" type="line" smooth="yes"/>
      <point x="627" y="873"/>
      <point x="603" y="882"/>
      <point x="587" y="882" type="curve" smooth="yes"/>
      <point x="449" y="884" type="line"/>
      <point x="445" y="885"/>
      <point x="441" y="885"/>
      <point x="437" y="885" type="curve" smooth="yes"/>
      <point x="434" y="885"/>
      <point x="431" y="885"/>
      <point x="428" y="884" type="curve"/>
      <point x="396" y="885" type="line" smooth="yes"/>
      <point x="392" y="885"/>
      <point x="386" y="885"/>
      <point x="383" y="884" type="curve" smooth="yes"/>
      <point x="198" y="859" type="line" smooth="yes"/>
      <point x="172" y="855"/>
      <point x="142" y="833"/>
      <point x="131" y="808" type="curve" smooth="yes"/>
      <point x="57" y="640" type="line" smooth="yes"/>
      <point x="50" y="623"/>
      <point x="49" y="595"/>
      <point x="55" y="577" type="curve" smooth="yes"/>
      <point x="117" y="400" type="line" smooth="yes"/>
      <point x="127" y="374"/>
      <point x="157" y="349"/>
      <point x="185" y="344" type="curve" smooth="yes"/>
      <point x="351" y="318" type="line"/>
      <point x="351" y="91" type="line"/>
      <point x="267" y="103" type="line"/>
      <point x="216" y="231" type="line" smooth="yes"/>
      <point x="198" y="274"/>
      <point x="147" y="296"/>
      <point x="104" y="279" type="curve" smooth="yes"/>
      <point x="61" y="261"/>
      <point x="39" y="210"/>
      <point x="56" y="167" type="curve" smooth="yes"/>
      <point x="126" y="-6" type="line" smooth="yes"/>
      <point x="136" y="-32"/>
      <point x="166" y="-56"/>
      <point x="193" y="-60" type="curve" smooth="yes"/>
      <point x="374" y="-86" type="line" smooth="yes"/>
      <point x="377" y="-87"/>
      <point x="383" y="-87"/>
      <point x="387" y="-87" type="curve" smooth="yes"/>
      <point x="430" y="-87" type="line"/>
      <point x="432" y="-87"/>
      <point x="435" y="-87"/>
    </contour>
  </outline>
</glyph>
<glyph name="percent" format="1">
  <advance width="833"/>
  <unicode hex="0025"/>
  <outline>
    <contour>
      <point x="316" y="866" type="curve" smooth="yes"/>
      <point x="280" y="866"/>
      <point x="249" y="835"/>
      <point x="249" y="799" type="curve" smooth="yes"/>
      <point x="249" y="789" type="line" smooth="yes"/>
      <point x="249" y="753"/>
      <point x="280" y="722"/>
      <point x="316" y="722" type="curve" smooth="yes"/>
      <point x="352" y="722"/>
      <point x="383" y="753"/>
      <point x="383" y="789" type="curve" smooth="yes"/>
      <point x="383" y="799" type="line" smooth="yes"/>
      <point x="383" y="835"/>
      <point x="352" y="866"/>
    </contour>
    <contour>
      <point x="170" y="-41" type="curve" smooth="yes"/>
      <point x="770" y="759" type="line" smooth="yes"/>
      <point x="791" y="788"/>
      <point x="785" y="831"/>
      <point x="756" y="853" type="curve" smooth="yes"/>
      <point x="727" y="874"/>
      <point x="684" y="868"/>
      <point x="662" y="839" type="curve" smooth="yes"/>
      <point x="62" y="39" type="line" smooth="yes"/>
      <point x="41" y="10"/>
      <point x="47" y="-33"/>
      <point x="76" y="-55" type="curve" smooth="yes"/>
      <point x="105" y="-76"/>
      <point x="148" y="-70"/>
    </contour>
    <contour>
      <point x="516" y="-68" type="curve" smooth="yes"/>
      <point x="552" y="-68"/>
      <point x="583" y="-37"/>
      <point x="583" y="-1" type="curve" smooth="yes"/>
      <point x="583" y="9" type="line" smooth="yes"/>
      <point x="583" y="45"/>
      <point x="552" y="76"/>
      <point x="516" y="76" type="curve" smooth="yes"/>
      <point x="480" y="76"/>
      <point x="449" y="45"/>
      <point x="449" y="9" type="curve" smooth="yes"/>
      <point x="449" y="-1" type="line" smooth="yes"/>
      <point x="449" y="-37"/>
      <point x="480" y="-68"/>
    </contour>
  </outline>
</glyph>
<glyph name="ampersand" format="1">
  <advance width="604"/>
  <unicode hex="0026"/>
  <outline>
    <contour>
      <point x="534" y="-41" type="curve" smooth="yes"/>
      <point x="557" y="-24"/>
      <point x="561" y="10"/>
      <point x="545" y="32" type="curve" smooth="yes"/>
      <point x="307" y="348" type="line"/>
      <point x="502" y="348" type="line" smooth="yes"/>
      <point x="530" y="348"/>
      <point x="554" y="372"/>
      <point x="554" y="400" type="curve" smooth="yes"/>
      <point x="554" y="428"/>
      <point x="530" y="452"/>
      <point x="502" y="452" type="curve" smooth="yes"/>
      <point x="178" y="453" type="line"/>
      <point x="300" y="781" type="line" smooth="yes"/>
      <point x="323" y="846"/>
      <point x="226" y="882"/>
      <point x="202" y="817" type="curve" smooth="yes"/>
      <point x="53" y="419" type="line" smooth="yes"/>
      <point x="50" y="411"/>
      <point x="50" y="403"/>
      <point x="51" y="396" type="curve"/>
      <point x="52" y="369"/>
      <point x="73" y="349"/>
      <point x="103" y="349" type="curve" smooth="yes"/>
      <point x="177" y="349" type="line"/>
      <point x="461" y="-30" type="line" smooth="yes"/>
      <point x="478" y="-53"/>
      <point x="512" y="-57"/>
    </contour>
  </outline>
</glyph>
<glyph name="asterisk" format="1">
  <advance width="708"/>
  <unicode hex="002A"/>
  <outline>
    <contour>
      <point x="239" y="439" type="line"/>
      <point x="259" y="458" type="line"/>
      <point x="260" y="456"/>
      <point x="261" y="454"/>
      <point x="262" y="452" type="curve"/>
    </contour>
    <contour>
      <point x="267" y="211" type="curve" smooth="yes"/>
      <point x="388" y="282" type="line"/>
      <point x="420" y="239" type="line" smooth="yes"/>
      <point x="454" y="194"/>
      <point x="522" y="184"/>
      <point x="567" y="218" type="curve" smooth="yes"/>
      <point x="612" y="252"/>
      <point x="622" y="320"/>
      <point x="588" y="365" type="curve" smooth="yes"/>
      <point x="570" y="389" type="line"/>
      <point x="607" y="411" type="line" smooth="yes"/>
      <point x="656" y="440"/>
      <point x="673" y="506"/>
      <point x="645" y="555" type="curve" smooth="yes"/>
      <point x="616" y="604"/>
      <point x="550" y="621"/>
      <point x="501" y="593" type="curve" smooth="yes"/>
      <point x="443" y="558" type="line"/>
      <point x="438" y="565" type="line" smooth="yes"/>
      <point x="427" y="579"/>
      <point x="413" y="590"/>
      <point x="398" y="597" type="curve"/>
      <point x="428" y="628" type="line" smooth="yes"/>
      <point x="468" y="668"/>
      <point x="468" y="736"/>
      <point x="428" y="776" type="curve" smooth="yes"/>
      <point x="388" y="816"/>
      <point x="320" y="816"/>
      <point x="280" y="776" type="curve" smooth="yes"/>
      <point x="80" y="576" type="line" smooth="yes"/>
      <point x="40" y="536"/>
      <point x="40" y="468"/>
      <point x="80" y="428" type="curve" smooth="yes"/>
      <point x="104" y="403"/>
      <point x="139" y="394"/>
      <point x="172" y="399" type="curve"/>
      <point x="161" y="393" type="line" smooth="yes"/>
      <point x="112" y="364"/>
      <point x="95" y="298"/>
      <point x="123" y="249" type="curve" smooth="yes"/>
      <point x="152" y="200"/>
      <point x="218" y="183"/>
    </contour>
  </outline>
</glyph>
<glyph name="plus" format="1">
  <advance width="614"/>
  <unicode hex="002B"/>
  <outline>
    <contour>
      <point x="307" y="65" type="curve" smooth="yes"/>
      <point x="338" y="65"/>
      <point x="364" y="91"/>
      <point x="364" y="122" type="curve" smooth="yes"/>
      <point x="364" y="265" type="line"/>
      <point x="507" y="265" type="line" smooth="yes"/>
      <point x="538" y="265"/>
      <point x="564" y="291"/>
      <point x="564" y="322" type="curve" smooth="yes"/>
      <point x="564" y="353"/>
      <point x="538" y="379"/>
      <point x="507" y="379" type="curve" smooth="yes"/>
      <point x="364" y="379" type="line"/>
      <point x="364" y="522" type="line" smooth="yes"/>
      <point x="364" y="553"/>
      <point x="338" y="579"/>
      <point x="307" y="579" type="curve" smooth="yes"/>
      <point x="276" y="579"/>
      <point x="250" y="553"/>
      <point x="250" y="522" type="curve" smooth="yes"/>
      <point x="250" y="379" type="line"/>
      <point x="107" y="379" type="line" smooth="yes"/>
      <point x="76" y="379"/>
      <point x="50" y="353"/>
      <point x="50" y="322" type="curve" smooth="yes"/>
      <point x="50" y="291"/>
      <point x="76" y="265"/>
      <point x="107" y="265" type="curve" smooth="yes"/>
      <point x="250" y="265" type="line"/>
      <point x="250" y="122" type="line" smooth="yes"/>
      <point x="250" y="91"/>
      <point x="276" y="65"/>
    </contour>
  </outline>
</glyph>
<glyph name="comma" format="1">
  <advance width="309"/>
  <unicode hex="002C"/>
  <outline>
    <contour>
      <point x="229" y="191" type="curve" smooth="yes"/>
      <point x="202" y="204"/>
      <point x="168" y="193"/>
      <point x="155" y="167" type="curve" smooth="yes"/>
      <point x="55" y="-33" type="line" smooth="yes"/>
      <point x="42" y="-60"/>
      <point x="53" y="-94"/>
      <point x="79" y="-107" type="curve" smooth="yes"/>
      <point x="106" y="-120"/>
      <point x="140" y="-109"/>
      <point x="153" y="-83" type="curve" smooth="yes"/>
      <point x="253" y="117" type="line" smooth="yes"/>
      <point x="266" y="144"/>
      <point x="255" y="178"/>
    </contour>
  </outline>
</glyph>
<glyph name="period" format="1">
  <advance width="188"/>
  <unicode hex="002E"/>
  <outline>
    <contour>
      <point x="94" y="54" type="curve" smooth="yes"/>
      <point x="70" y="54"/>
      <point x="50" y="34"/>
      <point x="50" y="10" type="curve" smooth="yes"/>
      <point x="50" y="0" type="line" smooth="yes"/>
      <point x="50" y="-24"/>
      <point x="70" y="-44"/>
      <point x="94" y="-44" type="curve" smooth="yes"/>
      <point x="118" y="-44"/>
      <point x="138" y="-24"/>
      <point x="138" y="0" type="curve" smooth="yes"/>
      <point x="138" y="10" type="line" smooth="yes"/>
      <point x="138" y="34"/>
      <point x="118" y="54"/>
    </contour>
  </outline>
</glyph>
<glyph name="slash" format="1">
  <advance width="893"/>
  <unicode hex="002F"/>
  <outline>
    <contour>
      <point x="224" y="-56" type="curve" smooth="yes"/>
      <point x="824" y="744" type="line" smooth="yes"/>
      <point x="855" y="786"/>
      <point x="846" y="848"/>
      <point x="804" y="880" type="curve" smooth="yes"/>
      <point x="762" y="911"/>
      <point x="700" y="902"/>
      <point x="668" y="860" type="curve" smooth="yes"/>
      <point x="68" y="60" type="line" smooth="yes"/>
      <point x="37" y="18"/>
      <point x="46" y="-44"/>
      <point x="88" y="-76" type="curve" smooth="yes"/>
      <point x="130" y="-107"/>
      <point x="192" y="-98"/>
    </contour>
  </outline>
</glyph>
<glyph name="zero" format="1">
  <advance width="926"/>
  <unicode hex="0030"/>
  <outline>
    <contour>
      <point x="422" y="-97" type="curve" smooth="yes"/>
      <point x="433" y="-90"/>
      <point x="443" y="-82"/>
      <point x="452" y="-72" type="curve"/>
      <point x="839" y="277" type="line" smooth="yes"/>
      <point x="881" y="315"/>
      <point x="888" y="382"/>
      <point x="856" y="428" type="curve" smooth="yes"/>
      <point x="746" y="583" type="line"/>
      <point x="772" y="617" type="line"/>
      <point x="808" y="665" type="line" smooth="yes"/>
      <point x="845" y="714"/>
      <point x="835" y="788"/>
      <point x="786" y="825" type="curve" smooth="yes"/>
      <point x="737" y="862"/>
      <point x="663" y="852"/>
      <point x="626" y="803" type="curve" smooth="yes"/>
      <point x="608" y="778" type="line"/>
      <point x="544" y="868" type="line" smooth="yes"/>
      <point x="494" y="939"/>
      <point x="402" y="937"/>
      <point x="355" y="863" type="curve" smooth="yes"/>
      <point x="67" y="413" type="line" smooth="yes"/>
      <point x="46" y="381"/>
      <point x="45" y="328"/>
      <point x="64" y="295" type="curve" smooth="yes"/>
      <point x="141" y="163" type="line"/>
      <point x="118" y="133" type="line"/>
      <point x="112" y="125" type="line" smooth="yes"/>
      <point x="75" y="76"/>
      <point x="85" y="2"/>
      <point x="134" y="-35" type="curve" smooth="yes"/>
      <point x="170" y="-62"/>
      <point x="220" y="-64"/>
      <point x="259" y="-43" type="curve"/>
      <point x="263" y="-54"/>
      <point x="270" y="-65"/>
      <point x="278" y="-74" type="curve" smooth="yes"/>
      <point x="299" y="-97"/>
      <point x="328" y="-110"/>
      <point x="358" y="-111" type="curve"/>
      <point x="380" y="-113"/>
      <point x="402" y="-108"/>
    </contour>
    <contour>
      <point x="374" y="471" type="line"/>
      <point x="456" y="598" type="line"/>
      <point x="463" y="588" type="line"/>
    </contour>
    <contour>
      <point x="547" y="321" type="line"/>
      <point x="601" y="393" type="line"/>
      <point x="611" y="379" type="line"/>
    </contour>
  </outline>
</glyph>
<glyph name="one" format="1">
  <advance width="910"/>
  <unicode hex="0031"/>
  <outline>
    <contour>
      <point x="155" y="-104" type="curve" smooth="yes"/>
      <point x="755" y="-104" type="line" smooth="yes"/>
      <point x="812" y="-104"/>
      <point x="860" y="-56"/>
      <point x="860" y="1" type="curve" smooth="yes"/>
      <point x="860" y="58"/>
      <point x="812" y="106"/>
      <point x="755" y="106" type="curve" smooth="yes"/>
      <point x="405" y="106" type="line"/>
      <point x="554" y="515" type="line" smooth="yes"/>
      <point x="577" y="580"/>
      <point x="540" y="643"/>
      <point x="472" y="655" type="curve" smooth="yes"/>
      <point x="172" y="705" type="line" smooth="yes"/>
      <point x="116" y="714"/>
      <point x="61" y="674"/>
      <point x="51" y="618" type="curve" smooth="yes"/>
      <point x="42" y="562"/>
      <point x="82" y="507"/>
      <point x="138" y="497" type="curve" smooth="yes"/>
      <point x="313" y="468" type="line"/>
      <point x="181" y="106" type="line"/>
      <point x="155" y="106" type="line" smooth="yes"/>
      <point x="98" y="106"/>
      <point x="50" y="58"/>
      <point x="50" y="1" type="curve" smooth="yes"/>
      <point x="50" y="-56"/>
      <point x="98" y="-104"/>
    </contour>
  </outline>
</glyph>
<glyph name="two" format="1">
  <advance width="823"/>
  <unicode hex="0032"/>
  <outline>
    <contour>
      <point x="151" y="-62" type="curve" smooth="yes"/>
      <point x="711" y="-62" type="line" smooth="yes"/>
      <point x="744" y="-62"/>
      <point x="773" y="-33"/>
      <point x="773" y="0" type="curve" smooth="yes"/>
      <point x="773" y="33"/>
      <point x="744" y="62"/>
      <point x="711" y="62" type="curve" smooth="yes"/>
      <point x="299" y="62" type="line"/>
      <point x="591" y="357" type="line" smooth="yes"/>
      <point x="623" y="390"/>
      <point x="614" y="438"/>
      <point x="572" y="457" type="curve" smooth="yes"/>
      <point x="137" y="656" type="line" smooth="yes"/>
      <point x="106" y="670"/>
      <point x="69" y="656"/>
      <point x="55" y="626" type="curve" smooth="yes"/>
      <point x="41" y="595"/>
      <point x="55" y="558"/>
      <point x="85" y="544" type="curve" smooth="yes"/>
      <point x="440" y="381" type="line"/>
      <point x="107" y="44" type="line" smooth="yes"/>
      <point x="65" y="1"/>
      <point x="91" y="-62"/>
    </contour>
  </outline>
</glyph>
<glyph name="three" format="1">
  <advance width="822"/>
  <unicode hex="0033"/>
  <outline>
    <contour>
      <point x="341" y="-60" type="line"/>
      <point x="461" y="-60" type="line"/>
      <point x="521" y="-60" type="line"/>
      <point x="582" y="-56" type="line" smooth="yes"/>
      <point x="586" y="-56"/>
      <point x="593" y="-55"/>
      <point x="597" y="-53" type="curve" smooth="yes"/>
      <point x="653" y="-35" type="line" smooth="yes"/>
      <point x="660" y="-32"/>
      <point x="671" y="-26"/>
      <point x="676" y="-21" type="curve" smooth="yes"/>
      <point x="723" y="24" type="line" smooth="yes"/>
      <point x="728" y="29"/>
      <point x="735" y="38"/>
      <point x="737" y="45" type="curve" smooth="yes"/>
      <point x="759" y="100" type="line" smooth="yes"/>
      <point x="761" y="104"/>
      <point x="763" y="110"/>
      <point x="763" y="115" type="curve" smooth="yes"/>
      <point x="771" y="175" type="line" smooth="yes"/>
      <point x="771" y="178"/>
      <point x="772" y="182"/>
      <point x="772" y="184" type="curve" smooth="yes"/>
      <point x="771" y="245" type="line" smooth="yes"/>
      <point x="771" y="248"/>
      <point x="770" y="254"/>
      <point x="770" y="257" type="curve" smooth="yes"/>
      <point x="756" y="321" type="line" smooth="yes"/>
      <point x="755" y="328"/>
      <point x="750" y="338"/>
      <point x="746" y="344" type="curve" smooth="yes"/>
      <point x="710" y="394" type="line" smooth="yes"/>
      <point x="708" y="396"/>
      <point x="706" y="399"/>
      <point x="704" y="401" type="curve"/>
      <point x="706" y="403"/>
      <point x="708" y="406"/>
      <point x="710" y="408" type="curve" smooth="yes"/>
      <point x="746" y="458" type="line" smooth="yes"/>
      <point x="750" y="464"/>
      <point x="755" y="474"/>
      <point x="756" y="481" type="curve" smooth="yes"/>
      <point x="770" y="545" type="line" smooth="yes"/>
      <point x="770" y="548"/>
      <point x="771" y="554"/>
      <point x="771" y="557" type="curve" smooth="yes"/>
      <point x="772" y="618" type="line" smooth="yes"/>
      <point x="772" y="620"/>
      <point x="771" y="624"/>
      <point x="771" y="627" type="curve" smooth="yes"/>
      <point x="763" y="687" type="line" smooth="yes"/>
      <point x="763" y="692"/>
      <point x="761" y="698"/>
      <point x="759" y="702" type="curve" smooth="yes"/>
      <point x="737" y="757" type="line" smooth="yes"/>
      <point x="735" y="763"/>
      <point x="729" y="772"/>
      <point x="724" y="777" type="curve" smooth="yes"/>
      <point x="685" y="817" type="line" smooth="yes"/>
      <point x="680" y="822"/>
      <point x="670" y="829"/>
      <point x="663" y="831" type="curve" smooth="yes"/>
      <point x="608" y="853" type="line" smooth="yes"/>
      <point x="604" y="854"/>
      <point x="596" y="856"/>
      <point x="591" y="857" type="curve" smooth="yes"/>
      <point x="525" y="862" type="line"/>
      <point x="461" y="862" type="line" smooth="yes"/>
      <point x="461" y="862" type="line" smooth="yes"/>
      <point x="340" y="862" type="line"/>
      <point x="275" y="861" type="line" smooth="yes"/>
      <point x="272" y="861"/>
      <point x="268" y="860"/>
      <point x="266" y="860" type="curve" smooth="yes"/>
      <point x="209" y="849" type="line" smooth="yes"/>
      <point x="204" y="849"/>
      <point x="197" y="846"/>
      <point x="193" y="844" type="curve" smooth="yes"/>
      <point x="143" y="820" type="line" smooth="yes"/>
      <point x="136" y="817"/>
      <point x="127" y="809"/>
      <point x="122" y="804" type="curve" smooth="yes"/>
      <point x="82" y="755" type="line" smooth="yes"/>
      <point x="78" y="750"/>
      <point x="72" y="739"/>
      <point x="70" y="733" type="curve" smooth="yes"/>
      <point x="55" y="676" type="line" smooth="yes"/>
      <point x="54" y="673"/>
      <point x="53" y="667"/>
      <point x="53" y="663" type="curve" smooth="yes"/>
      <point x="50" y="604" type="line" smooth="yes"/>
      <point x="49" y="571"/>
      <point x="75" y="541"/>
      <point x="108" y="540" type="curve" smooth="yes"/>
      <point x="141" y="539"/>
      <point x="171" y="565"/>
      <point x="172" y="598" type="curve" smooth="yes"/>
      <point x="174" y="651" type="line"/>
      <point x="184" y="687" type="line"/>
      <point x="208" y="716" type="line"/>
      <point x="239" y="731" type="line"/>
      <point x="283" y="739" type="line"/>
      <point x="342" y="740" type="line"/>
      <point x="461" y="740" type="line"/>
      <point x="461" y="740" type="line"/>
      <point x="524" y="740" type="line"/>
      <point x="572" y="736" type="line"/>
      <point x="607" y="722" type="line"/>
      <point x="629" y="700" type="line"/>
      <point x="643" y="664" type="line"/>
      <point x="650" y="615" type="line"/>
      <point x="649" y="564" type="line"/>
      <point x="639" y="519" type="line"/>
      <point x="619" y="490" type="line"/>
      <point x="582" y="471" type="line"/>
      <point x="539" y="463" type="line"/>
      <point x="480" y="462" type="line"/>
      <point x="361" y="462" type="line"/>
      <point x="361" y="340" type="line"/>
      <point x="480" y="340" type="line"/>
      <point x="539" y="339" type="line"/>
      <point x="582" y="331" type="line"/>
      <point x="619" y="312" type="line"/>
      <point x="639" y="283" type="line"/>
      <point x="649" y="238" type="line"/>
      <point x="650" y="187" type="line"/>
      <point x="643" y="138" type="line"/>
      <point x="629" y="103" type="line"/>
      <point x="602" y="77" type="line"/>
      <point x="567" y="65" type="line"/>
      <point x="514" y="62" type="line"/>
      <point x="461" y="62" type="line"/>
      <point x="341" y="62" type="line"/>
      <point x="283" y="63" type="line"/>
      <point x="240" y="71" type="line"/>
      <point x="203" y="90" type="line"/>
      <point x="183" y="119" type="line"/>
      <point x="173" y="165" type="line"/>
      <point x="172" y="202" type="line" smooth="yes"/>
      <point x="171" y="235"/>
      <point x="142" y="263"/>
      <point x="110" y="262" type="curve" smooth="yes"/>
      <point x="77" y="261"/>
      <point x="49" y="232"/>
      <point x="50" y="200" type="curve" smooth="yes"/>
      <point x="51" y="156" type="line" smooth="yes"/>
      <point x="51" y="153"/>
      <point x="52" y="148"/>
      <point x="52" y="145" type="curve" smooth="yes"/>
      <point x="66" y="81" type="line" smooth="yes"/>
      <point x="67" y="74"/>
      <point x="72" y="64"/>
      <point x="76" y="58" type="curve" smooth="yes"/>
      <point x="112" y="8" type="line" smooth="yes"/>
      <point x="117" y="1"/>
      <point x="126" y="-7"/>
      <point x="133" y="-11" type="curve" smooth="yes"/>
      <point x="191" y="-41" type="line" smooth="yes"/>
      <point x="196" y="-44"/>
      <point x="204" y="-46"/>
      <point x="209" y="-47" type="curve" smooth="yes"/>
      <point x="266" y="-58" type="line" smooth="yes"/>
      <point x="268" y="-58"/>
      <point x="272" y="-59"/>
      <point x="275" y="-59" type="curve" smooth="yes"/>
    </contour>
  </outline>
</glyph>
<glyph name="four" format="1">
  <advance width="768"/>
  <unicode hex="0034"/>
  <outline>
    <contour>
      <point x="579" y="-138" type="curve" smooth="yes"/>
      <point x="654" y="-138"/>
      <point x="718" y="-74"/>
      <point x="718" y="1" type="curve" smooth="yes"/>
      <point x="718" y="600" type="line" smooth="yes"/>
      <point x="718" y="675"/>
      <point x="654" y="739"/>
      <point x="579" y="739" type="curve" smooth="yes"/>
      <point x="504" y="739"/>
      <point x="440" y="675"/>
      <point x="440" y="600" type="curve" smooth="yes"/>
      <point x="440" y="327" type="line"/>
      <point x="339" y="379" type="line"/>
      <point x="377" y="693" type="line"/>
      <point x="398" y="728" type="line" smooth="yes"/>
      <point x="437" y="793"/>
      <point x="415" y="881"/>
      <point x="351" y="919" type="curve" smooth="yes"/>
      <point x="286" y="958"/>
      <point x="198" y="936"/>
      <point x="160" y="872" type="curve" smooth="yes"/>
      <point x="124" y="811" type="line" smooth="yes"/>
      <point x="115" y="797"/>
      <point x="107" y="773"/>
      <point x="105" y="757" type="curve" smooth="yes"/>
      <point x="51" y="317" type="line" smooth="yes"/>
      <point x="45" y="264"/>
      <point x="78" y="201"/>
      <point x="126" y="176" type="curve" smooth="yes"/>
      <point x="440" y="15" type="line"/>
      <point x="440" y="1" type="line" smooth="yes"/>
      <point x="440" y="-74"/>
      <point x="504" y="-138"/>
    </contour>
  </outline>
</glyph>
<glyph name="five" format="1">
  <advance width="850"/>
  <unicode hex="0035"/>
  <outline>
    <contour>
      <point x="745" y="151" type="curve" smooth="yes"/>
      <point x="328" y="413" type="line"/>
      <point x="664" y="726" type="line"/>
      <point x="725" y="726" type="line" smooth="yes"/>
      <point x="766" y="726"/>
      <point x="800" y="761"/>
      <point x="800" y="801" type="curve" smooth="yes"/>
      <point x="800" y="842"/>
      <point x="766" y="876"/>
      <point x="725" y="876" type="curve" smooth="yes"/>
      <point x="635" y="876" type="line" smooth="yes"/>
      <point x="619" y="876"/>
      <point x="596" y="867"/>
      <point x="584" y="856" type="curve" smooth="yes"/>
      <point x="154" y="456" type="line" smooth="yes"/>
      <point x="116" y="420"/>
      <point x="121" y="365"/>
      <point x="165" y="337" type="curve" smooth="yes"/>
      <point x="323" y="239" type="line"/>
      <point x="139" y="275" type="line" smooth="yes"/>
      <point x="100" y="282"/>
      <point x="59" y="255"/>
      <point x="51" y="215" type="curve" smooth="yes"/>
      <point x="44" y="176"/>
      <point x="71" y="135"/>
      <point x="111" y="127" type="curve" smooth="yes"/>
      <point x="690" y="14" type="line" smooth="yes"/>
      <point x="777" y="-3"/>
      <point x="819" y="104"/>
    </contour>
  </outline>
</glyph>
<glyph name="six" format="1">
  <advance width="1005"/>
  <unicode hex="0036"/>
  <outline>
    <contour>
      <point x="474" y="-89" type="curve" smooth="yes"/>
      <point x="775" y="305" type="line" smooth="yes"/>
      <point x="809" y="351"/>
      <point x="817" y="404"/>
      <point x="800" y="449" type="curve"/>
      <point x="843" y="448"/>
      <point x="886" y="465"/>
      <point x="916" y="498" type="curve" smooth="yes"/>
      <point x="972" y="559"/>
      <point x="967" y="659"/>
      <point x="906" y="714" type="curve" smooth="yes"/>
      <point x="686" y="914" type="line" smooth="yes"/>
      <point x="631" y="964"/>
      <point x="541" y="966"/>
      <point x="484" y="918" type="curve" smooth="yes"/>
      <point x="271" y="738" type="line"/>
      <point x="266" y="740" type="line" smooth="yes"/>
      <point x="191" y="774"/>
      <point x="98" y="739"/>
      <point x="64" y="664" type="curve" smooth="yes"/>
      <point x="45" y="624"/>
      <point x="47" y="578"/>
      <point x="64" y="540" type="curve"/>
      <point x="50" y="506"/>
      <point x="47" y="467"/>
      <point x="57" y="435" type="curve" smooth="yes"/>
      <point x="207" y="-42" type="line" smooth="yes"/>
      <point x="247" y="-171"/>
      <point x="393" y="-196"/>
    </contour>
    <contour>
      <point x="410" y="332" type="line"/>
      <point x="407" y="341" type="line"/>
      <point x="415" y="338" type="line"/>
    </contour>
  </outline>
</glyph>
<glyph name="seven" format="1">
  <advance width="802"/>
  <unicode hex="0037"/>
  <outline>
    <contour>
      <point x="483" y="-73" type="curve" smooth="yes"/>
      <point x="732" y="302" type="line" smooth="yes"/>
      <point x="752" y="332"/>
      <point x="758" y="383"/>
      <point x="745" y="417" type="curve" smooth="yes"/>
      <point x="585" y="842" type="line" smooth="yes"/>
      <point x="568" y="887"/>
      <point x="515" y="924"/>
      <point x="466" y="924" type="curve" smooth="yes"/>
      <point x="177" y="924" type="line" smooth="yes"/>
      <point x="108" y="924"/>
      <point x="50" y="866"/>
      <point x="50" y="797" type="curve" smooth="yes"/>
      <point x="50" y="728"/>
      <point x="108" y="670"/>
      <point x="177" y="670" type="curve" smooth="yes"/>
      <point x="378" y="670" type="line"/>
      <point x="485" y="388" type="line"/>
      <point x="271" y="67" type="line" smooth="yes"/>
      <point x="233" y="10"/>
      <point x="250" y="-71"/>
      <point x="307" y="-109" type="curve" smooth="yes"/>
      <point x="364" y="-147"/>
      <point x="445" y="-130"/>
    </contour>
  </outline>
</glyph>
<glyph name="eight" format="1">
  <advance width="234"/>
  <unicode hex="0038"/>
  <outline>
    <contour>
      <point x="184" y="400" type="curve" smooth="yes"/>
      <point x="184" y="433"/>
      <point x="155" y="462"/>
      <point x="122" y="462" type="curve" smooth="yes"/>
      <point x="112" y="462" type="line" smooth="yes"/>
      <point x="79" y="462"/>
      <point x="50" y="433"/>
      <point x="50" y="400" type="curve" smooth="yes"/>
      <point x="50" y="367"/>
      <point x="79" y="338"/>
      <point x="112" y="338" type="curve" smooth="yes"/>
      <point x="122" y="338" type="line" smooth="yes"/>
      <point x="155" y="338"/>
      <point x="184" y="367"/>
    </contour>
  </outline>
</glyph>
<glyph name="nine" format="1">
  <advance width="798"/>
  <unicode hex="0039"/>
  <outline>
    <contour>
      <point x="642" y="278" type="line"/>
      <point x="272" y="437" type="line"/>
      <point x="594" y="679" type="line"/>
    </contour>
    <contour>
      <point x="169" y="-9" type="curve" smooth="yes"/>
      <point x="683" y="154" type="line"/>
      <point x="707" y="146"/>
      <point x="734" y="158"/>
      <point x="744" y="181" type="curve" smooth="yes"/>
      <point x="747" y="188"/>
      <point x="748" y="197"/>
      <point x="748" y="205" type="curve"/>
      <point x="748" y="208"/>
      <point x="748" y="212"/>
      <point x="748" y="216" type="curve" smooth="yes"/>
      <point x="681" y="775" type="line" smooth="yes"/>
      <point x="676" y="816"/>
      <point x="635" y="833"/>
      <point x="603" y="809" type="curve" smooth="yes"/>
      <point x="146" y="464" type="line" smooth="yes"/>
      <point x="113" y="440"/>
      <point x="118" y="396"/>
      <point x="156" y="380" type="curve" smooth="yes"/>
      <point x="545" y="213" type="line"/>
      <point x="185" y="99" type="line"/>
      <point x="145" y="216" type="line" smooth="yes"/>
      <point x="137" y="241"/>
      <point x="108" y="255"/>
      <point x="83" y="246" type="curve" smooth="yes"/>
      <point x="58" y="238"/>
      <point x="44" y="209"/>
      <point x="53" y="184" type="curve" smooth="yes"/>
      <point x="108" y="22" type="line" smooth="yes"/>
      <point x="117" y="-4"/>
      <point x="144" y="-17"/>
    </contour>
  </outline>
</glyph>
<glyph name="colon" format="1">
  <advance width="380"/>
  <unicode hex="003A"/>
  <outline>
    <contour>
      <point x="189" y="444" type="curve" smooth="yes"/>
      <point x="264" y="444"/>
      <point x="328" y="508"/>
      <point x="328" y="583" type="curve" smooth="yes"/>
      <point x="328" y="592" type="line" smooth="yes"/>
      <point x="328" y="667"/>
      <point x="264" y="731"/>
      <point x="189" y="731" type="curve" smooth="yes"/>
      <point x="114" y="731"/>
      <point x="50" y="667"/>
      <point x="50" y="592" type="curve" smooth="yes"/>
      <point x="50" y="583" type="line" smooth="yes"/>
      <point x="50" y="508"/>
      <point x="114" y="444"/>
    </contour>
    <contour>
      <point x="191" y="-138" type="curve" smooth="yes"/>
      <point x="266" y="-138"/>
      <point x="330" y="-74"/>
      <point x="330" y="1" type="curve" smooth="yes"/>
      <point x="330" y="5" type="line" smooth="yes"/>
      <point x="330" y="80"/>
      <point x="266" y="144"/>
      <point x="191" y="144" type="curve" smooth="yes"/>
      <point x="116" y="144"/>
      <point x="52" y="80"/>
      <point x="52" y="5" type="curve" smooth="yes"/>
      <point x="52" y="1" type="line" smooth="yes"/>
      <point x="52" y="-74"/>
      <point x="116" y="-138"/>
    </contour>
  </outline>
</glyph>
<glyph name="semicolon" format="1">
  <advance width="294"/>
  <unicode hex="003B"/>
  <outline>
    <contour>
      <point x="197" y="536" type="curve" smooth="yes"/>
      <point x="222" y="536"/>
      <point x="244" y="558"/>
      <point x="244" y="583" type="curve" smooth="yes"/>
      <point x="244" y="592" type="line" smooth="yes"/>
      <point x="244" y="617"/>
      <point x="222" y="639"/>
      <point x="197" y="639" type="curve" smooth="yes"/>
      <point x="172" y="639"/>
      <point x="150" y="617"/>
      <point x="150" y="592" type="curve" smooth="yes"/>
      <point x="150" y="583" type="line" smooth="yes"/>
      <point x="150" y="558"/>
      <point x="172" y="536"/>
    </contour>
    <contour>
      <point x="218" y="234" type="curve" smooth="yes"/>
      <point x="195" y="245"/>
      <point x="166" y="236"/>
      <point x="155" y="213" type="curve" smooth="yes"/>
      <point x="55" y="13" type="line" smooth="yes"/>
      <point x="44" y="-10"/>
      <point x="53" y="-39"/>
      <point x="76" y="-50" type="curve" smooth="yes"/>
      <point x="99" y="-61"/>
      <point x="128" y="-52"/>
      <point x="139" y="-29" type="curve" smooth="yes"/>
      <point x="239" y="171" type="line" smooth="yes"/>
      <point x="250" y="194"/>
      <point x="241" y="223"/>
    </contour>
  </outline>
</glyph>
<glyph name="less" format="1">
  <advance width="467"/>
  <unicode hex="003C"/>
  <outline>
    <contour>
      <point x="410" y="70" type="curve" smooth="yes"/>
      <point x="428" y="106"/>
      <point x="413" y="151"/>
      <point x="378" y="168" type="curve" smooth="yes"/>
      <point x="277" y="219" type="line"/>
      <point x="217" y="357" type="line"/>
      <point x="378" y="438" type="line" smooth="yes"/>
      <point x="413" y="455"/>
      <point x="428" y="500"/>
      <point x="410" y="536" type="curve" smooth="yes"/>
      <point x="393" y="571"/>
      <point x="348" y="586"/>
      <point x="312" y="568" type="curve" smooth="yes"/>
      <point x="90" y="457" type="line" smooth="yes"/>
      <point x="56" y="440"/>
      <point x="41" y="398"/>
      <point x="56" y="363" type="curve" smooth="yes"/>
      <point x="154" y="136" type="line" smooth="yes"/>
      <point x="159" y="123"/>
      <point x="175" y="107"/>
      <point x="188" y="100" type="curve" smooth="yes"/>
      <point x="312" y="38" type="line" smooth="yes"/>
      <point x="348" y="20"/>
      <point x="393" y="35"/>
    </contour>
  </outline>
</glyph>
<glyph name="equal" format="1">
  <advance width="904"/>
  <unicode hex="003D"/>
  <outline>
    <contour>
      <point x="152" y="336" type="curve" smooth="yes"/>
      <point x="752" y="336" type="line" smooth="yes"/>
      <point x="807" y="336"/>
      <point x="854" y="383"/>
      <point x="854" y="438" type="curve" smooth="yes"/>
      <point x="854" y="493"/>
      <point x="807" y="540"/>
      <point x="752" y="540" type="curve" smooth="yes"/>
      <point x="152" y="540" type="line" smooth="yes"/>
      <point x="97" y="540"/>
      <point x="50" y="493"/>
      <point x="50" y="438" type="curve" smooth="yes"/>
      <point x="50" y="383"/>
      <point x="97" y="336"/>
    </contour>
    <contour>
      <point x="152" y="36" type="curve" smooth="yes"/>
      <point x="752" y="36" type="line" smooth="yes"/>
      <point x="807" y="36"/>
      <point x="854" y="83"/>
      <point x="854" y="138" type="curve" smooth="yes"/>
      <point x="854" y="193"/>
      <point x="807" y="240"/>
      <point x="752" y="240" type="curve" smooth="yes"/>
      <point x="152" y="240" type="line" smooth="yes"/>
      <point x="97" y="240"/>
      <point x="50" y="193"/>
      <point x="50" y="138" type="curve" smooth="yes"/>
      <point x="50" y="83"/>
      <point x="97" y="36"/>
    </contour>
  </outline>
</glyph>
<glyph name="greater" format="1">
  <advance width="608"/>
  <unicode hex="003E"/>
  <outline>
    <contour>
      <point x="151" y="57" type="curve" smooth="yes"/>
      <point x="169" y="66" type="line" smooth="yes"/>
      <point x="170" y="67"/>
      <point x="173" y="68"/>
      <point x="174" y="69" type="curve" smooth="yes"/>
      <point x="521" y="278" type="line" smooth="yes"/>
      <point x="572" y="309"/>
      <point x="569" y="374"/>
      <point x="516" y="400" type="curve" smooth="yes"/>
      <point x="151" y="583" type="line" smooth="yes"/>
      <point x="117" y="600"/>
      <point x="74" y="585"/>
      <point x="57" y="551" type="curve" smooth="yes"/>
      <point x="40" y="517"/>
      <point x="55" y="474"/>
      <point x="89" y="457" type="curve" smooth="yes"/>
      <point x="339" y="332" type="line"/>
      <point x="104" y="190" type="line"/>
      <point x="89" y="183" type="line" smooth="yes"/>
      <point x="55" y="166"/>
      <point x="40" y="123"/>
      <point x="57" y="89" type="curve" smooth="yes"/>
      <point x="74" y="55"/>
      <point x="117" y="40"/>
    </contour>
  </outline>
</glyph>
<glyph name="question" format="1">
  <advance width="797"/>
  <unicode hex="003F"/>
  <outline>
    <contour>
      <point x="367" y="-118" type="curve" smooth="yes"/>
      <point x="431" y="-118"/>
      <point x="485" y="-64"/>
      <point x="485" y="0" type="curve" smooth="yes"/>
      <point x="485" y="11" type="line" smooth="yes"/>
      <point x="485" y="49"/>
      <point x="466" y="83"/>
      <point x="437" y="105" type="curve"/>
      <point x="441" y="108"/>
      <point x="446" y="112"/>
      <point x="450" y="116" type="curve" smooth="yes"/>
      <point x="713" y="374" type="line" smooth="yes"/>
      <point x="746" y="405"/>
      <point x="757" y="464"/>
      <point x="739" y="505" type="curve" smooth="yes"/>
      <point x="591" y="847" type="line" smooth="yes"/>
      <point x="561" y="916"/>
      <point x="483" y="940"/>
      <point x="419" y="899" type="curve" smooth="yes"/>
      <point x="105" y="699" type="line" smooth="yes"/>
      <point x="51" y="664"/>
      <point x="34" y="589"/>
      <point x="68" y="536" type="curve" smooth="yes"/>
      <point x="103" y="482"/>
      <point x="178" y="465"/>
      <point x="231" y="499" type="curve" smooth="yes"/>
      <point x="430" y="626" type="line"/>
      <point x="490" y="486" type="line"/>
      <point x="284" y="284" type="line" smooth="yes"/>
      <point x="239" y="240"/>
      <point x="238" y="163"/>
      <point x="283" y="117" type="curve" smooth="yes"/>
      <point x="287" y="113"/>
      <point x="292" y="109"/>
      <point x="297" y="105" type="curve"/>
      <point x="268" y="83"/>
      <point x="249" y="49"/>
      <point x="249" y="11" type="curve" smooth="yes"/>
      <point x="249" y="0" type="line" smooth="yes"/>
      <point x="249" y="-64"/>
      <point x="303" y="-118"/>
    </contour>
  </outline>
</glyph>
<glyph name="at" format="1">
  <advance width="681"/>
  <unicode hex="0040"/>
  <outline>
    <contour>
      <point x="509" y="617" type="line" smooth="yes"/>
      <point x="508" y="617"/>
      <point x="506" y="617"/>
      <point x="505" y="617" type="curve"/>
      <point x="501" y="617" type="line" smooth="yes"/>
      <point x="500" y="616"/>
      <point x="498" y="616"/>
      <point x="496" y="616" type="curve"/>
      <point x="496" y="616"/>
      <point x="496" y="615"/>
      <point x="496" y="615" type="curve"/>
      <point x="494" y="615"/>
      <point x="492" y="615"/>
      <point x="490" y="614" type="curve"/>
      <point x="510" y="630" type="line"/>
      <point x="510" y="617" type="line"/>
    </contour>
    <contour>
      <point x="549" y="-85" type="curve" smooth="yes"/>
      <point x="572" y="-64"/>
      <point x="574" y="-25"/>
      <point x="552" y="-2" type="curve" smooth="yes"/>
      <point x="196" y="383" type="line"/>
      <point x="460" y="590" type="line"/>
      <point x="454" y="582"/>
      <point x="451" y="572"/>
      <point x="450" y="562" type="curve"/>
      <point x="450" y="562"/>
      <point x="450" y="561"/>
      <point x="450" y="561" type="curve"/>
      <point x="450" y="558" type="line" smooth="yes"/>
      <point x="450" y="158" type="line" smooth="yes"/>
      <point x="450" y="126"/>
      <point x="477" y="99"/>
      <point x="509" y="99" type="curve" smooth="yes"/>
      <point x="518" y="99"/>
      <point x="527" y="101"/>
      <point x="535" y="105" type="curve"/>
      <point x="569" y="89"/>
      <point x="618" y="108"/>
      <point x="619" y="159" type="curve" smooth="yes"/>
      <point x="631" y="751" type="line" smooth="yes"/>
      <point x="632" y="806"/>
      <point x="578" y="833"/>
      <point x="536" y="799" type="curve" smooth="yes"/>
      <point x="73" y="437" type="line" smooth="yes"/>
      <point x="45" y="415"/>
      <point x="42" y="376"/>
      <point x="66" y="350" type="curve" smooth="yes"/>
      <point x="466" y="-82" type="line" smooth="yes"/>
      <point x="487" y="-105"/>
      <point x="526" y="-107"/>
    </contour>
  </outline>
</glyph>
<glyph name="A" format="1">
  <advance width="856"/>
  <unicode hex="0041"/>
  <outline>
    <contour>
      <point x="728" y="-82" type="curve" smooth="yes"/>
      <point x="770" y="-82"/>
      <point x="806" y="-46"/>
      <point x="806" y="-4" type="curve" smooth="yes"/>
      <point x="806" y="346" type="line"/>
      <point x="806" y="346" type="line" smooth="yes"/>
      <point x="806" y="346" type="line"/>
      <point x="806" y="374" type="line"/>
      <point x="806" y="631" type="line" smooth="yes"/>
      <point x="806" y="652"/>
      <point x="793" y="678"/>
      <point x="778" y="691" type="curve" smooth="yes"/>
      <point x="579" y="856" type="line" smooth="yes"/>
      <point x="567" y="866"/>
      <point x="544" y="874"/>
      <point x="528" y="874" type="curve" smooth="yes"/>
      <point x="275" y="871" type="line" smooth="yes"/>
      <point x="252" y="871"/>
      <point x="224" y="856"/>
      <point x="211" y="837" type="curve" smooth="yes"/>
      <point x="64" y="624" type="line" smooth="yes"/>
      <point x="56" y="613"/>
      <point x="50" y="593"/>
      <point x="50" y="580" type="curve" smooth="yes"/>
      <point x="50" y="327" type="line"/>
      <point x="54" y="77" type="line" smooth="yes"/>
      <point x="55" y="-16"/>
      <point x="177" y="-34"/>
      <point x="206" y="54" type="curve" smooth="yes"/>
      <point x="271" y="252" type="line"/>
      <point x="468" y="268" type="line"/>
      <point x="650" y="268" type="line"/>
      <point x="650" y="118" type="line"/>
      <point x="650" y="-4" type="line" smooth="yes"/>
      <point x="650" y="-46"/>
      <point x="686" y="-82"/>
    </contour>
    <contour>
      <point x="468" y="424" type="line"/>
      <point x="207" y="403" type="line" smooth="yes"/>
      <point x="206" y="403"/>
      <point x="206" y="403"/>
      <point x="206" y="403" type="curve"/>
      <point x="206" y="555" type="line"/>
      <point x="317" y="715" type="line"/>
      <point x="501" y="718" type="line"/>
      <point x="650" y="595" type="line"/>
      <point x="650" y="424" type="line"/>
    </contour>
  </outline>
</glyph>
<glyph name="B" format="1">
  <advance width="1012"/>
  <unicode hex="0042"/>
  <outline>
    <contour>
      <point x="492" y="-152" type="line" smooth="yes"/>
      <point x="609" y="-152" type="line" smooth="yes"/>
      <point x="616" y="-152"/>
      <point x="627" y="-151"/>
      <point x="634" y="-150" type="curve" smooth="yes"/>
      <point x="744" y="-132" type="line" smooth="yes"/>
      <point x="774" y="-127"/>
      <point x="815" y="-105"/>
      <point x="835" y="-82" type="curve" smooth="yes"/>
      <point x="906" y="-3" type="line" smooth="yes"/>
      <point x="923" y="16"/>
      <point x="940" y="53"/>
      <point x="944" y="78" type="curve" smooth="yes"/>
      <point x="960" y="188" type="line" smooth="yes"/>
      <point x="962" y="201"/>
      <point x="962" y="223"/>
      <point x="960" y="236" type="curve" smooth="yes"/>
      <point x="942" y="345" type="line" smooth="yes"/>
      <point x="938" y="365"/>
      <point x="928" y="388"/>
      <point x="914" y="408" type="curve"/>
      <point x="929" y="428"/>
      <point x="942" y="459"/>
      <point x="945" y="481" type="curve" smooth="yes"/>
      <point x="960" y="591" type="line" smooth="yes"/>
      <point x="962" y="604"/>
      <point x="962" y="626"/>
      <point x="960" y="640" type="curve" smooth="yes"/>
      <point x="941" y="747" type="line" smooth="yes"/>
      <point x="935" y="780"/>
      <point x="909" y="823"/>
      <point x="884" y="843" type="curve" smooth="yes"/>
      <point x="792" y="915" type="line" smooth="yes"/>
      <point x="772" y="931"/>
      <point x="736" y="945"/>
      <point x="711" y="948" type="curve" smooth="yes"/>
      <point x="600" y="959" type="line" smooth="yes"/>
      <point x="596" y="960"/>
      <point x="588" y="960"/>
      <point x="584" y="960" type="curve" smooth="yes"/>
      <point x="474" y="960" type="line"/>
      <point x="367" y="959" type="line" smooth="yes"/>
      <point x="355" y="958"/>
      <point x="334" y="955"/>
      <point x="322" y="951" type="curve" smooth="yes"/>
      <point x="215" y="917" type="line" smooth="yes"/>
      <point x="182" y="907"/>
      <point x="141" y="873"/>
      <point x="125" y="842" type="curve" smooth="yes"/>
      <point x="70" y="739" type="line" smooth="yes"/>
      <point x="61" y="721"/>
      <point x="53" y="690"/>
      <point x="52" y="669" type="curve" smooth="yes"/>
      <point x="50" y="562" type="line"/>
      <point x="50" y="450" type="line"/>
      <point x="50" y="232" type="line"/>
      <point x="58" y="112" type="line" smooth="yes"/>
      <point x="60" y="90"/>
      <point x="71" y="58"/>
      <point x="83" y="39" type="curve" smooth="yes"/>
      <point x="143" y="-55" type="line" smooth="yes"/>
      <point x="161" y="-84"/>
      <point x="204" y="-115"/>
      <point x="239" y="-123" type="curve" smooth="yes"/>
      <point x="346" y="-148" type="line" smooth="yes"/>
      <point x="356" y="-150"/>
      <point x="372" y="-152"/>
      <point x="382" y="-152" type="curve" smooth="yes"/>
      <point x="492" y="-152" type="line" smooth="yes"/>
    </contour>
    <contour>
      <point x="586" y="560" type="curve" smooth="yes"/>
      <point x="362" y="560" type="line"/>
      <point x="363" y="626" type="line"/>
      <point x="370" y="639" type="line"/>
      <point x="394" y="647" type="line"/>
      <point x="474" y="648" type="line"/>
      <point x="576" y="648" type="line"/>
      <point x="634" y="642" type="line"/>
      <point x="644" y="635" type="line"/>
      <point x="648" y="610" type="line"/>
      <point x="642" y="570" type="line"/>
      <point x="640" y="568" type="line"/>
      <point x="592" y="560" type="line"/>
      <point x="590" y="560"/>
      <point x="588" y="560"/>
    </contour>
    <contour>
      <point x="362" y="232" type="line"/>
      <point x="362" y="248" type="line"/>
      <point x="578" y="248" type="line"/>
      <point x="635" y="242" type="line"/>
      <point x="644" y="235" type="line"/>
      <point x="648" y="209" type="line"/>
      <point x="642" y="170" type="line"/>
      <point x="640" y="167" type="line"/>
      <point x="596" y="160" type="line"/>
      <point x="492" y="160" type="line"/>
      <point x="400" y="160" type="line"/>
      <point x="371" y="167" type="line"/>
      <point x="367" y="174" type="line"/>
    </contour>
  </outline>
</glyph>
<glyph name="C" format="1">
  <advance width="989"/>
  <unicode hex="0043"/>
  <outline>
    <contour>
      <point x="674" y="-142" type="line" smooth="yes"/>
      <point x="716" y="-141"/>
      <point x="769" y="-111"/>
      <point x="792" y="-75" type="curve" smooth="yes"/>
      <point x="917" y="120" type="line" smooth="yes"/>
      <point x="959" y="186"/>
      <point x="939" y="278"/>
      <point x="873" y="320" type="curve" smooth="yes"/>
      <point x="807" y="362"/>
      <point x="715" y="342"/>
      <point x="673" y="276" type="curve" smooth="yes"/>
      <point x="590" y="146" type="line"/>
      <point x="464" y="143" type="line"/>
      <point x="356" y="175" type="line"/>
      <point x="340" y="295" type="line"/>
      <point x="340" y="503" type="line"/>
      <point x="356" y="623" type="line"/>
      <point x="460" y="652" type="line"/>
      <point x="591" y="648" type="line"/>
      <point x="673" y="520" type="line" smooth="yes"/>
      <point x="715" y="454"/>
      <point x="808" y="434"/>
      <point x="873" y="476" type="curve" smooth="yes"/>
      <point x="939" y="518"/>
      <point x="959" y="611"/>
      <point x="917" y="676" type="curve" smooth="yes"/>
      <point x="794" y="868" type="line" smooth="yes"/>
      <point x="771" y="903"/>
      <point x="719" y="933"/>
      <point x="677" y="935" type="curve" smooth="yes"/>
      <point x="448" y="943" type="line" smooth="yes"/>
      <point x="436" y="943"/>
      <point x="416" y="941"/>
      <point x="404" y="938" type="curve" smooth="yes"/>
      <point x="186" y="877" type="line" smooth="yes"/>
      <point x="135" y="862"/>
      <point x="88" y="809"/>
      <point x="81" y="756" type="curve" smooth="yes"/>
      <point x="51" y="532" type="line" smooth="yes"/>
      <point x="51" y="527"/>
      <point x="50" y="518"/>
      <point x="50" y="513" type="curve" smooth="yes"/>
      <point x="50" y="285" type="line" smooth="yes"/>
      <point x="50" y="280"/>
      <point x="51" y="271"/>
      <point x="51" y="265" type="curve" smooth="yes"/>
      <point x="82" y="43" type="line" smooth="yes"/>
      <point x="89" y="-8"/>
      <point x="135" y="-62"/>
      <point x="184" y="-76" type="curve" smooth="yes"/>
      <point x="404" y="-141" type="line" smooth="yes"/>
      <point x="416" y="-145"/>
      <point x="436" y="-147"/>
      <point x="448" y="-147" type="curve" smooth="yes"/>
    </contour>
  </outline>
</glyph>
<glyph name="D" format="1">
  <advance width="808"/>
  <unicode hex="0044"/>
  <outline>
    <contour>
      <point x="174" y="-55" type="curve" smooth="yes"/>
      <point x="474" y="-55" type="line" smooth="yes"/>
      <point x="476" y="-55"/>
      <point x="479" y="-55"/>
      <point x="481" y="-55" type="curve" smooth="yes"/>
      <point x="626" y="-36" type="line" smooth="yes"/>
      <point x="639" y="-35"/>
      <point x="656" y="-24"/>
      <point x="664" y="-13" type="curve" smooth="yes"/>
      <point x="743" y="104" type="line" smooth="yes"/>
      <point x="748" y="111"/>
      <point x="752" y="124"/>
      <point x="753" y="132" type="curve" smooth="yes"/>
      <point x="758" y="277" type="line"/>
      <point x="758" y="429" type="line"/>
      <point x="758" y="589" type="line" smooth="yes"/>
      <point x="758" y="591"/>
      <point x="758" y="593"/>
      <point x="758" y="595" type="curve"/>
      <point x="758" y="600"/>
      <point x="758" y="607"/>
      <point x="756" y="613" type="curve" smooth="yes"/>
      <point x="718" y="758" type="line" smooth="yes"/>
      <point x="714" y="772"/>
      <point x="700" y="788"/>
      <point x="686" y="793" type="curve" smooth="yes"/>
      <point x="557" y="847" type="line" smooth="yes"/>
      <point x="552" y="850"/>
      <point x="543" y="852"/>
      <point x="537" y="852" type="curve" smooth="yes"/>
      <point x="387" y="853" type="line"/>
      <point x="238" y="853" type="line" smooth="yes"/>
      <point x="231" y="853"/>
      <point x="219" y="850"/>
      <point x="213" y="847" type="curve" smooth="yes"/>
      <point x="79" y="777" type="line" smooth="yes"/>
      <point x="63" y="768"/>
      <point x="50" y="747"/>
      <point x="50" y="729" type="curve"/>
      <point x="50" y="129" type="line" smooth="yes"/>
      <point x="50" y="121"/>
      <point x="53" y="110"/>
      <point x="56" y="103" type="curve" smooth="yes"/>
      <point x="126" y="-27" type="line" smooth="yes"/>
      <point x="135" y="-42"/>
      <point x="156" y="-55"/>
    </contour>
    <contour>
      <point x="386" y="745" type="line"/>
      <point x="525" y="744" type="line"/>
      <point x="620" y="704" type="line"/>
      <point x="650" y="591" type="line"/>
      <point x="650" y="589" type="line" smooth="yes"/>
      <point x="650" y="429" type="line"/>
      <point x="650" y="281" type="line"/>
      <point x="645" y="152" type="line"/>
      <point x="588" y="68" type="line"/>
      <point x="471" y="53" type="line"/>
      <point x="206" y="53" type="line"/>
      <point x="158" y="143" type="line"/>
      <point x="158" y="696" type="line"/>
      <point x="251" y="745" type="line"/>
    </contour>
  </outline>
</glyph>
<glyph name="E" format="1">
  <advance width="785"/>
  <unicode hex="0045"/>
  <outline>
    <contour>
      <point x="305" y="-43" type="curve" smooth="yes"/>
      <point x="492" y="-43" type="line" smooth="yes"/>
      <point x="494" y="-43" type="line"/>
      <point x="497" y="-43" type="line" smooth="yes"/>
      <point x="562" y="-38" type="line" smooth="yes"/>
      <point x="574" y="-37"/>
      <point x="588" y="-29"/>
      <point x="594" y="-19" type="curve" smooth="yes"/>
      <point x="727" y="171" type="line" smooth="yes"/>
      <point x="741" y="190"/>
      <point x="736" y="218"/>
      <point x="717" y="231" type="curve" smooth="yes"/>
      <point x="698" y="245"/>
      <point x="670" y="240"/>
      <point x="657" y="221" type="curve" smooth="yes"/>
      <point x="535" y="46" type="line"/>
      <point x="492" y="43" type="line"/>
      <point x="492" y="43" type="line" smooth="yes"/>
      <point x="311" y="43" type="line"/>
      <point x="172" y="83" type="line"/>
      <point x="139" y="211" type="line"/>
      <point x="194" y="334" type="line"/>
      <point x="341" y="359" type="line" smooth="yes"/>
      <point x="392" y="368"/>
      <point x="390" y="437"/>
      <point x="339" y="444" type="curve" smooth="yes"/>
      <point x="193" y="464" type="line"/>
      <point x="138" y="585" type="line"/>
      <point x="170" y="716" type="line"/>
      <point x="306" y="757" type="line"/>
      <point x="465" y="757" type="line"/>
      <point x="602" y="727" type="line"/>
      <point x="650" y="588" type="line" smooth="yes"/>
      <point x="658" y="566"/>
      <point x="683" y="554"/>
      <point x="705" y="561" type="curve" smooth="yes"/>
      <point x="727" y="569"/>
      <point x="739" y="594"/>
      <point x="732" y="616" type="curve" smooth="yes"/>
      <point x="675" y="778" type="line" smooth="yes"/>
      <point x="671" y="791"/>
      <point x="657" y="804"/>
      <point x="644" y="806" type="curve" smooth="yes"/>
      <point x="478" y="842" type="line" smooth="yes"/>
      <point x="476" y="843"/>
      <point x="472" y="843"/>
      <point x="469" y="843" type="curve" smooth="yes"/>
      <point x="300" y="843" type="line" smooth="yes"/>
      <point x="296" y="843"/>
      <point x="291" y="842"/>
      <point x="288" y="841" type="curve" smooth="yes"/>
      <point x="122" y="792" type="line" smooth="yes"/>
      <point x="109" y="788"/>
      <point x="95" y="774"/>
      <point x="92" y="761" type="curve" smooth="yes"/>
      <point x="51" y="591" type="line" smooth="yes"/>
      <point x="49" y="583"/>
      <point x="50" y="570"/>
      <point x="53" y="563" type="curve" smooth="yes"/>
      <point x="125" y="407" type="line" smooth="yes"/>
      <point x="127" y="404"/>
      <point x="128" y="401"/>
      <point x="131" y="399" type="curve"/>
      <point x="128" y="396"/>
      <point x="127" y="393"/>
      <point x="125" y="390" type="curve" smooth="yes"/>
      <point x="54" y="233" type="line" smooth="yes"/>
      <point x="51" y="225"/>
      <point x="50" y="213"/>
      <point x="52" y="204" type="curve" smooth="yes"/>
      <point x="95" y="38" type="line" smooth="yes"/>
      <point x="98" y="25"/>
      <point x="111" y="11"/>
      <point x="124" y="8" type="curve" smooth="yes"/>
      <point x="293" y="-41" type="line" smooth="yes"/>
      <point x="296" y="-42"/>
      <point x="301" y="-43"/>
    </contour>
  </outline>
</glyph>
<glyph name="F" format="1">
  <advance width="948"/>
  <unicode hex="0046"/>
  <outline>
    <contour>
      <point x="300" y="-1" type="curve" smooth="yes"/>
      <point x="300" y="81" type="line"/>
      <point x="427" y="352" type="line" smooth="yes"/>
      <point x="439" y="379"/>
      <point x="441" y="423"/>
      <point x="430" y="450" type="curve" smooth="yes"/>
      <point x="359" y="629" type="line"/>
      <point x="486" y="663" type="line"/>
      <point x="699" y="502" type="line" smooth="yes"/>
      <point x="752" y="462"/>
      <point x="833" y="473"/>
      <point x="874" y="527" type="curve" smooth="yes"/>
      <point x="914" y="580"/>
      <point x="903" y="661"/>
      <point x="849" y="702" type="curve" smooth="yes"/>
      <point x="588" y="900" type="line" smooth="yes"/>
      <point x="561" y="920"/>
      <point x="512" y="929"/>
      <point x="480" y="921" type="curve" smooth="yes"/>
      <point x="159" y="834" type="line" smooth="yes"/>
      <point x="85" y="814"/>
      <point x="48" y="739"/>
      <point x="76" y="668" type="curve" smooth="yes"/>
      <point x="178" y="409" type="line"/>
      <point x="62" y="162" type="line" smooth="yes"/>
      <point x="56" y="148"/>
      <point x="51" y="125"/>
      <point x="51" y="110" type="curve" smooth="yes"/>
      <point x="50" y="1" type="line" smooth="yes"/>
      <point x="50" y="-67"/>
      <point x="107" y="-125"/>
      <point x="174" y="-125" type="curve" smooth="yes"/>
      <point x="242" y="-125"/>
      <point x="300" y="-68"/>
    </contour>
  </outline>
</glyph>
<glyph name="G" format="1">
  <advance width="821"/>
  <unicode hex="0047"/>
  <outline>
    <contour>
      <point x="579" y="-52" type="line" smooth="yes"/>
      <point x="598" y="-51"/>
      <point x="620" y="-38"/>
      <point x="630" y="-23" type="curve" smooth="yes"/>
      <point x="763" y="192" type="line" smooth="yes"/>
      <point x="777" y="215"/>
      <point x="773" y="248"/>
      <point x="754" y="267" type="curve" smooth="yes"/>
      <point x="574" y="447" type="line" smooth="yes"/>
      <point x="571" y="450"/>
      <point x="566" y="454"/>
      <point x="563" y="456" type="curve" smooth="yes"/>
      <point x="374" y="572" type="line"/>
      <point x="372" y="607" type="line" smooth="yes"/>
      <point x="370" y="640"/>
      <point x="341" y="667"/>
      <point x="308" y="665" type="curve" smooth="yes"/>
      <point x="275" y="663"/>
      <point x="248" y="634"/>
      <point x="250" y="601" type="curve" smooth="yes"/>
      <point x="254" y="533" type="line" smooth="yes"/>
      <point x="255" y="516"/>
      <point x="268" y="494"/>
      <point x="283" y="485" type="curve" smooth="yes"/>
      <point x="493" y="356" type="line"/>
      <point x="634" y="215" type="line"/>
      <point x="544" y="70" type="line"/>
      <point x="341" y="65" type="line"/>
      <point x="175" y="178" type="line"/>
      <point x="172" y="394" type="line"/>
      <point x="173" y="618" type="line"/>
      <point x="330" y="743" type="line"/>
      <point x="529" y="740" type="line"/>
      <point x="663" y="567" type="line" smooth="yes"/>
      <point x="683" y="541"/>
      <point x="722" y="536"/>
      <point x="748" y="556" type="curve" smooth="yes"/>
      <point x="774" y="576"/>
      <point x="779" y="615"/>
      <point x="759" y="641" type="curve" smooth="yes"/>
      <point x="608" y="838" type="line" smooth="yes"/>
      <point x="598" y="851"/>
      <point x="576" y="862"/>
      <point x="560" y="862" type="curve" smooth="yes"/>
      <point x="310" y="865" type="line" smooth="yes"/>
      <point x="298" y="865"/>
      <point x="280" y="859"/>
      <point x="271" y="852" type="curve" smooth="yes"/>
      <point x="74" y="695" type="line" smooth="yes"/>
      <point x="61" y="685"/>
      <point x="51" y="663"/>
      <point x="51" y="647" type="curve" smooth="yes"/>
      <point x="50" y="394" type="line"/>
      <point x="53" y="144" type="line" smooth="yes"/>
      <point x="53" y="126"/>
      <point x="65" y="104"/>
      <point x="80" y="94" type="curve" smooth="yes"/>
      <point x="289" y="-47" type="line" smooth="yes"/>
      <point x="298" y="-53"/>
      <point x="314" y="-57"/>
      <point x="324" y="-57" type="curve" smooth="yes"/>
    </contour>
  </outline>
</glyph>
<glyph name="H" format="1">
  <advance width="912"/>
  <unicode hex="0048"/>
  <outline>
    <contour>
      <point x="756" y="-110" type="curve" smooth="yes"/>
      <point x="813" y="-110"/>
      <point x="862" y="-61"/>
      <point x="862" y="-4" type="curve" smooth="yes"/>
      <point x="862" y="596" type="line" smooth="yes"/>
      <point x="862" y="716"/>
      <point x="713" y="750"/>
      <point x="661" y="642" type="curve" smooth="yes"/>
      <point x="599" y="515" type="line"/>
      <point x="465" y="501" type="line"/>
      <point x="274" y="494" type="line" smooth="yes"/>
      <point x="270" y="493"/>
      <point x="266" y="493"/>
      <point x="262" y="492" type="curve"/>
      <point x="262" y="796" type="line" smooth="yes"/>
      <point x="262" y="853"/>
      <point x="213" y="902"/>
      <point x="156" y="902" type="curve" smooth="yes"/>
      <point x="99" y="902"/>
      <point x="50" y="853"/>
      <point x="50" y="796" type="curve" smooth="yes"/>
      <point x="50" y="426" type="line"/>
      <point x="50" y="225" type="line"/>
      <point x="51" y="25" type="line" smooth="yes"/>
      <point x="52" y="-113"/>
      <point x="258" y="-116"/>
      <point x="263" y="23" type="curve" smooth="yes"/>
      <point x="268" y="189" type="line"/>
      <point x="335" y="284" type="line"/>
      <point x="487" y="291" type="line"/>
      <point x="650" y="308" type="line"/>
      <point x="650" y="-4" type="line" smooth="yes"/>
      <point x="650" y="-61"/>
      <point x="699" y="-110"/>
    </contour>
  </outline>
</glyph>
<glyph name="I" format="1">
  <advance width="862"/>
  <unicode hex="0049"/>
  <outline>
    <contour>
      <point x="131" y="-82" type="curve" smooth="yes"/>
      <point x="611" y="-82" type="line" smooth="yes"/>
      <point x="704" y="-82"/>
      <point x="729" y="35"/>
      <point x="644" y="73" type="curve" smooth="yes"/>
      <point x="534" y="122" type="line"/>
      <point x="512" y="236" type="line"/>
      <point x="512" y="550" type="line" smooth="yes"/>
      <point x="512" y="553"/>
      <point x="512" y="557"/>
      <point x="511" y="560" type="curve" smooth="yes"/>
      <point x="491" y="718" type="line"/>
      <point x="581" y="718" type="line"/>
      <point x="731" y="718" type="line" smooth="yes"/>
      <point x="775" y="718"/>
      <point x="812" y="755"/>
      <point x="812" y="799" type="curve" smooth="yes"/>
      <point x="812" y="843"/>
      <point x="775" y="880"/>
      <point x="731" y="880" type="curve" smooth="yes"/>
      <point x="417" y="880" type="line"/>
      <point x="255" y="872" type="line" smooth="yes"/>
      <point x="166" y="867"/>
      <point x="144" y="759"/>
      <point x="223" y="718" type="curve" smooth="yes"/>
      <point x="335" y="662" type="line"/>
      <point x="350" y="545" type="line"/>
      <point x="350" y="228" type="line" smooth="yes"/>
      <point x="350" y="224"/>
      <point x="351" y="217"/>
      <point x="352" y="213" type="curve" smooth="yes"/>
      <point x="378" y="80" type="line"/>
      <point x="131" y="80" type="line" smooth="yes"/>
      <point x="87" y="80"/>
      <point x="50" y="43"/>
      <point x="50" y="-1" type="curve" smooth="yes"/>
      <point x="50" y="-45"/>
      <point x="87" y="-82"/>
    </contour>
  </outline>
</glyph>
<glyph name="J" format="1">
  <advance width="780"/>
  <unicode hex="004A"/>
  <outline>
    <contour>
      <point x="119" y="-28" type="curve" smooth="yes"/>
      <point x="419" y="291" type="line" smooth="yes"/>
      <point x="430" y="302"/>
      <point x="433" y="322"/>
      <point x="426" y="336" type="curve" smooth="yes"/>
      <point x="223" y="759" type="line"/>
      <point x="690" y="759" type="line" smooth="yes"/>
      <point x="712" y="759"/>
      <point x="730" y="777"/>
      <point x="730" y="799" type="curve" smooth="yes"/>
      <point x="730" y="821"/>
      <point x="712" y="839"/>
      <point x="690" y="839" type="curve" smooth="yes"/>
      <point x="160" y="839" type="line" smooth="yes"/>
      <point x="128" y="839"/>
      <point x="110" y="810"/>
      <point x="124" y="782" type="curve" smooth="yes"/>
      <point x="342" y="326" type="line"/>
      <point x="61" y="26" type="line" smooth="yes"/>
      <point x="46" y="11"/>
      <point x="47" y="-15"/>
      <point x="63" y="-30" type="curve" smooth="yes"/>
      <point x="78" y="-45"/>
      <point x="104" y="-44"/>
    </contour>
  </outline>
</glyph>
<glyph name="K" format="1">
  <advance width="860"/>
  <unicode hex="004B"/>
  <outline>
    <contour>
      <point x="750" y="-73" type="curve" smooth="yes"/>
      <point x="792" y="-63"/>
      <point x="818" y="-18"/>
      <point x="807" y="24" type="curve" smooth="yes"/>
      <point x="715" y="382" type="line"/>
      <point x="718" y="384" type="line" smooth="yes"/>
      <point x="742" y="392"/>
      <point x="765" y="418"/>
      <point x="770" y="442" type="curve" smooth="yes"/>
      <point x="807" y="607" type="line" smooth="yes"/>
      <point x="808" y="611"/>
      <point x="809" y="619"/>
      <point x="809" y="624" type="curve" smooth="yes"/>
      <point x="810" y="804" type="line" smooth="yes"/>
      <point x="810" y="847"/>
      <point x="774" y="884"/>
      <point x="730" y="884" type="curve" smooth="yes"/>
      <point x="687" y="884"/>
      <point x="650" y="848"/>
      <point x="650" y="804" type="curve" smooth="yes"/>
      <point x="649" y="633" type="line"/>
      <point x="624" y="521" type="line"/>
      <point x="504" y="480" type="line" smooth="yes"/>
      <point x="499" y="478"/>
      <point x="494" y="476"/>
      <point x="489" y="473" type="curve"/>
      <point x="298" y="472" type="line"/>
      <point x="210" y="785" type="line"/>
      <point x="210" y="804" type="line" smooth="yes"/>
      <point x="210" y="847"/>
      <point x="173" y="884"/>
      <point x="130" y="884" type="curve" smooth="yes"/>
      <point x="87" y="884"/>
      <point x="50" y="847"/>
      <point x="50" y="804" type="curve" smooth="yes"/>
      <point x="50" y="774" type="line" smooth="yes"/>
      <point x="50" y="768"/>
      <point x="51" y="758"/>
      <point x="53" y="752" type="curve" smooth="yes"/>
      <point x="161" y="370" type="line" smooth="yes"/>
      <point x="170" y="338"/>
      <point x="204" y="311"/>
      <point x="238" y="312" type="curve" smooth="yes"/>
      <point x="567" y="313" type="line"/>
      <point x="653" y="-16" type="line" smooth="yes"/>
      <point x="663" y="-58"/>
      <point x="708" y="-84"/>
    </contour>
  </outline>
</glyph>
<glyph name="L" format="1">
  <advance width="972"/>
  <unicode hex="004C"/>
  <outline>
    <contour>
      <point x="676" y="-136" type="curve" smooth="yes"/>
      <point x="786" y="-136" type="line" smooth="yes"/>
      <point x="859" y="-136"/>
      <point x="922" y="-73"/>
      <point x="922" y="0" type="curve" smooth="yes"/>
      <point x="922" y="73"/>
      <point x="859" y="136"/>
      <point x="786" y="136" type="curve" smooth="yes"/>
      <point x="709" y="136" type="line"/>
      <point x="322" y="333" type="line"/>
      <point x="322" y="800" type="line" smooth="yes"/>
      <point x="322" y="873"/>
      <point x="259" y="936"/>
      <point x="186" y="936" type="curve" smooth="yes"/>
      <point x="113" y="936"/>
      <point x="50" y="873"/>
      <point x="50" y="800" type="curve" smooth="yes"/>
      <point x="50" y="250" type="line" smooth="yes"/>
      <point x="50" y="204"/>
      <point x="83" y="150"/>
      <point x="124" y="129" type="curve" smooth="yes"/>
      <point x="614" y="-121" type="line" smooth="yes"/>
      <point x="630" y="-129"/>
      <point x="658" y="-136"/>
    </contour>
  </outline>
</glyph>
<glyph name="M" format="1">
  <advance width="1006"/>
  <unicode hex="004D"/>
  <outline>
    <contour>
      <point x="803" y="-154" type="curve" smooth="yes"/>
      <point x="886" y="-154"/>
      <point x="956" y="-84"/>
      <point x="956" y="-1" type="curve" smooth="yes"/>
      <point x="956" y="419" type="line" smooth="yes"/>
      <point x="956" y="458"/>
      <point x="932" y="510"/>
      <point x="902" y="535" type="curve" smooth="yes"/>
      <point x="582" y="809" type="line" smooth="yes"/>
      <point x="519" y="863"/>
      <point x="423" y="856"/>
      <point x="368" y="794" type="curve" smooth="yes"/>
      <point x="89" y="481" type="line" smooth="yes"/>
      <point x="67" y="457"/>
      <point x="50" y="411"/>
      <point x="50" y="379" type="curve" smooth="yes"/>
      <point x="50" y="-1" type="line" smooth="yes"/>
      <point x="50" y="-84"/>
      <point x="120" y="-154"/>
      <point x="203" y="-154" type="curve" smooth="yes"/>
      <point x="286" y="-154"/>
      <point x="356" y="-84"/>
      <point x="356" y="-1" type="curve" smooth="yes"/>
      <point x="356" y="321" type="line"/>
      <point x="497" y="479" type="line"/>
      <point x="650" y="348" type="line"/>
      <point x="650" y="-1" type="line" smooth="yes"/>
      <point x="650" y="-84"/>
      <point x="720" y="-154"/>
    </contour>
  </outline>
</glyph>
<glyph name="N" format="1">
  <advance width="942"/>
  <unicode hex="004E"/>
  <outline>
    <contour>
      <point x="292" y="-1" type="curve" smooth="yes"/>
      <point x="292" y="608" type="line"/>
      <point x="319" y="645" type="line"/>
      <point x="338" y="635" type="line"/>
      <point x="350" y="522" type="line"/>
      <point x="350" y="337" type="line"/>
      <point x="353" y="147" type="line" smooth="yes"/>
      <point x="353" y="124"/>
      <point x="365" y="91"/>
      <point x="379" y="74" type="curve" smooth="yes"/>
      <point x="493" y="-69" type="line" smooth="yes"/>
      <point x="518" y="-101"/>
      <point x="570" y="-120"/>
      <point x="609" y="-113" type="curve" smooth="yes"/>
      <point x="792" y="-80" type="line" smooth="yes"/>
      <point x="847" y="-70"/>
      <point x="892" y="-17"/>
      <point x="892" y="39" type="curve" smooth="yes"/>
      <point x="892" y="799" type="line" smooth="yes"/>
      <point x="892" y="864"/>
      <point x="836" y="920"/>
      <point x="771" y="920" type="curve" smooth="yes"/>
      <point x="706" y="920"/>
      <point x="650" y="864"/>
      <point x="650" y="799" type="curve" smooth="yes"/>
      <point x="650" y="140" type="line"/>
      <point x="637" y="138" type="line"/>
      <point x="594" y="192" type="line"/>
      <point x="592" y="341" type="line"/>
      <point x="592" y="529" type="line" smooth="yes"/>
      <point x="592" y="533"/>
      <point x="592" y="539"/>
      <point x="591" y="542" type="curve" smooth="yes"/>
      <point x="571" y="726" type="line" smooth="yes"/>
      <point x="567" y="762"/>
      <point x="538" y="804"/>
      <point x="506" y="820" type="curve" smooth="yes"/>
      <point x="340" y="906" type="line" smooth="yes"/>
      <point x="290" y="932"/>
      <point x="222" y="917"/>
      <point x="188" y="872" type="curve" smooth="yes"/>
      <point x="74" y="722" type="line" smooth="yes"/>
      <point x="61" y="704"/>
      <point x="50" y="671"/>
      <point x="50" y="649" type="curve" smooth="yes"/>
      <point x="50" y="-1" type="line" smooth="yes"/>
      <point x="50" y="-66"/>
      <point x="106" y="-122"/>
      <point x="171" y="-122" type="curve" smooth="yes"/>
      <point x="236" y="-122"/>
      <point x="292" y="-66"/>
    </contour>
  </outline>
</glyph>
<glyph name="O" format="1">
  <advance width="850"/>
  <unicode hex="004F"/>
  <outline>
    <contour>
      <point x="599" y="-26" type="curve" smooth="yes"/>
      <point x="796" y="524" type="line" smooth="yes"/>
      <point x="809" y="562"/>
      <point x="790" y="605"/>
      <point x="751" y="619" type="curve" smooth="yes"/>
      <point x="199" y="827" type="line" smooth="yes"/>
      <point x="150" y="845"/>
      <point x="102" y="815"/>
      <point x="98" y="763" type="curve" smooth="yes"/>
      <point x="50" y="177" type="line" smooth="yes"/>
      <point x="47" y="148"/>
      <point x="67" y="114"/>
      <point x="94" y="102" type="curve" smooth="yes"/>
      <point x="488" y="-70" type="line" smooth="yes"/>
      <point x="499" y="-74"/>
      <point x="510" y="-76"/>
      <point x="522" y="-76" type="curve"/>
      <point x="554" y="-78"/>
      <point x="587" y="-58"/>
    </contour>
    <contour>
      <point x="483" y="96" type="line"/>
      <point x="204" y="218" type="line"/>
      <point x="239" y="651" type="line"/>
      <point x="629" y="505" type="line"/>
    </contour>
  </outline>
</glyph>
<glyph name="P" format="1">
  <advance width="934"/>
  <unicode hex="0050"/>
  <outline>
    <contour>
      <point x="166" y="-113" type="curve" smooth="yes"/>
      <point x="229" y="-113"/>
      <point x="282" y="-60"/>
      <point x="282" y="3" type="curve" smooth="yes"/>
      <point x="282" y="36" type="line"/>
      <point x="550" y="210" type="line" smooth="yes"/>
      <point x="554" y="213"/>
      <point x="561" y="218"/>
      <point x="565" y="222" type="curve" smooth="yes"/>
      <point x="845" y="479" type="line" smooth="yes"/>
      <point x="900" y="529"/>
      <point x="897" y="610"/>
      <point x="839" y="656" type="curve" smooth="yes"/>
      <point x="536" y="894" type="line" smooth="yes"/>
      <point x="496" y="926"/>
      <point x="432" y="925"/>
      <point x="392" y="893" type="curve" smooth="yes"/>
      <point x="93" y="653" type="line" smooth="yes"/>
      <point x="69" y="634"/>
      <point x="50" y="594"/>
      <point x="50" y="563" type="curve"/>
      <point x="50" y="3" type="line" smooth="yes"/>
      <point x="50" y="-60"/>
      <point x="103" y="-113"/>
    </contour>
    <contour>
      <point x="282" y="313" type="line"/>
      <point x="282" y="507" type="line"/>
      <point x="465" y="655" type="line"/>
      <point x="588" y="558" type="line"/>
      <point x="415" y="399" type="line"/>
    </contour>
  </outline>
</glyph>
<glyph name="Q" format="1">
  <advance width="863"/>
  <unicode hex="0051"/>
  <outline>
    <contour>
      <point x="608" y="-30" type="curve" smooth="yes"/>
      <point x="808" y="500" type="line" smooth="yes"/>
      <point x="822" y="538"/>
      <point x="804" y="583"/>
      <point x="768" y="601" type="curve" smooth="yes"/>
      <point x="262" y="856" type="line" smooth="yes"/>
      <point x="211" y="882"/>
      <point x="156" y="854"/>
      <point x="146" y="797" type="curve" smooth="yes"/>
      <point x="51" y="243" type="line" smooth="yes"/>
      <point x="46" y="212"/>
      <point x="63" y="175"/>
      <point x="90" y="159" type="curve" smooth="yes"/>
      <point x="481" y="-71" type="line" smooth="yes"/>
      <point x="494" y="-79"/>
      <point x="510" y="-82"/>
      <point x="524" y="-81" type="curve"/>
      <point x="560" y="-84"/>
      <point x="595" y="-64"/>
    </contour>
    <contour>
      <point x="488" y="113" type="line"/>
      <point x="220" y="270" type="line"/>
      <point x="287" y="662" type="line"/>
      <point x="630" y="489" type="line"/>
    </contour>
  </outline>
</glyph>
<glyph name="R" format="1">
  <advance width="809"/>
  <unicode hex="0052"/>
  <outline>
    <contour>
      <point x="158" y="-4" type="curve" smooth="yes"/>
      <point x="158" y="496" type="line"/>
      <point x="158" y="575" type="line"/>
      <point x="160" y="645" type="line"/>
      <point x="179" y="699" type="line"/>
      <point x="221" y="729" type="line"/>
      <point x="289" y="742" type="line"/>
      <point x="362" y="742" type="line"/>
      <point x="442" y="742" type="line"/>
      <point x="517" y="742" type="line"/>
      <point x="576" y="732" type="line"/>
      <point x="619" y="708" type="line"/>
      <point x="646" y="656" type="line"/>
      <point x="651" y="586" type="line"/>
      <point x="651" y="509" type="line"/>
      <point x="647" y="435" type="line"/>
      <point x="621" y="385" type="line"/>
      <point x="568" y="357" type="line"/>
      <point x="499" y="350" type="line" smooth="yes"/>
      <point x="470" y="347"/>
      <point x="448" y="319"/>
      <point x="451" y="290" type="curve" smooth="yes"/>
      <point x="454" y="261"/>
      <point x="482" y="239"/>
      <point x="511" y="242" type="curve" smooth="yes"/>
      <point x="589" y="251" type="line" smooth="yes"/>
      <point x="595" y="251"/>
      <point x="604" y="254"/>
      <point x="609" y="256" type="curve" smooth="yes"/>
      <point x="687" y="297" type="line" smooth="yes"/>
      <point x="695" y="301"/>
      <point x="706" y="312"/>
      <point x="710" y="320" type="curve" smooth="yes"/>
      <point x="748" y="396" type="line" smooth="yes"/>
      <point x="751" y="402"/>
      <point x="754" y="411"/>
      <point x="754" y="418" type="curve" smooth="yes"/>
      <point x="759" y="503" type="line"/>
      <point x="759" y="586" type="line"/>
      <point x="753" y="675" type="line" smooth="yes"/>
      <point x="753" y="681"/>
      <point x="750" y="691"/>
      <point x="747" y="696" type="curve" smooth="yes"/>
      <point x="708" y="772" type="line" smooth="yes"/>
      <point x="704" y="780"/>
      <point x="694" y="790"/>
      <point x="687" y="794" type="curve" smooth="yes"/>
      <point x="621" y="831" type="line" smooth="yes"/>
      <point x="616" y="834"/>
      <point x="608" y="837"/>
      <point x="603" y="838" type="curve" smooth="yes"/>
      <point x="529" y="849" type="line" smooth="yes"/>
      <point x="527" y="849"/>
      <point x="523" y="850"/>
      <point x="521" y="850" type="curve" smooth="yes"/>
      <point x="443" y="850" type="line"/>
      <point x="362" y="850" type="line"/>
      <point x="284" y="850" type="line" smooth="yes"/>
      <point x="281" y="850"/>
      <point x="277" y="849"/>
      <point x="275" y="849" type="curve" smooth="yes"/>
      <point x="189" y="833" type="line" smooth="yes"/>
      <point x="183" y="832"/>
      <point x="173" y="828"/>
      <point x="167" y="824" type="curve" smooth="yes"/>
      <point x="102" y="777" type="line" smooth="yes"/>
      <point x="95" y="772"/>
      <point x="86" y="760"/>
      <point x="83" y="751" type="curve" smooth="yes"/>
      <point x="55" y="673" type="line" smooth="yes"/>
      <point x="54" y="668"/>
      <point x="52" y="661"/>
      <point x="52" y="656" type="curve" smooth="yes"/>
      <point x="50" y="577" type="line"/>
      <point x="50" y="496" type="line"/>
      <point x="50" y="-4" type="line" smooth="yes"/>
      <point x="50" y="-33"/>
      <point x="75" y="-58"/>
      <point x="104" y="-58" type="curve" smooth="yes"/>
      <point x="133" y="-58"/>
      <point x="158" y="-33"/>
    </contour>
    <contour>
      <point x="748" y="-37" type="curve" smooth="yes"/>
      <point x="766" y="-14"/>
      <point x="761" y="21"/>
      <point x="738" y="39" type="curve" smooth="yes"/>
      <point x="347" y="339" type="line" smooth="yes"/>
      <point x="339" y="345"/>
      <point x="324" y="350"/>
      <point x="314" y="350" type="curve" smooth="yes"/>
      <point x="304" y="350" type="line" smooth="yes"/>
      <point x="275" y="350"/>
      <point x="250" y="325"/>
      <point x="250" y="296" type="curve" smooth="yes"/>
      <point x="250" y="270"/>
      <point x="270" y="248"/>
      <point x="294" y="243" type="curve"/>
      <point x="672" y="-47" type="line" smooth="yes"/>
      <point x="695" y="-65"/>
      <point x="730" y="-60"/>
    </contour>
  </outline>
</glyph>
<glyph name="S" format="1">
  <advance width="875"/>
  <unicode hex="0053"/>
  <outline>
    <contour>
      <point x="438" y="-83" type="line"/>
      <point x="556" y="-83" type="line" smooth="yes"/>
      <point x="562" y="-83"/>
      <point x="572" y="-81"/>
      <point x="578" y="-80" type="curve" smooth="yes"/>
      <point x="694" y="-49" type="line" smooth="yes"/>
      <point x="713" y="-44"/>
      <point x="736" y="-27"/>
      <point x="746" y="-10" type="curve" smooth="yes"/>
      <point x="809" y="94" type="line" smooth="yes"/>
      <point x="816" y="105"/>
      <point x="821" y="125"/>
      <point x="821" y="138" type="curve" smooth="yes"/>
      <point x="822" y="256" type="line" smooth="yes"/>
      <point x="822" y="266"/>
      <point x="819" y="282"/>
      <point x="815" y="291" type="curve" smooth="yes"/>
      <point x="769" y="397" type="line" smooth="yes"/>
      <point x="761" y="416"/>
      <point x="738" y="437"/>
      <point x="719" y="444" type="curve" smooth="yes"/>
      <point x="603" y="485" type="line" smooth="yes"/>
      <point x="595" y="488"/>
      <point x="582" y="491"/>
      <point x="574" y="491" type="curve" smooth="yes"/>
      <point x="458" y="491" type="line" smooth="yes"/>
      <point x="458" y="491"/>
      <point x="458" y="491"/>
      <point x="458" y="491" type="curve" smooth="yes"/>
      <point x="344" y="491" type="line"/>
      <point x="268" y="503" type="line"/>
      <point x="233" y="547" type="line"/>
      <point x="225" y="618" type="line"/>
      <point x="242" y="683" type="line"/>
      <point x="295" y="713" type="line"/>
      <point x="385" y="717" type="line"/>
      <point x="502" y="717" type="line"/>
      <point x="593" y="708" type="line"/>
      <point x="639" y="672" type="line"/>
      <point x="652" y="590" type="line" smooth="yes"/>
      <point x="660" y="544"/>
      <point x="706" y="511"/>
      <point x="752" y="518" type="curve" smooth="yes"/>
      <point x="798" y="526"/>
      <point x="831" y="572"/>
      <point x="824" y="618" type="curve" smooth="yes"/>
      <point x="805" y="733" type="line" smooth="yes"/>
      <point x="802" y="752"/>
      <point x="788" y="776"/>
      <point x="773" y="787" type="curve" smooth="yes"/>
      <point x="682" y="860" type="line" smooth="yes"/>
      <point x="670" y="869"/>
      <point x="650" y="878"/>
      <point x="636" y="879" type="curve" smooth="yes"/>
      <point x="514" y="891" type="line" smooth="yes"/>
      <point x="512" y="891"/>
      <point x="508" y="891"/>
      <point x="506" y="891" type="curve" smooth="yes"/>
      <point x="385" y="891" type="line"/>
      <point x="266" y="886" type="line" smooth="yes"/>
      <point x="255" y="885"/>
      <point x="237" y="880"/>
      <point x="228" y="875" type="curve" smooth="yes"/>
      <point x="125" y="817" type="line" smooth="yes"/>
      <point x="107" y="807"/>
      <point x="88" y="783"/>
      <point x="83" y="763" type="curve" smooth="yes"/>
      <point x="53" y="646" type="line" smooth="yes"/>
      <point x="51" y="638"/>
      <point x="50" y="624"/>
      <point x="51" y="615" type="curve" smooth="yes"/>
      <point x="62" y="504" type="line" smooth="yes"/>
      <point x="64" y="490"/>
      <point x="72" y="469"/>
      <point x="81" y="458" type="curve" smooth="yes"/>
      <point x="154" y="368" type="line" smooth="yes"/>
      <point x="166" y="353"/>
      <point x="190" y="339"/>
      <point x="208" y="336" type="curve" smooth="yes"/>
      <point x="323" y="318" type="line" smooth="yes"/>
      <point x="327" y="317"/>
      <point x="333" y="317"/>
      <point x="337" y="317" type="curve" smooth="yes"/>
      <point x="457" y="317" type="line"/>
      <point x="558" y="317" type="line"/>
      <point x="624" y="293" type="line"/>
      <point x="648" y="239" type="line"/>
      <point x="648" y="163" type="line"/>
      <point x="615" y="110" type="line"/>
      <point x="544" y="91" type="line"/>
      <point x="437" y="91" type="line"/>
      <point x="328" y="91" type="line"/>
      <point x="258" y="110" type="line"/>
      <point x="228" y="165" type="line"/>
      <point x="224" y="211" type="line" smooth="yes"/>
      <point x="220" y="258"/>
      <point x="177" y="295"/>
      <point x="130" y="291" type="curve" smooth="yes"/>
      <point x="83" y="287"/>
      <point x="46" y="244"/>
      <point x="50" y="197" type="curve" smooth="yes"/>
      <point x="56" y="132" type="line" smooth="yes"/>
      <point x="56" y="122"/>
      <point x="61" y="106"/>
      <point x="66" y="97" type="curve" smooth="yes"/>
      <point x="123" y="-6" type="line" smooth="yes"/>
      <point x="133" y="-24"/>
      <point x="157" y="-43"/>
      <point x="177" y="-48" type="curve" smooth="yes"/>
      <point x="294" y="-80" type="line" smooth="yes"/>
      <point x="300" y="-82"/>
      <point x="310" y="-83"/>
      <point x="316" y="-83" type="curve" smooth="yes"/>
    </contour>
  </outline>
</glyph>
<glyph name="T" format="1">
  <advance width="755"/>
  <unicode hex="0054"/>
  <outline>
    <contour>
      <point x="415" y="-65" type="curve" smooth="yes"/>
      <point x="450" y="-65"/>
      <point x="480" y="-35"/>
      <point x="480" y="0" type="curve" smooth="yes"/>
      <point x="480" y="460" type="line"/>
      <point x="490" y="654" type="line"/>
      <point x="664" y="736" type="line" smooth="yes"/>
      <point x="731" y="767"/>
      <point x="711" y="858"/>
      <point x="638" y="859" type="curve" smooth="yes"/>
      <point x="407" y="865" type="line"/>
      <point x="175" y="865" type="line"/>
      <point x="115" y="865" type="line" smooth="yes"/>
      <point x="80" y="865"/>
      <point x="50" y="835"/>
      <point x="50" y="800" type="curve" smooth="yes"/>
      <point x="50" y="765"/>
      <point x="80" y="735"/>
      <point x="115" y="735" type="curve" smooth="yes"/>
      <point x="376" y="735" type="line"/>
      <point x="368" y="724"/>
      <point x="363" y="712"/>
      <point x="362" y="700" type="curve" smooth="yes"/>
      <point x="350" y="460" type="line"/>
      <point x="350" y="0" type="line" smooth="yes"/>
      <point x="350" y="-35"/>
      <point x="380" y="-65"/>
    </contour>
  </outline>
</glyph>
<glyph name="U" format="1">
  <advance width="935"/>
  <unicode hex="0055"/>
  <outline>
    <contour>
      <point x="268" y="-76" type="curve" smooth="yes"/>
      <point x="807" y="118" type="line" smooth="yes"/>
      <point x="850" y="133"/>
      <point x="885" y="183"/>
      <point x="885" y="229" type="curve" smooth="yes"/>
      <point x="885" y="799" type="line" smooth="yes"/>
      <point x="885" y="863"/>
      <point x="831" y="917"/>
      <point x="767" y="917" type="curve" smooth="yes"/>
      <point x="703" y="917"/>
      <point x="649" y="863"/>
      <point x="649" y="799" type="curve" smooth="yes"/>
      <point x="649" y="312" type="line"/>
      <point x="329" y="197" type="line"/>
      <point x="286" y="605" type="line"/>
      <point x="286" y="799" type="line" smooth="yes"/>
      <point x="286" y="863"/>
      <point x="232" y="917"/>
      <point x="168" y="917" type="curve" smooth="yes"/>
      <point x="104" y="917"/>
      <point x="50" y="863"/>
      <point x="50" y="799" type="curve" smooth="yes"/>
      <point x="50" y="599" type="line" smooth="yes"/>
      <point x="50" y="596"/>
      <point x="50" y="590"/>
      <point x="51" y="587" type="curve" smooth="yes"/>
      <point x="111" y="23" type="line" smooth="yes"/>
      <point x="119" y="-58"/>
      <point x="192" y="-103"/>
    </contour>
  </outline>
</glyph>
<glyph name="V" format="1">
  <advance width="780"/>
  <unicode hex="0056"/>
  <outline>
    <contour>
      <point x="300" y="-4" type="curve" smooth="yes"/>
      <point x="699" y="110" type="line" smooth="yes"/>
      <point x="715" y="115"/>
      <point x="728" y="132"/>
      <point x="728" y="149" type="curve" smooth="yes"/>
      <point x="730" y="560" type="line"/>
      <point x="730" y="800" type="line" smooth="yes"/>
      <point x="730" y="822"/>
      <point x="712" y="840"/>
      <point x="690" y="840" type="curve" smooth="yes"/>
      <point x="668" y="840"/>
      <point x="650" y="822"/>
      <point x="650" y="800" type="curve" smooth="yes"/>
      <point x="650" y="560" type="line"/>
      <point x="648" y="179" type="line"/>
      <point x="308" y="81" type="line"/>
      <point x="130" y="400" type="line"/>
      <point x="130" y="800" type="line" smooth="yes"/>
      <point x="130" y="822"/>
      <point x="112" y="840"/>
      <point x="90" y="840" type="curve" smooth="yes"/>
      <point x="68" y="840"/>
      <point x="50" y="822"/>
      <point x="50" y="800" type="curve" smooth="yes"/>
      <point x="50" y="390" type="line" smooth="yes"/>
      <point x="50" y="384"/>
      <point x="52" y="376"/>
      <point x="55" y="371" type="curve" smooth="yes"/>
      <point x="254" y="15" type="line" smooth="yes"/>
      <point x="262" y="-1"/>
      <point x="283" y="-9"/>
    </contour>
  </outline>
</glyph>
<glyph name="W" format="1">
  <advance width="782"/>
  <unicode hex="0057"/>
  <outline>
    <contour>
      <point x="577" y="-17" type="curve" smooth="yes"/>
      <point x="728" y="282" type="line" smooth="yes"/>
      <point x="730" y="286"/>
      <point x="732" y="295"/>
      <point x="732" y="300" type="curve" smooth="yes"/>
      <point x="732" y="800" type="line" smooth="yes"/>
      <point x="732" y="822"/>
      <point x="713" y="841"/>
      <point x="691" y="841" type="curve" smooth="yes"/>
      <point x="669" y="841"/>
      <point x="650" y="822"/>
      <point x="650" y="800" type="curve" smooth="yes"/>
      <point x="650" y="310" type="line"/>
      <point x="540" y="92" type="line"/>
      <point x="423" y="319" type="line" smooth="yes"/>
      <point x="413" y="339"/>
      <point x="388" y="347"/>
      <point x="368" y="336" type="curve" smooth="yes"/>
      <point x="132" y="209" type="line"/>
      <point x="132" y="800" type="line" smooth="yes"/>
      <point x="132" y="822"/>
      <point x="113" y="841"/>
      <point x="91" y="841" type="curve" smooth="yes"/>
      <point x="69" y="841"/>
      <point x="50" y="822"/>
      <point x="50" y="800" type="curve" smooth="yes"/>
      <point x="50" y="140" type="line"/>
      <point x="50" y="106"/>
      <point x="81" y="88"/>
      <point x="110" y="104" type="curve" smooth="yes"/>
      <point x="370" y="244" type="line"/>
      <point x="504" y="-17" type="line" smooth="yes"/>
      <point x="521" y="-50"/>
      <point x="561" y="-49"/>
    </contour>
  </outline>
</glyph>
<glyph name="X" format="1">
  <advance width="984"/>
  <unicode hex="0058"/>
  <outline>
    <contour>
      <point x="192" y="-142" type="curve" smooth="yes"/>
      <point x="269" y="-142"/>
      <point x="334" y="-77"/>
      <point x="334" y="0" type="curve" smooth="yes"/>
      <point x="334" y="163" type="line"/>
      <point x="341" y="234" type="line"/>
      <point x="365" y="253" type="line"/>
      <point x="441" y="258" type="line"/>
      <point x="469" y="258" type="line"/>
      <point x="640" y="203" type="line"/>
      <point x="650" y="-7" type="line" smooth="yes"/>
      <point x="654" y="-84"/>
      <point x="723" y="-146"/>
      <point x="799" y="-142" type="curve" smooth="yes"/>
      <point x="876" y="-138"/>
      <point x="938" y="-69"/>
      <point x="934" y="7" type="curve" smooth="yes"/>
      <point x="918" y="315" type="line" smooth="yes"/>
      <point x="917" y="347"/>
      <point x="900" y="381"/>
      <point x="876" y="406" type="curve"/>
      <point x="901" y="439" type="line" smooth="yes"/>
      <point x="916" y="459"/>
      <point x="929" y="495"/>
      <point x="929" y="520" type="curve" smooth="yes"/>
      <point x="934" y="660" type="line"/>
      <point x="934" y="800" type="line" smooth="yes"/>
      <point x="934" y="877"/>
      <point x="869" y="942"/>
      <point x="792" y="942" type="curve" smooth="yes"/>
      <point x="715" y="942"/>
      <point x="650" y="877"/>
      <point x="650" y="800" type="curve" smooth="yes"/>
      <point x="650" y="660" type="line"/>
      <point x="647" y="575" type="line"/>
      <point x="630" y="552" type="line"/>
      <point x="563" y="542" type="line"/>
      <point x="516" y="542" type="line"/>
      <point x="342" y="603" type="line"/>
      <point x="334" y="806" type="line" smooth="yes"/>
      <point x="331" y="882"/>
      <point x="263" y="945"/>
      <point x="186" y="942" type="curve" smooth="yes"/>
      <point x="110" y="939"/>
      <point x="47" y="871"/>
      <point x="50" y="794" type="curve" smooth="yes"/>
      <point x="62" y="495" type="line" smooth="yes"/>
      <point x="64" y="463"/>
      <point x="80" y="429"/>
      <point x="103" y="404" type="curve"/>
      <point x="83" y="381"/>
      <point x="67" y="348"/>
      <point x="64" y="321" type="curve" smooth="yes"/>
      <point x="51" y="184" type="line" smooth="yes"/>
      <point x="50" y="180"/>
      <point x="50" y="174"/>
      <point x="50" y="170" type="curve" smooth="yes"/>
      <point x="50" y="0" type="line" smooth="yes"/>
      <point x="50" y="-77"/>
      <point x="115" y="-142"/>
    </contour>
  </outline>
</glyph>
<glyph name="Y" format="1">
  <advance width="801"/>
  <unicode hex="0059"/>
  <outline>
    <contour>
      <point x="391" y="-52" type="line" smooth="yes"/>
      <point x="398" y="-52"/>
      <point x="408" y="-50"/>
      <point x="414" y="-47" type="curve" smooth="yes"/>
      <point x="722" y="104" type="line" smooth="yes"/>
      <point x="738" y="112"/>
      <point x="751" y="134"/>
      <point x="751" y="152" type="curve" smooth="yes"/>
      <point x="743" y="485" type="line" smooth="yes"/>
      <point x="742" y="530"/>
      <point x="699" y="552"/>
      <point x="662" y="528" type="curve" smooth="yes"/>
      <point x="402" y="358" type="line"/>
      <point x="155" y="486" type="line"/>
      <point x="154" y="798" type="line" smooth="yes"/>
      <point x="154" y="826"/>
      <point x="130" y="850"/>
      <point x="102" y="850" type="curve" smooth="yes"/>
      <point x="74" y="850"/>
      <point x="50" y="826"/>
      <point x="50" y="798" type="curve" smooth="yes"/>
      <point x="51" y="454" type="line" smooth="yes"/>
      <point x="51" y="437"/>
      <point x="64" y="417"/>
      <point x="79" y="409" type="curve" smooth="yes"/>
      <point x="381" y="252" type="line" smooth="yes"/>
      <point x="395" y="244"/>
      <point x="419" y="245"/>
      <point x="433" y="254" type="curve" smooth="yes"/>
      <point x="641" y="390" type="line"/>
      <point x="646" y="183" type="line"/>
      <point x="379" y="52" type="line"/>
      <point x="102" y="53" type="line" smooth="yes"/>
      <point x="74" y="53"/>
      <point x="50" y="29"/>
      <point x="50" y="1" type="curve" smooth="yes"/>
      <point x="50" y="-27"/>
      <point x="74" y="-51"/>
      <point x="102" y="-51" type="curve" smooth="yes"/>
    </contour>
  </outline>
</glyph>
<glyph name="Z" format="1">
  <advance width="955"/>
  <unicode hex="005A"/>
  <outline>
    <contour>
      <point x="872" y="-87" type="curve" smooth="yes"/>
      <point x="919" y="-37"/>
      <point x="916" y="46"/>
      <point x="865" y="94" type="curve" smooth="yes"/>
      <point x="570" y="369" type="line"/>
      <point x="798" y="709" type="line" smooth="yes"/>
      <point x="859" y="799"/>
      <point x="806" y="904"/>
      <point x="697" y="908" type="curve" smooth="yes"/>
      <point x="183" y="928" type="line" smooth="yes"/>
      <point x="114" y="931"/>
      <point x="53" y="874"/>
      <point x="50" y="805" type="curve" smooth="yes"/>
      <point x="47" y="736"/>
      <point x="104" y="675"/>
      <point x="173" y="672" type="curve" smooth="yes"/>
      <point x="458" y="661" type="line"/>
      <point x="297" y="421" type="line" smooth="yes"/>
      <point x="263" y="371"/>
      <point x="272" y="298"/>
      <point x="316" y="256" type="curve" smooth="yes"/>
      <point x="691" y="-94" type="line" smooth="yes"/>
      <point x="741" y="-141"/>
      <point x="824" y="-138"/>
    </contour>
  </outline>
</glyph>
<glyph name="bracketleft" format="1">
  <advance width="652"/>
  <unicode hex="005B"/>
  <outline>
    <contour>
      <point x="602" y="-4" type="curve" smooth="yes"/>
      <point x="604" y="64"/>
      <point x="548" y="124"/>
      <point x="480" y="126" type="curve" smooth="yes"/>
      <point x="302" y="132" type="line"/>
      <point x="302" y="587" type="line"/>
      <point x="526" y="684" type="line" smooth="yes"/>
      <point x="589" y="711"/>
      <point x="619" y="788"/>
      <point x="592" y="850" type="curve" smooth="yes"/>
      <point x="565" y="913"/>
      <point x="488" y="943"/>
      <point x="426" y="916" type="curve" smooth="yes"/>
      <point x="126" y="786" type="line" smooth="yes"/>
      <point x="84" y="767"/>
      <point x="50" y="716"/>
      <point x="50" y="670" type="curve"/>
      <point x="50" y="10" type="line"/>
      <point x="50" y="-57"/>
      <point x="105" y="-114"/>
      <point x="172" y="-116" type="curve" smooth="yes"/>
      <point x="472" y="-126" type="line" smooth="yes"/>
      <point x="540" y="-128"/>
      <point x="600" y="-72"/>
    </contour>
  </outline>
</glyph>
<glyph name="backslash" format="1">
  <advance width="845"/>
  <unicode hex="005C"/>
  <outline>
    <contour>
      <point x="766" y="-59" type="curve" smooth="yes"/>
      <point x="797" y="-36"/>
      <point x="804" y="11"/>
      <point x="780" y="43" type="curve" smooth="yes"/>
      <point x="180" y="843" type="line" smooth="yes"/>
      <point x="157" y="874"/>
      <point x="110" y="881"/>
      <point x="78" y="857" type="curve" smooth="yes"/>
      <point x="47" y="834"/>
      <point x="40" y="787"/>
      <point x="64" y="755" type="curve" smooth="yes"/>
      <point x="664" y="-45" type="line" smooth="yes"/>
      <point x="687" y="-76"/>
      <point x="734" y="-83"/>
    </contour>
  </outline>
</glyph>
<glyph name="bracketright" format="1">
  <advance width="491"/>
  <unicode hex="005D"/>
  <outline>
    <contour>
      <point x="129" y="-34" type="curve" smooth="yes"/>
      <point x="429" y="266" type="line" smooth="yes"/>
      <point x="443" y="280"/>
      <point x="446" y="306"/>
      <point x="435" y="323" type="curve" smooth="yes"/>
      <point x="135" y="823" type="line" smooth="yes"/>
      <point x="123" y="844"/>
      <point x="94" y="851"/>
      <point x="72" y="838" type="curve" smooth="yes"/>
      <point x="51" y="826"/>
      <point x="44" y="797"/>
      <point x="57" y="775" type="curve" smooth="yes"/>
      <point x="338" y="306" type="line"/>
      <point x="63" y="32" type="line" smooth="yes"/>
      <point x="46" y="14"/>
      <point x="46" y="-16"/>
      <point x="63" y="-34" type="curve" smooth="yes"/>
      <point x="81" y="-51"/>
      <point x="111" y="-51"/>
    </contour>
  </outline>
</glyph>
<glyph name="asciicircum" format="1">
  <advance width="800"/>
  <unicode hex="005E"/>
  <outline>
    <contour>
      <point x="104" y="452" type="curve" smooth="yes"/>
      <point x="620" y="495" type="line"/>
      <point x="672" y="460" type="line" smooth="yes"/>
      <point x="695" y="445"/>
      <point x="727" y="452"/>
      <point x="742" y="474" type="curve" smooth="yes"/>
      <point x="757" y="497"/>
      <point x="750" y="529"/>
      <point x="728" y="544" type="curve" smooth="yes"/>
      <point x="661" y="588" type="line" smooth="yes"/>
      <point x="653" y="593"/>
      <point x="639" y="597"/>
      <point x="629" y="596" type="curve" smooth="yes"/>
      <point x="96" y="552" type="line" smooth="yes"/>
      <point x="69" y="550"/>
      <point x="48" y="525"/>
      <point x="50" y="498" type="curve" smooth="yes"/>
      <point x="52" y="471"/>
      <point x="77" y="450"/>
    </contour>
  </outline>
</glyph>
<glyph name="underscore" format="1">
  <advance width="906"/>
  <unicode hex="005F"/>
  <outline>
    <contour>
      <point x="165" y="-300" type="curve" smooth="yes"/>
      <point x="741" y="-300" type="line" smooth="yes"/>
      <point x="803" y="-300"/>
      <point x="856" y="-247"/>
      <point x="856" y="-185" type="curve" smooth="yes"/>
      <point x="856" y="-123"/>
      <point x="803" y="-70"/>
      <point x="741" y="-70" type="curve" smooth="yes"/>
      <point x="165" y="-70" type="line" smooth="yes"/>
      <point x="103" y="-70"/>
      <point x="50" y="-123"/>
      <point x="50" y="-185" type="curve" smooth="yes"/>
      <point x="50" y="-247"/>
      <point x="103" y="-300"/>
    </contour>
  </outline>
</glyph>
<glyph name="grave" format="1">
  <advance width="716"/>
  <unicode hex="0060"/>
  <outline>
    <contour>
      <point x="640" y="840" type="curve" smooth="yes"/>
      <point x="688" y="911"/>
      <point x="668" y="1013"/>
      <point x="596" y="1060" type="curve" smooth="yes"/>
      <point x="346" y="1227" type="line"/>
      <point x="296" y="1260" type="line" smooth="yes"/>
      <point x="225" y="1308"/>
      <point x="123" y="1288"/>
      <point x="76" y="1216" type="curve" smooth="yes"/>
      <point x="28" y="1145"/>
      <point x="48" y="1043"/>
      <point x="120" y="996" type="curve" smooth="yes"/>
      <point x="370" y="829" type="line"/>
      <point x="420" y="796" type="line" smooth="yes"/>
      <point x="491" y="748"/>
      <point x="593" y="768"/>
    </contour>
  </outline>
</glyph>
<glyph name="a" format="1">
  <advance width="796"/>
  <unicode hex="0061"/>
  <outline>
    <contour>
      <point x="698" y="-52" type="curve" smooth="yes"/>
      <point x="724" y="-52"/>
      <point x="746" y="-30"/>
      <point x="746" y="-4" type="curve" smooth="yes"/>
      <point x="746" y="511" type="line" smooth="yes"/>
      <point x="746" y="518"/>
      <point x="743" y="529"/>
      <point x="740" y="535" type="curve" smooth="yes"/>
      <point x="575" y="819" type="line" smooth="yes"/>
      <point x="567" y="832"/>
      <point x="548" y="843"/>
      <point x="532" y="843" type="curve" smooth="yes"/>
      <point x="203" y="832" type="line" smooth="yes"/>
      <point x="185" y="832"/>
      <point x="165" y="817"/>
      <point x="159" y="800" type="curve" smooth="yes"/>
      <point x="53" y="484" type="line" smooth="yes"/>
      <point x="51" y="480"/>
      <point x="50" y="473"/>
      <point x="50" y="468" type="curve" smooth="yes"/>
      <point x="57" y="139" type="line" smooth="yes"/>
      <point x="57" y="96"/>
      <point x="100" y="75"/>
      <point x="134" y="102" type="curve" smooth="yes"/>
      <point x="385" y="298" type="line"/>
      <point x="650" y="298" type="line"/>
      <point x="650" y="-4" type="line" smooth="yes"/>
      <point x="650" y="-30"/>
      <point x="672" y="-52"/>
    </contour>
    <contour>
      <point x="338" y="384" type="curve" smooth="yes"/>
      <point x="151" y="237" type="line"/>
      <point x="146" y="462" type="line"/>
      <point x="239" y="738" type="line"/>
      <point x="506" y="746" type="line"/>
      <point x="650" y="498" type="line"/>
      <point x="650" y="394" type="line"/>
      <point x="368" y="394" type="line" smooth="yes"/>
      <point x="359" y="394"/>
      <point x="346" y="389"/>
    </contour>
  </outline>
</glyph>
<glyph name="b" format="1">
  <advance width="989"/>
  <unicode hex="0062"/>
  <outline>
    <contour>
      <point x="588" y="-129" type="curve" smooth="yes"/>
      <point x="840" y="-20" type="line" smooth="yes"/>
      <point x="902" y="6"/>
      <point x="940" y="81"/>
      <point x="924" y="147" type="curve" smooth="yes"/>
      <point x="860" y="413" type="line" smooth="yes"/>
      <point x="858" y="423"/>
      <point x="854" y="432"/>
      <point x="849" y="441" type="curve"/>
      <point x="893" y="482" type="line" smooth="yes"/>
      <point x="947" y="532"/>
      <point x="954" y="619"/>
      <point x="909" y="677" type="curve" smooth="yes"/>
      <point x="742" y="892" type="line" smooth="yes"/>
      <point x="718" y="923"/>
      <point x="667" y="948"/>
      <point x="628" y="948" type="curve" smooth="yes"/>
      <point x="358" y="948" type="line" smooth="yes"/>
      <point x="318" y="948"/>
      <point x="265" y="921"/>
      <point x="241" y="888" type="curve" smooth="yes"/>
      <point x="78" y="664" type="line" smooth="yes"/>
      <point x="62" y="643"/>
      <point x="50" y="604"/>
      <point x="50" y="578" type="curve" smooth="yes"/>
      <point x="50" y="301" type="line" smooth="yes"/>
      <point x="50" y="292"/>
      <point x="52" y="278"/>
      <point x="54" y="269" type="curve" smooth="yes"/>
      <point x="115" y="2" type="line" smooth="yes"/>
      <point x="127" y="-54"/>
      <point x="184" y="-104"/>
      <point x="240" y="-110" type="curve" smooth="yes"/>
      <point x="515" y="-140" type="line" smooth="yes"/>
      <point x="536" y="-142"/>
      <point x="569" y="-138"/>
    </contour>
    <contour>
      <point x="458" y="548" type="line" smooth="yes"/>
      <point x="455" y="549"/>
      <point x="449" y="549"/>
      <point x="445" y="549" type="curve" smooth="yes"/>
      <point x="353" y="549" type="line"/>
      <point x="432" y="658" type="line"/>
      <point x="557" y="658" type="line"/>
      <point x="598" y="604" type="line"/>
      <point x="531" y="542" type="line"/>
    </contour>
    <contour>
      <point x="613" y="198" type="line"/>
      <point x="509" y="152" type="line"/>
      <point x="374" y="167" type="line"/>
      <point x="353" y="259" type="line"/>
      <point x="438" y="259" type="line"/>
      <point x="602" y="244" type="line"/>
    </contour>
  </outline>
</glyph>
<glyph name="c" format="1">
  <advance width="902"/>
  <unicode hex="0063"/>
  <outline>
    <contour>
      <point x="511" y="-103" type="line"/>
      <point x="604" y="-101" type="line" smooth="yes"/>
      <point x="613" y="-101"/>
      <point x="627" y="-99"/>
      <point x="635" y="-96" type="curve" smooth="yes"/>
      <point x="722" y="-66" type="line" smooth="yes"/>
      <point x="740" y="-60"/>
      <point x="763" y="-42"/>
      <point x="773" y="-26" type="curve" smooth="yes"/>
      <point x="824" y="51" type="line" smooth="yes"/>
      <point x="831" y="62"/>
      <point x="838" y="81"/>
      <point x="840" y="94" type="curve" smooth="yes"/>
      <point x="851" y="185" type="line" smooth="yes"/>
      <point x="858" y="239"/>
      <point x="818" y="291"/>
      <point x="764" y="298" type="curve" smooth="yes"/>
      <point x="710" y="305"/>
      <point x="658" y="265"/>
      <point x="651" y="211" type="curve" smooth="yes"/>
      <point x="642" y="143" type="line"/>
      <point x="623" y="114" type="line"/>
      <point x="584" y="100" type="line"/>
      <point x="511" y="99" type="line"/>
      <point x="421" y="99" type="line"/>
      <point x="340" y="99" type="line"/>
      <point x="286" y="109" type="line"/>
      <point x="264" y="131" type="line"/>
      <point x="252" y="189" type="line"/>
      <point x="252" y="265" type="line"/>
      <point x="252" y="533" type="line"/>
      <point x="252" y="613" type="line"/>
      <point x="261" y="664" type="line"/>
      <point x="283" y="685" type="line"/>
      <point x="341" y="697" type="line"/>
      <point x="419" y="697" type="line"/>
      <point x="506" y="697" type="line"/>
      <point x="581" y="694" type="line"/>
      <point x="621" y="682" type="line"/>
      <point x="644" y="651" type="line"/>
      <point x="651" y="587" type="line" smooth="yes"/>
      <point x="656" y="533"/>
      <point x="707" y="492"/>
      <point x="762" y="498" type="curve" smooth="yes"/>
      <point x="816" y="503"/>
      <point x="857" y="554"/>
      <point x="851" y="609" type="curve" smooth="yes"/>
      <point x="842" y="700" type="line" smooth="yes"/>
      <point x="840" y="715"/>
      <point x="831" y="738"/>
      <point x="822" y="750" type="curve" smooth="yes"/>
      <point x="763" y="828" type="line" smooth="yes"/>
      <point x="753" y="842"/>
      <point x="731" y="858"/>
      <point x="714" y="864" type="curve" smooth="yes"/>
      <point x="631" y="891" type="line" smooth="yes"/>
      <point x="623" y="893"/>
      <point x="611" y="896"/>
      <point x="603" y="896" type="curve" smooth="yes"/>
      <point x="512" y="899" type="line"/>
      <point x="419" y="899" type="line"/>
      <point x="331" y="899" type="line" smooth="yes"/>
      <point x="325" y="899"/>
      <point x="317" y="898"/>
      <point x="311" y="897" type="curve" smooth="yes"/>
      <point x="215" y="877" type="line" smooth="yes"/>
      <point x="199" y="874"/>
      <point x="177" y="863"/>
      <point x="166" y="852" type="curve" smooth="yes"/>
      <point x="99" y="789" type="line" smooth="yes"/>
      <point x="85" y="776"/>
      <point x="72" y="751"/>
      <point x="69" y="733" type="curve" smooth="yes"/>
      <point x="52" y="640" type="line" smooth="yes"/>
      <point x="51" y="635"/>
      <point x="50" y="627"/>
      <point x="50" y="622" type="curve" smooth="yes"/>
      <point x="50" y="533" type="line"/>
      <point x="50" y="265" type="line"/>
      <point x="50" y="178" type="line" smooth="yes"/>
      <point x="50" y="172"/>
      <point x="51" y="163"/>
      <point x="52" y="158" type="curve" smooth="yes"/>
      <point x="72" y="62" type="line" smooth="yes"/>
      <point x="76" y="46"/>
      <point x="87" y="23"/>
      <point x="99" y="12" type="curve" smooth="yes"/>
      <point x="164" y="-55" type="line" smooth="yes"/>
      <point x="176" y="-68"/>
      <point x="201" y="-81"/>
      <point x="218" y="-85" type="curve" smooth="yes"/>
      <point x="313" y="-101" type="line" smooth="yes"/>
      <point x="318" y="-102"/>
      <point x="326" y="-103"/>
      <point x="331" y="-103" type="curve" smooth="yes"/>
      <point x="421" y="-103" type="line" smooth="yes"/>
      <point x="421" y="-103" type="line" smooth="yes"/>
    </contour>
  </outline>
</glyph>
<glyph name="d" format="1">
  <advance width="1010"/>
  <unicode hex="0064"/>
  <outline>
    <contour>
      <point x="569" y="-116" type="curve" smooth="yes"/>
      <point x="909" y="194" type="line" smooth="yes"/>
      <point x="937" y="219"/>
      <point x="960" y="271"/>
      <point x="960" y="309" type="curve" smooth="yes"/>
      <point x="960" y="589" type="line" smooth="yes"/>
      <point x="960" y="594"/>
      <point x="960" y="599"/>
      <point x="959" y="604" type="curve"/>
      <point x="957" y="660"/>
      <point x="925" y="714"/>
      <point x="872" y="739" type="curve" smooth="yes"/>
      <point x="460" y="939" type="line" smooth="yes"/>
      <point x="380" y="978"/>
      <point x="286" y="944"/>
      <point x="250" y="863" type="curve" smooth="yes"/>
      <point x="62" y="443" type="line" smooth="yes"/>
      <point x="42" y="399"/>
      <point x="48" y="331"/>
      <point x="75" y="291" type="curve" smooth="yes"/>
      <point x="335" y="-89" type="line" smooth="yes"/>
      <point x="391" y="-170"/>
      <point x="497" y="-182"/>
    </contour>
    <contour>
      <point x="491" y="235" type="line"/>
      <point x="382" y="395" type="line"/>
      <point x="469" y="588" type="line"/>
      <point x="648" y="501" type="line"/>
      <point x="648" y="378" type="line"/>
    </contour>
  </outline>
</glyph>
<glyph name="e" format="1">
  <advance width="860"/>
  <unicode hex="0065"/>
  <outline>
    <contour>
      <point x="532" y="-79" type="line" smooth="yes"/>
      <point x="537" y="-79"/>
      <point x="542" y="-78"/>
      <point x="547" y="-77" type="curve"/>
      <point x="563" y="-75"/>
      <point x="578" y="-68"/>
      <point x="590" y="-56" type="curve" smooth="yes"/>
      <point x="788" y="140" type="line" smooth="yes"/>
      <point x="818" y="170"/>
      <point x="818" y="221"/>
      <point x="788" y="252" type="curve" smooth="yes"/>
      <point x="758" y="282"/>
      <point x="707" y="282"/>
      <point x="676" y="252" type="curve" smooth="yes"/>
      <point x="502" y="79" type="line"/>
      <point x="457" y="79" type="line"/>
      <point x="275" y="199" type="line"/>
      <point x="473" y="336" type="line" smooth="yes"/>
      <point x="523" y="370"/>
      <point x="522" y="433"/>
      <point x="472" y="467" type="curve" smooth="yes"/>
      <point x="274" y="599" type="line"/>
      <point x="430" y="705" type="line"/>
      <point x="688" y="536" type="line" smooth="yes"/>
      <point x="723" y="513"/>
      <point x="774" y="523"/>
      <point x="797" y="559" type="curve" smooth="yes"/>
      <point x="820" y="594"/>
      <point x="810" y="645"/>
      <point x="774" y="668" type="curve" smooth="yes"/>
      <point x="473" y="866" type="line" smooth="yes"/>
      <point x="449" y="882"/>
      <point x="409" y="882"/>
      <point x="385" y="865" type="curve" smooth="yes"/>
      <point x="88" y="663" type="line" smooth="yes"/>
      <point x="38" y="629"/>
      <point x="38" y="566"/>
      <point x="88" y="532" type="curve" smooth="yes"/>
      <point x="288" y="400" type="line"/>
      <point x="88" y="263" type="line" smooth="yes"/>
      <point x="39" y="229"/>
      <point x="39" y="165"/>
      <point x="90" y="132" type="curve" smooth="yes"/>
      <point x="390" y="-66" type="line" smooth="yes"/>
      <point x="401" y="-73"/>
      <point x="420" y="-79"/>
      <point x="434" y="-79" type="curve" smooth="yes"/>
    </contour>
  </outline>
</glyph>
<glyph name="f" format="1">
  <advance width="943"/>
  <unicode hex="0066"/>
  <outline>
    <contour>
      <point x="294" y="-1" type="curve" smooth="yes"/>
      <point x="306" y="278" type="line"/>
      <point x="311" y="299" type="line"/>
      <point x="329" y="288"/>
      <point x="350" y="282"/>
      <point x="372" y="282" type="curve" smooth="yes"/>
      <point x="572" y="282" type="line" smooth="yes"/>
      <point x="638" y="282"/>
      <point x="694" y="338"/>
      <point x="694" y="404" type="curve" smooth="yes"/>
      <point x="694" y="470"/>
      <point x="638" y="526"/>
      <point x="572" y="526" type="curve" smooth="yes"/>
      <point x="372" y="526" type="line" smooth="yes"/>
      <point x="367" y="526"/>
      <point x="363" y="526"/>
      <point x="359" y="525" type="curve"/>
      <point x="381" y="629" type="line"/>
      <point x="726" y="493" type="line" smooth="yes"/>
      <point x="787" y="468"/>
      <point x="860" y="500"/>
      <point x="884" y="561" type="curve" smooth="yes"/>
      <point x="909" y="622"/>
      <point x="877" y="695"/>
      <point x="816" y="719" type="curve" smooth="yes"/>
      <point x="336" y="909" type="line" smooth="yes"/>
      <point x="263" y="938"/>
      <point x="188" y="898"/>
      <point x="172" y="821" type="curve" smooth="yes"/>
      <point x="65" y="319" type="line" smooth="yes"/>
      <point x="64" y="313"/>
      <point x="63" y="304"/>
      <point x="63" y="299" type="curve" smooth="yes"/>
      <point x="50" y="9" type="line" smooth="yes"/>
      <point x="47" y="-57"/>
      <point x="101" y="-115"/>
      <point x="167" y="-118" type="curve" smooth="yes"/>
      <point x="233" y="-121"/>
      <point x="291" y="-67"/>
    </contour>
  </outline>
</glyph>
<glyph name="g" format="1">
  <advance width="994"/>
  <unicode hex="0067"/>
  <outline>
    <contour>
      <point x="439" y="-143" type="curve" smooth="yes"/>
      <point x="599" y="-143" type="line" smooth="yes"/>
      <point x="603" y="-143"/>
      <point x="610" y="-143"/>
      <point x="614" y="-142" type="curve" smooth="yes"/>
      <point x="693" y="-134" type="line" smooth="yes"/>
      <point x="707" y="-132"/>
      <point x="729" y="-126"/>
      <point x="741" y="-120" type="curve" smooth="yes"/>
      <point x="812" y="-86" type="line" smooth="yes"/>
      <point x="834" y="-76"/>
      <point x="861" y="-51"/>
      <point x="874" y="-30" type="curve" smooth="yes"/>
      <point x="914" y="36" type="line" smooth="yes"/>
      <point x="924" y="51"/>
      <point x="933" y="79"/>
      <point x="935" y="97" type="curve" smooth="yes"/>
      <point x="943" y="175" type="line" smooth="yes"/>
      <point x="944" y="179"/>
      <point x="944" y="186"/>
      <point x="944" y="191" type="curve" smooth="yes"/>
      <point x="944" y="264" type="line"/>
      <point x="944" y="344" type="line" smooth="yes"/>
      <point x="944" y="373"/>
      <point x="929" y="416"/>
      <point x="910" y="438" type="curve" smooth="yes"/>
      <point x="875" y="480" type="line"/>
      <point x="919" y="509"/>
      <point x="948" y="560"/>
      <point x="944" y="615" type="curve" smooth="yes"/>
      <point x="938" y="690" type="line" smooth="yes"/>
      <point x="937" y="705"/>
      <point x="931" y="729"/>
      <point x="924" y="742" type="curve" smooth="yes"/>
      <point x="891" y="812" type="line" smooth="yes"/>
      <point x="882" y="832"/>
      <point x="858" y="859"/>
      <point x="839" y="871" type="curve" smooth="yes"/>
      <point x="779" y="911" type="line" smooth="yes"/>
      <point x="766" y="920"/>
      <point x="743" y="929"/>
      <point x="728" y="932" type="curve" smooth="yes"/>
      <point x="659" y="947" type="line" smooth="yes"/>
      <point x="652" y="948"/>
      <point x="640" y="949"/>
      <point x="632" y="950" type="curve" smooth="yes"/>
      <point x="558" y="951" type="line"/>
      <point x="475" y="951" type="line"/>
      <point x="395" y="951" type="line" smooth="yes"/>
      <point x="391" y="951"/>
      <point x="384" y="951"/>
      <point x="380" y="950" type="curve" smooth="yes"/>
      <point x="301" y="942" type="line" smooth="yes"/>
      <point x="287" y="940"/>
      <point x="265" y="934"/>
      <point x="252" y="928" type="curve" smooth="yes"/>
      <point x="182" y="894" type="line" smooth="yes"/>
      <point x="160" y="883"/>
      <point x="133" y="858"/>
      <point x="120" y="838" type="curve" smooth="yes"/>
      <point x="80" y="772" type="line" smooth="yes"/>
      <point x="70" y="756"/>
      <point x="61" y="729"/>
      <point x="59" y="711" type="curve" smooth="yes"/>
      <point x="51" y="633" type="line" smooth="yes"/>
      <point x="50" y="629"/>
      <point x="50" y="622"/>
      <point x="50" y="617" type="curve" smooth="yes"/>
      <point x="50" y="544" type="line"/>
      <point x="50" y="224" type="line"/>
      <point x="53" y="139" type="line" smooth="yes"/>
      <point x="53" y="127"/>
      <point x="57" y="108"/>
      <point x="61" y="97" type="curve" smooth="yes"/>
      <point x="86" y="25" type="line" smooth="yes"/>
      <point x="93" y="4"/>
      <point x="114" y="-25"/>
      <point x="131" y="-40" type="curve" smooth="yes"/>
      <point x="191" y="-89" type="line" smooth="yes"/>
      <point x="206" y="-101"/>
      <point x="233" y="-115"/>
      <point x="251" y="-119" type="curve" smooth="yes"/>
      <point x="331" y="-138" type="line" smooth="yes"/>
      <point x="339" y="-140"/>
      <point x="353" y="-141"/>
      <point x="362" y="-142" type="curve" smooth="yes"/>
      <point x="436" y="-143" type="line" smooth="yes"/>
      <point x="437" y="-143"/>
      <point x="438" y="-143"/>
    </contour>
    <contour>
      <point x="544" y="604" type="line" smooth="yes"/>
      <point x="544" y="623"/>
      <point x="540" y="641"/>
      <point x="534" y="657" type="curve"/>
      <point x="552" y="657" type="line"/>
      <point x="613" y="656" type="line"/>
      <point x="641" y="650" type="line"/>
      <point x="643" y="649" type="line"/>
      <point x="647" y="641" type="line"/>
      <point x="650" y="593" type="line" smooth="yes"/>
      <point x="652" y="578"/>
      <point x="655" y="564"/>
      <point x="660" y="551" type="curve"/>
      <point x="605" y="551" type="line"/>
      <point x="559" y="556" type="line"/>
      <point x="550" y="560" type="line"/>
      <point x="548" y="562" type="line"/>
      <point x="544" y="599" type="line"/>
    </contour>
    <contour>
      <point x="344" y="224" type="line"/>
      <point x="344" y="343" type="line"/>
      <point x="357" y="331"/>
      <point x="371" y="320"/>
      <point x="384" y="314" type="curve" smooth="yes"/>
      <point x="455" y="280" type="line" smooth="yes"/>
      <point x="468" y="274"/>
      <point x="489" y="268"/>
      <point x="503" y="266" type="curve" smooth="yes"/>
      <point x="582" y="258" type="line" smooth="yes"/>
      <point x="586" y="257"/>
      <point x="593" y="257"/>
      <point x="597" y="257" type="curve" smooth="yes"/>
      <point x="650" y="257" type="line"/>
      <point x="650" y="198" type="line"/>
      <point x="646" y="161" type="line"/>
      <point x="645" y="160" type="line"/>
      <point x="637" y="156" type="line"/>
      <point x="591" y="151" type="line"/>
      <point x="440" y="151" type="line"/>
      <point x="383" y="152" type="line"/>
      <point x="352" y="159" type="line"/>
      <point x="350" y="161" type="line"/>
      <point x="346" y="172" type="line"/>
    </contour>
  </outline>
</glyph>
<glyph name="h" format="1">
  <advance width="890"/>
  <unicode hex="0068"/>
  <outline>
    <contour>
      <point x="745" y="-99" type="curve" smooth="yes"/>
      <point x="796" y="-99"/>
      <point x="840" y="-55"/>
      <point x="840" y="-4" type="curve" smooth="yes"/>
      <point x="840" y="466" type="line" smooth="yes"/>
      <point x="840" y="527"/>
      <point x="790" y="570"/>
      <point x="730" y="560" type="curve" smooth="yes"/>
      <point x="345" y="497" type="line"/>
      <point x="235" y="826" type="line" smooth="yes"/>
      <point x="219" y="875"/>
      <point x="164" y="902"/>
      <point x="115" y="886" type="curve" smooth="yes"/>
      <point x="66" y="870"/>
      <point x="39" y="815"/>
      <point x="55" y="766" type="curve" smooth="yes"/>
      <point x="190" y="361" type="line" smooth="yes"/>
      <point x="204" y="318"/>
      <point x="252" y="290"/>
      <point x="296" y="297" type="curve" smooth="yes"/>
      <point x="650" y="354" type="line"/>
      <point x="650" y="-4" type="line" smooth="yes"/>
      <point x="650" y="-55"/>
      <point x="694" y="-99"/>
    </contour>
  </outline>
</glyph>
<glyph name="i" format="1">
  <advance width="933"/>
  <unicode hex="0069"/>
  <outline>
    <contour>
      <point x="167" y="-118" type="curve" smooth="yes"/>
      <point x="657" y="-118" type="line" smooth="yes"/>
      <point x="747" y="-118"/>
      <point x="800" y="-38"/>
      <point x="765" y="44" type="curve" smooth="yes"/>
      <point x="603" y="428" type="line"/>
      <point x="856" y="723" type="line" smooth="yes"/>
      <point x="897" y="771"/>
      <point x="891" y="847"/>
      <point x="843" y="888" type="curve" smooth="yes"/>
      <point x="795" y="929"/>
      <point x="719" y="923"/>
      <point x="678" y="875" type="curve" smooth="yes"/>
      <point x="378" y="525" type="line" smooth="yes"/>
      <point x="352" y="495"/>
      <point x="344" y="441"/>
      <point x="359" y="404" type="curve" smooth="yes"/>
      <point x="481" y="116" type="line"/>
      <point x="167" y="116" type="line" smooth="yes"/>
      <point x="104" y="116"/>
      <point x="50" y="62"/>
      <point x="50" y="-1" type="curve" smooth="yes"/>
      <point x="50" y="-64"/>
      <point x="104" y="-118"/>
    </contour>
  </outline>
</glyph>
<glyph name="j" format="1">
  <advance width="974"/>
  <unicode hex="006A"/>
  <outline>
    <contour>
      <point x="215" y="-135" type="curve" smooth="yes"/>
      <point x="478" y="-80" type="line" smooth="yes"/>
      <point x="532" y="-69"/>
      <point x="581" y="-15"/>
      <point x="586" y="40" type="curve" smooth="yes"/>
      <point x="623" y="416" type="line" smooth="yes"/>
      <point x="624" y="426"/>
      <point x="624" y="444"/>
      <point x="622" y="455" type="curve" smooth="yes"/>
      <point x="582" y="662" type="line"/>
      <point x="787" y="662" type="line" smooth="yes"/>
      <point x="861" y="662"/>
      <point x="924" y="725"/>
      <point x="924" y="799" type="curve" smooth="yes"/>
      <point x="924" y="873"/>
      <point x="861" y="936"/>
      <point x="787" y="936" type="curve" smooth="yes"/>
      <point x="417" y="936" type="line" smooth="yes"/>
      <point x="327" y="936"/>
      <point x="266" y="862"/>
      <point x="282" y="774" type="curve" smooth="yes"/>
      <point x="349" y="423" type="line"/>
      <point x="323" y="168" type="line"/>
      <point x="159" y="133" type="line" smooth="yes"/>
      <point x="87" y="118"/>
      <point x="38" y="43"/>
      <point x="53" y="-29" type="curve" smooth="yes"/>
      <point x="68" y="-101"/>
      <point x="143" y="-150"/>
    </contour>
  </outline>
</glyph>
<glyph name="k" format="1">
  <advance width="946"/>
  <unicode hex="006B"/>
  <outline>
    <contour>
      <point x="845" y="-96" type="curve" smooth="yes"/>
      <point x="899" y="-57"/>
      <point x="912" y="22"/>
      <point x="873" y="76" type="curve" smooth="yes"/>
      <point x="680" y="343" type="line"/>
      <point x="681" y="344"/>
      <point x="682" y="346"/>
      <point x="682" y="348" type="curve" smooth="yes"/>
      <point x="882" y="738" type="line" smooth="yes"/>
      <point x="890" y="752"/>
      <point x="896" y="777"/>
      <point x="896" y="793" type="curve" smooth="yes"/>
      <point x="896" y="803" type="line" smooth="yes"/>
      <point x="896" y="870"/>
      <point x="840" y="927"/>
      <point x="774" y="927" type="curve" smooth="yes"/>
      <point x="716" y="927"/>
      <point x="665" y="884"/>
      <point x="653" y="829" type="curve"/>
      <point x="499" y="529" type="line"/>
      <point x="459" y="534"/>
      <point x="418" y="519"/>
      <point x="388" y="482" type="curve" smooth="yes"/>
      <point x="296" y="369" type="line"/>
      <point x="296" y="514" type="line"/>
      <point x="296" y="804" type="line" smooth="yes"/>
      <point x="296" y="870"/>
      <point x="239" y="927"/>
      <point x="173" y="927" type="curve" smooth="yes"/>
      <point x="107" y="927"/>
      <point x="50" y="870"/>
      <point x="50" y="804" type="curve" smooth="yes"/>
      <point x="50" y="514" type="line"/>
      <point x="51" y="24" type="line" smooth="yes"/>
      <point x="51" y="-102"/>
      <point x="190" y="-151"/>
      <point x="269" y="-54" type="curve" smooth="yes"/>
      <point x="477" y="202" type="line"/>
      <point x="673" y="-68" type="line" smooth="yes"/>
      <point x="712" y="-122"/>
      <point x="791" y="-135"/>
    </contour>
  </outline>
</glyph>
<glyph name="l" format="1">
  <advance width="918"/>
  <unicode hex="006C"/>
  <outline>
    <contour>
      <point x="599" y="-109" type="curve" smooth="yes"/>
      <point x="759" y="-109" type="line" smooth="yes"/>
      <point x="818" y="-109"/>
      <point x="868" y="-59"/>
      <point x="868" y="0" type="curve" smooth="yes"/>
      <point x="868" y="59"/>
      <point x="818" y="109"/>
      <point x="759" y="109" type="curve" smooth="yes"/>
      <point x="604" y="109" type="line"/>
      <point x="310" y="138" type="line"/>
      <point x="268" y="428" type="line"/>
      <point x="268" y="800" type="line" smooth="yes"/>
      <point x="268" y="859"/>
      <point x="218" y="909"/>
      <point x="159" y="909" type="curve" smooth="yes"/>
      <point x="100" y="909"/>
      <point x="50" y="859"/>
      <point x="50" y="800" type="curve" smooth="yes"/>
      <point x="50" y="420" type="line" smooth="yes"/>
      <point x="50" y="416"/>
      <point x="51" y="409"/>
      <point x="51" y="404" type="curve" smooth="yes"/>
      <point x="106" y="22" type="line" smooth="yes"/>
      <point x="113" y="-25"/>
      <point x="157" y="-67"/>
      <point x="204" y="-71" type="curve" smooth="yes"/>
      <point x="588" y="-108" type="line" smooth="yes"/>
      <point x="591" y="-109"/>
      <point x="596" y="-109"/>
    </contour>
  </outline>
</glyph>
<glyph name="m" format="1">
  <advance width="890"/>
  <unicode hex="006D"/>
  <outline>
    <contour>
      <point x="745" y="-96" type="curve" smooth="yes"/>
      <point x="796" y="-96"/>
      <point x="840" y="-52"/>
      <point x="840" y="-1" type="curve" smooth="yes"/>
      <point x="840" y="499" type="line" smooth="yes"/>
      <point x="840" y="526"/>
      <point x="822" y="561"/>
      <point x="800" y="577" type="curve" smooth="yes"/>
      <point x="390" y="867" type="line" smooth="yes"/>
      <point x="338" y="904"/>
      <point x="272" y="885"/>
      <point x="248" y="825" type="curve" smooth="yes"/>
      <point x="57" y="365" type="line" smooth="yes"/>
      <point x="53" y="356"/>
      <point x="50" y="339"/>
      <point x="50" y="329" type="curve" smooth="yes"/>
      <point x="50" y="-1" type="line" smooth="yes"/>
      <point x="50" y="-52"/>
      <point x="94" y="-96"/>
      <point x="145" y="-96" type="curve" smooth="yes"/>
      <point x="196" y="-96"/>
      <point x="240" y="-52"/>
      <point x="240" y="-1" type="curve" smooth="yes"/>
      <point x="240" y="310" type="line"/>
      <point x="378" y="643" type="line"/>
      <point x="650" y="450" type="line"/>
      <point x="650" y="-1" type="line" smooth="yes"/>
      <point x="650" y="-52"/>
      <point x="694" y="-96"/>
    </contour>
  </outline>
</glyph>
<glyph name="n" format="1">
  <advance width="1012"/>
  <unicode hex="006E"/>
  <outline>
    <contour>
      <point x="362" y="-1" type="curve" smooth="yes"/>
      <point x="362" y="169" type="line"/>
      <point x="446" y="-41" type="line" smooth="yes"/>
      <point x="479" y="-123"/>
      <point x="571" y="-161"/>
      <point x="652" y="-126" type="curve" smooth="yes"/>
      <point x="867" y="-34" type="line" smooth="yes"/>
      <point x="920" y="-12"/>
      <point x="962" y="52"/>
      <point x="962" y="109" type="curve" smooth="yes"/>
      <point x="962" y="799" type="line" smooth="yes"/>
      <point x="962" y="883"/>
      <point x="890" y="955"/>
      <point x="806" y="955" type="curve" smooth="yes"/>
      <point x="722" y="955"/>
      <point x="650" y="883"/>
      <point x="650" y="799" type="curve" smooth="yes"/>
      <point x="650" y="699" type="line"/>
      <point x="648" y="747"/>
      <point x="610" y="806"/>
      <point x="566" y="828" type="curve" smooth="yes"/>
      <point x="358" y="937" type="line" smooth="yes"/>
      <point x="272" y="982"/>
      <point x="173" y="944"/>
      <point x="139" y="852" type="curve" smooth="yes"/>
      <point x="59" y="632" type="line" smooth="yes"/>
      <point x="54" y="618"/>
      <point x="50" y="594"/>
      <point x="50" y="579" type="curve" smooth="yes"/>
      <point x="50" y="-1" type="line" smooth="yes"/>
      <point x="50" y="-85"/>
      <point x="122" y="-157"/>
      <point x="206" y="-157" type="curve" smooth="yes"/>
      <point x="290" y="-157"/>
      <point x="362" y="-85"/>
    </contour>
  </outline>
</glyph>
<glyph name="o" format="1">
  <advance width="795"/>
  <unicode hex="006F"/>
  <outline>
    <contour>
      <point x="491" y="46" type="line" smooth="yes"/>
      <point x="371" y="46" type="line"/>
      <point x="238" y="53" type="line"/>
      <point x="155" y="123" type="line"/>
      <point x="144" y="249" type="line"/>
      <point x="144" y="399" type="line"/>
      <point x="144" y="546" type="line"/>
      <point x="151" y="668" type="line"/>
      <point x="236" y="745" type="line"/>
      <point x="365" y="752" type="line"/>
      <point x="506" y="752" type="line"/>
      <point x="616" y="714" type="line"/>
      <point x="651" y="605" type="line"/>
      <point x="651" y="469" type="line"/>
      <point x="651" y="319" type="line"/>
      <point x="651" y="180" type="line"/>
      <point x="607" y="75" type="line"/>
      <point x="494" y="46" type="line"/>
    </contour>
    <contour>
      <point x="491" y="-48" type="line" smooth="yes"/>
      <point x="493" y="-48"/>
      <point x="495" y="-48"/>
      <point x="496" y="-48" type="curve"/>
      <point x="502" y="-48"/>
      <point x="507" y="-48"/>
      <point x="513" y="-47" type="curve" smooth="yes"/>
      <point x="654" y="-10" type="line" smooth="yes"/>
      <point x="666" y="-7"/>
      <point x="680" y="5"/>
      <point x="685" y="17" type="curve" smooth="yes"/>
      <point x="741" y="153" type="line" smooth="yes"/>
      <point x="743" y="158"/>
      <point x="745" y="166"/>
      <point x="745" y="171" type="curve" smooth="yes"/>
      <point x="745" y="319" type="line"/>
      <point x="745" y="469" type="line"/>
      <point x="745" y="613" type="line" smooth="yes"/>
      <point x="745" y="617"/>
      <point x="744" y="623"/>
      <point x="743" y="627" type="curve" smooth="yes"/>
      <point x="698" y="765" type="line" smooth="yes"/>
      <point x="694" y="777"/>
      <point x="681" y="791"/>
      <point x="668" y="795" type="curve" smooth="yes"/>
      <point x="529" y="843" type="line" smooth="yes"/>
      <point x="525" y="844"/>
      <point x="518" y="846"/>
      <point x="514" y="846" type="curve" smooth="yes"/>
      <point x="365" y="846" type="line"/>
      <point x="214" y="838" type="line" smooth="yes"/>
      <point x="205" y="837"/>
      <point x="192" y="832"/>
      <point x="185" y="826" type="curve" smooth="yes"/>
      <point x="74" y="725" type="line" smooth="yes"/>
      <point x="66" y="718"/>
      <point x="59" y="703"/>
      <point x="58" y="693" type="curve" smooth="yes"/>
      <point x="50" y="552" type="line"/>
      <point x="50" y="399" type="line"/>
      <point x="50" y="249" type="line"/>
      <point x="63" y="96" type="line" smooth="yes"/>
      <point x="63" y="85"/>
      <point x="71" y="70"/>
      <point x="79" y="63" type="curve" smooth="yes"/>
      <point x="190" y="-29" type="line" smooth="yes"/>
      <point x="197" y="-34"/>
      <point x="209" y="-39"/>
      <point x="218" y="-40" type="curve" smooth="yes"/>
      <point x="367" y="-48" type="line" smooth="yes"/>
      <point x="368" y="-48"/>
      <point x="369" y="-48"/>
      <point x="370" y="-48" type="curve" smooth="yes"/>
    </contour>
  </outline>
</glyph>
<glyph name="p" format="1">
  <advance width="789"/>
  <unicode hex="0070"/>
  <outline>
    <contour>
      <point x="94" y="-41" type="curve" smooth="yes"/>
      <point x="118" y="-41"/>
      <point x="138" y="-21"/>
      <point x="138" y="3" type="curve" smooth="yes"/>
      <point x="138" y="80" type="line"/>
      <point x="333" y="264" type="line"/>
      <point x="623" y="288" type="line" smooth="yes"/>
      <point x="640" y="290"/>
      <point x="658" y="304"/>
      <point x="662" y="321" type="curve" smooth="yes"/>
      <point x="737" y="613" type="line" smooth="yes"/>
      <point x="742" y="628"/>
      <point x="734" y="649"/>
      <point x="721" y="659" type="curve" smooth="yes"/>
      <point x="479" y="838" type="line" smooth="yes"/>
      <point x="471" y="844"/>
      <point x="457" y="848"/>
      <point x="448" y="847" type="curve" smooth="yes"/>
      <point x="145" y="810" type="line" smooth="yes"/>
      <point x="128" y="808"/>
      <point x="111" y="792"/>
      <point x="107" y="775" type="curve" smooth="yes"/>
      <point x="51" y="481" type="line" smooth="yes"/>
      <point x="50" y="479"/>
      <point x="50" y="475"/>
      <point x="50" y="473" type="curve" smooth="yes"/>
      <point x="50" y="3" type="line" smooth="yes"/>
      <point x="50" y="-21"/>
      <point x="70" y="-41"/>
    </contour>
    <contour>
      <point x="311" y="351" type="line" smooth="yes"/>
      <point x="302" y="350"/>
      <point x="290" y="345"/>
      <point x="284" y="339" type="curve" smooth="yes"/>
      <point x="138" y="201" type="line"/>
      <point x="138" y="469" type="line"/>
      <point x="188" y="727" type="line"/>
      <point x="441" y="757" type="line"/>
      <point x="645" y="606" type="line"/>
      <point x="585" y="373" type="line"/>
    </contour>
  </outline>
</glyph>
<glyph name="q" format="1">
  <advance width="885"/>
  <unicode hex="0071"/>
  <outline>
    <contour>
      <point x="234" y="429" type="line"/>
      <point x="234" y="590" type="line"/>
      <point x="286" y="693" type="line"/>
      <point x="415" y="707" type="line"/>
      <point x="559" y="704" type="line"/>
      <point x="645" y="636" type="line"/>
      <point x="651" y="499" type="line"/>
      <point x="651" y="346" type="line"/>
      <point x="546" y="236" type="line" smooth="yes"/>
      <point x="539" y="229"/>
      <point x="531" y="216"/>
      <point x="527" y="207" type="curve" smooth="yes"/>
      <point x="481" y="91" type="line"/>
      <point x="367" y="91" type="line"/>
      <point x="258" y="128" type="line"/>
      <point x="234" y="248" type="line"/>
    </contour>
    <contour>
      <point x="533" y="-93" type="line" smooth="yes"/>
      <point x="535" y="-93"/>
      <point x="538" y="-93"/>
      <point x="540" y="-93" type="curve"/>
      <point x="577" y="-93"/>
      <point x="614" y="-71"/>
      <point x="628" y="-35" type="curve" smooth="yes"/>
      <point x="691" y="122" type="line"/>
      <point x="810" y="245" type="line" smooth="yes"/>
      <point x="824" y="260"/>
      <point x="835" y="289"/>
      <point x="835" y="309" type="curve" smooth="yes"/>
      <point x="835" y="499" type="line"/>
      <point x="827" y="686" type="line" smooth="yes"/>
      <point x="826" y="710"/>
      <point x="811" y="740"/>
      <point x="792" y="755" type="curve" smooth="yes"/>
      <point x="648" y="868" type="line" smooth="yes"/>
      <point x="635" y="879"/>
      <point x="610" y="888"/>
      <point x="593" y="888" type="curve" smooth="yes"/>
      <point x="412" y="891" type="line" smooth="yes"/>
      <point x="409" y="891"/>
      <point x="404" y="891"/>
      <point x="400" y="890" type="curve" smooth="yes"/>
      <point x="216" y="870" type="line" smooth="yes"/>
      <point x="189" y="867"/>
      <point x="156" y="845"/>
      <point x="144" y="820" type="curve" smooth="yes"/>
      <point x="60" y="654" type="line" smooth="yes"/>
      <point x="54" y="643"/>
      <point x="50" y="624"/>
      <point x="50" y="612" type="curve" smooth="yes"/>
      <point x="50" y="429" type="line"/>
      <point x="50" y="239" type="line"/>
      <point x="50" y="234"/>
      <point x="51" y="226"/>
      <point x="52" y="221" type="curve" smooth="yes"/>
      <point x="88" y="39" type="line" smooth="yes"/>
      <point x="94" y="11"/>
      <point x="121" y="-20"/>
      <point x="149" y="-30" type="curve" smooth="yes"/>
      <point x="323" y="-88" type="line" smooth="yes"/>
      <point x="331" y="-91"/>
      <point x="344" y="-93"/>
      <point x="352" y="-93" type="curve" smooth="yes"/>
    </contour>
  </outline>
</glyph>
<glyph name="r" format="1">
  <advance width="973"/>
  <unicode hex="0072"/>
  <outline>
    <contour>
      <point x="537" y="429" type="line" smooth="yes"/>
      <point x="529" y="430"/>
      <point x="515" y="432"/>
      <point x="507" y="432" type="curve" smooth="yes"/>
      <point x="322" y="432" type="line"/>
      <point x="322" y="515" type="line"/>
      <point x="341" y="631" type="line"/>
      <point x="450" y="660" type="line"/>
      <point x="584" y="656" type="line"/>
      <point x="649" y="578" type="line"/>
      <point x="645" y="485" type="line"/>
      <point x="543" y="427" type="line"/>
    </contour>
    <contour>
      <point x="186" y="-140" type="curve" smooth="yes"/>
      <point x="259" y="-140"/>
      <point x="322" y="-77"/>
      <point x="322" y="-4" type="curve" smooth="yes"/>
      <point x="322" y="160" type="line"/>
      <point x="491" y="160" type="line"/>
      <point x="630" y="128" type="line"/>
      <point x="652" y="-24" type="line" smooth="yes"/>
      <point x="663" y="-97"/>
      <point x="734" y="-149"/>
      <point x="807" y="-139" type="curve" smooth="yes"/>
      <point x="880" y="-128"/>
      <point x="932" y="-57"/>
      <point x="922" y="16" type="curve" smooth="yes"/>
      <point x="885" y="259" type="line" smooth="yes"/>
      <point x="883" y="275"/>
      <point x="877" y="290"/>
      <point x="869" y="304" type="curve"/>
      <point x="894" y="329"/>
      <point x="913" y="367"/>
      <point x="914" y="399" type="curve" smooth="yes"/>
      <point x="923" y="619" type="line" smooth="yes"/>
      <point x="924" y="647"/>
      <point x="910" y="688"/>
      <point x="892" y="710" type="curve" smooth="yes"/>
      <point x="755" y="877" type="line" smooth="yes"/>
      <point x="733" y="904"/>
      <point x="688" y="926"/>
      <point x="653" y="927" type="curve" smooth="yes"/>
      <point x="438" y="932" type="line" smooth="yes"/>
      <point x="427" y="932"/>
      <point x="410" y="930"/>
      <point x="400" y="928" type="curve" smooth="yes"/>
      <point x="187" y="872" type="line" smooth="yes"/>
      <point x="140" y="860"/>
      <point x="96" y="811"/>
      <point x="88" y="763" type="curve" smooth="yes"/>
      <point x="52" y="548" type="line" smooth="yes"/>
      <point x="51" y="542"/>
      <point x="50" y="532"/>
      <point x="50" y="526" type="curve" smooth="yes"/>
      <point x="50" y="-4" type="line" smooth="yes"/>
      <point x="50" y="-77"/>
      <point x="113" y="-140"/>
    </contour>
  </outline>
</glyph>
<glyph name="s" format="1">
  <advance width="990"/>
  <unicode hex="0073"/>
  <outline>
    <contour>
      <point x="246" y="68" type="curve" smooth="yes"/>
      <point x="747" y="258" type="line" smooth="yes"/>
      <point x="842" y="294"/>
      <point x="872" y="389"/>
      <point x="826" y="463" type="curve"/>
      <point x="879" y="475"/>
      <point x="924" y="515"/>
      <point x="937" y="570" type="curve" smooth="yes"/>
      <point x="955" y="646"/>
      <point x="906" y="727"/>
      <point x="830" y="745" type="curve" smooth="yes"/>
      <point x="259" y="882" type="line" smooth="yes"/>
      <point x="96" y="921"/>
      <point x="4" y="724"/>
      <point x="139" y="625" type="curve" smooth="yes"/>
      <point x="395" y="435" type="line"/>
      <point x="144" y="340" type="line" smooth="yes"/>
      <point x="70" y="312"/>
      <point x="32" y="226"/>
      <point x="59" y="153" type="curve" smooth="yes"/>
      <point x="87" y="79"/>
      <point x="173" y="41"/>
    </contour>
  </outline>
</glyph>
<glyph name="t" format="1">
  <advance width="541"/>
  <unicode hex="0074"/>
  <outline>
    <contour>
      <point x="420" y="-71" type="curve" smooth="yes"/>
      <point x="458" y="-71"/>
      <point x="491" y="-38"/>
      <point x="491" y="0" type="curve" smooth="yes"/>
      <point x="491" y="530" type="line" smooth="yes"/>
      <point x="491" y="547"/>
      <point x="480" y="571"/>
      <point x="467" y="583" type="curve" smooth="yes"/>
      <point x="167" y="853" type="line" smooth="yes"/>
      <point x="139" y="878"/>
      <point x="93" y="876"/>
      <point x="67" y="847" type="curve" smooth="yes"/>
      <point x="42" y="819"/>
      <point x="44" y="773"/>
      <point x="73" y="747" type="curve" smooth="yes"/>
      <point x="349" y="498" type="line"/>
      <point x="349" y="0" type="line" smooth="yes"/>
      <point x="349" y="-38"/>
      <point x="382" y="-71"/>
    </contour>
  </outline>
</glyph>
<glyph name="u" format="1">
  <advance width="883"/>
  <unicode hex="0075"/>
  <outline>
    <contour>
      <point x="471" y="-91" type="curve" smooth="yes"/>
      <point x="717" y="-43" type="line" smooth="yes"/>
      <point x="751" y="-36"/>
      <point x="784" y="-2"/>
      <point x="790" y="32" type="curve" smooth="yes"/>
      <point x="832" y="284" type="line" smooth="yes"/>
      <point x="832" y="288"/>
      <point x="833" y="295"/>
      <point x="833" y="299" type="curve" smooth="yes"/>
      <point x="833" y="799" type="line" smooth="yes"/>
      <point x="833" y="849"/>
      <point x="791" y="891"/>
      <point x="741" y="891" type="curve" smooth="yes"/>
      <point x="691" y="891"/>
      <point x="649" y="849"/>
      <point x="649" y="799" type="curve" smooth="yes"/>
      <point x="649" y="307" type="line"/>
      <point x="619" y="126" type="line"/>
      <point x="451" y="92" type="line"/>
      <point x="276" y="117" type="line"/>
      <point x="234" y="290" type="line"/>
      <point x="234" y="799" type="line" smooth="yes"/>
      <point x="234" y="849"/>
      <point x="192" y="891"/>
      <point x="142" y="891" type="curve" smooth="yes"/>
      <point x="92" y="891"/>
      <point x="50" y="849"/>
      <point x="50" y="799" type="curve" smooth="yes"/>
      <point x="50" y="279" type="line" smooth="yes"/>
      <point x="50" y="273"/>
      <point x="51" y="263"/>
      <point x="53" y="257" type="curve" smooth="yes"/>
      <point x="113" y="13" type="line" smooth="yes"/>
      <point x="121" y="-20"/>
      <point x="155" y="-51"/>
      <point x="189" y="-56" type="curve" smooth="yes"/>
      <point x="440" y="-92" type="line" smooth="yes"/>
      <point x="449" y="-93"/>
      <point x="463" y="-93"/>
    </contour>
  </outline>
</glyph>
<glyph name="v" format="1">
  <advance width="818"/>
  <unicode hex="0076"/>
  <outline>
    <contour>
      <point x="742" y="66" type="curve" smooth="yes"/>
      <point x="768" y="446" type="line"/>
      <point x="768" y="800" type="line" smooth="yes"/>
      <point x="768" y="832"/>
      <point x="741" y="859"/>
      <point x="709" y="859" type="curve" smooth="yes"/>
      <point x="677" y="859"/>
      <point x="650" y="832"/>
      <point x="650" y="800" type="curve" smooth="yes"/>
      <point x="650" y="454" type="line"/>
      <point x="628" y="132" type="line"/>
      <point x="333" y="148" type="line"/>
      <point x="168" y="436" type="line"/>
      <point x="168" y="800" type="line" smooth="yes"/>
      <point x="168" y="832"/>
      <point x="141" y="859"/>
      <point x="109" y="859" type="curve" smooth="yes"/>
      <point x="77" y="859"/>
      <point x="50" y="832"/>
      <point x="50" y="800" type="curve" smooth="yes"/>
      <point x="50" y="420" type="line" smooth="yes"/>
      <point x="50" y="411"/>
      <point x="53" y="398"/>
      <point x="58" y="391" type="curve" smooth="yes"/>
      <point x="246" y="61" type="line" smooth="yes"/>
      <point x="255" y="46"/>
      <point x="276" y="32"/>
      <point x="294" y="32" type="curve" smooth="yes"/>
      <point x="680" y="11" type="line" smooth="yes"/>
      <point x="712" y="9"/>
      <point x="739" y="34"/>
    </contour>
  </outline>
</glyph>
<glyph name="w" format="1">
  <advance width="828"/>
  <unicode hex="0077"/>
  <outline>
    <contour>
      <point x="405" y="15" type="curve" smooth="yes"/>
      <point x="412" y="42" type="line"/>
      <point x="418" y="17" type="line" smooth="yes"/>
      <point x="429" y="-32"/>
      <point x="479" y="-49"/>
      <point x="519" y="-19" type="curve" smooth="yes"/>
      <point x="753" y="159" type="line" smooth="yes"/>
      <point x="767" y="170"/>
      <point x="778" y="192"/>
      <point x="778" y="210" type="curve" smooth="yes"/>
      <point x="778" y="800" type="line" smooth="yes"/>
      <point x="778" y="835"/>
      <point x="749" y="864"/>
      <point x="714" y="864" type="curve" smooth="yes"/>
      <point x="679" y="864"/>
      <point x="650" y="835"/>
      <point x="650" y="800" type="curve" smooth="yes"/>
      <point x="650" y="242" type="line"/>
      <point x="519" y="142" type="line"/>
      <point x="473" y="335" type="line" smooth="yes"/>
      <point x="456" y="405"/>
      <point x="364" y="405"/>
      <point x="348" y="334" type="curve" smooth="yes"/>
      <point x="304" y="145" type="line"/>
      <point x="178" y="250" type="line"/>
      <point x="178" y="800" type="line" smooth="yes"/>
      <point x="178" y="835"/>
      <point x="149" y="864"/>
      <point x="114" y="864" type="curve" smooth="yes"/>
      <point x="79" y="864"/>
      <point x="50" y="835"/>
      <point x="50" y="800" type="curve" smooth="yes"/>
      <point x="50" y="220" type="line" smooth="yes"/>
      <point x="50" y="203"/>
      <point x="60" y="181"/>
      <point x="73" y="171" type="curve" smooth="yes"/>
      <point x="302" y="-20" type="line" smooth="yes"/>
      <point x="342" y="-53"/>
      <point x="394" y="-35"/>
    </contour>
  </outline>
</glyph>
<glyph name="x" format="1">
  <advance width="882"/>
  <unicode hex="0078"/>
  <outline>
    <contour>
      <point x="741" y="-91" type="curve" smooth="yes"/>
      <point x="790" y="-91"/>
      <point x="832" y="-49"/>
      <point x="832" y="0" type="curve" smooth="yes"/>
      <point x="832" y="228" type="line" smooth="yes"/>
      <point x="832" y="247"/>
      <point x="821" y="274"/>
      <point x="808" y="289" type="curve" smooth="yes"/>
      <point x="657" y="458" type="line" smooth="yes"/>
      <point x="642" y="474"/>
      <point x="612" y="488"/>
      <point x="590" y="488" type="curve" smooth="yes"/>
      <point x="576" y="488" type="line"/>
      <point x="808" y="738" type="line" smooth="yes"/>
      <point x="841" y="774"/>
      <point x="839" y="833"/>
      <point x="803" y="867" type="curve" smooth="yes"/>
      <point x="767" y="900"/>
      <point x="708" y="898"/>
      <point x="674" y="862" type="curve" smooth="yes"/>
      <point x="345" y="508" type="line"/>
      <point x="244" y="553" type="line"/>
      <point x="232" y="726" type="line"/>
      <point x="232" y="800" type="line" smooth="yes"/>
      <point x="232" y="849"/>
      <point x="190" y="891"/>
      <point x="141" y="891" type="curve" smooth="yes"/>
      <point x="92" y="891"/>
      <point x="50" y="849"/>
      <point x="50" y="800" type="curve" smooth="yes"/>
      <point x="50" y="714" type="line"/>
      <point x="66" y="486" type="line" smooth="yes"/>
      <point x="68" y="456"/>
      <point x="92" y="422"/>
      <point x="119" y="410" type="curve" smooth="yes"/>
      <point x="239" y="356" type="line"/>
      <point x="62" y="45" type="line" smooth="yes"/>
      <point x="38" y="2"/>
      <point x="53" y="-55"/>
      <point x="96" y="-79" type="curve" smooth="yes"/>
      <point x="139" y="-103"/>
      <point x="196" y="-88"/>
      <point x="220" y="-45" type="curve" smooth="yes"/>
      <point x="422" y="308" type="line"/>
      <point x="548" y="306" type="line"/>
      <point x="650" y="193" type="line"/>
      <point x="650" y="0" type="line" smooth="yes"/>
      <point x="650" y="-49"/>
      <point x="692" y="-91"/>
    </contour>
  </outline>
</glyph>
<glyph name="y" format="1">
  <advance width="920"/>
  <unicode hex="0079"/>
  <outline>
    <contour>
      <point x="520" y="-110" type="line" smooth="yes"/>
      <point x="531" y="-110"/>
      <point x="550" y="-107"/>
      <point x="560" y="-102" type="curve" smooth="yes"/>
      <point x="781" y="-15" type="line" smooth="yes"/>
      <point x="815" y="-1"/>
      <point x="846" y="41"/>
      <point x="850" y="78" type="curve" smooth="yes"/>
      <point x="870" y="311" type="line" smooth="yes"/>
      <point x="870" y="315"/>
      <point x="870" y="321"/>
      <point x="870" y="324" type="curve" smooth="yes"/>
      <point x="861" y="562" type="line" smooth="yes"/>
      <point x="856" y="695"/>
      <point x="677" y="714"/>
      <point x="644" y="585" type="curve" smooth="yes"/>
      <point x="606" y="429" type="line"/>
      <point x="462" y="409" type="line"/>
      <point x="313" y="428" type="line"/>
      <point x="270" y="574" type="line"/>
      <point x="270" y="798" type="line" smooth="yes"/>
      <point x="270" y="857"/>
      <point x="219" y="908"/>
      <point x="160" y="908" type="curve" smooth="yes"/>
      <point x="101" y="908"/>
      <point x="50" y="857"/>
      <point x="50" y="798" type="curve" smooth="yes"/>
      <point x="50" y="558" type="line" smooth="yes"/>
      <point x="50" y="549"/>
      <point x="52" y="535"/>
      <point x="55" y="527" type="curve" smooth="yes"/>
      <point x="123" y="297" type="line" smooth="yes"/>
      <point x="134" y="259"/>
      <point x="175" y="224"/>
      <point x="214" y="219" type="curve" smooth="yes"/>
      <point x="448" y="189" type="line" smooth="yes"/>
      <point x="456" y="188"/>
      <point x="470" y="188"/>
      <point x="478" y="189" type="curve" smooth="yes"/>
      <point x="640" y="212" type="line"/>
      <point x="636" y="165" type="line"/>
      <point x="499" y="110" type="line"/>
      <point x="280" y="110" type="line"/>
      <point x="161" y="111" type="line" smooth="yes"/>
      <point x="101" y="111"/>
      <point x="50" y="61"/>
      <point x="50" y="2" type="curve" smooth="yes"/>
      <point x="50" y="-58"/>
      <point x="100" y="-109"/>
      <point x="159" y="-109" type="curve" smooth="yes"/>
      <point x="279" y="-110" type="line"/>
    </contour>
  </outline>
</glyph>
<glyph name="z" format="1">
  <advance width="922"/>
  <unicode hex="007A"/>
  <outline>
    <contour>
      <point x="361" y="-111" type="curve" smooth="yes"/>
      <point x="761" y="-111" type="line" smooth="yes"/>
      <point x="821" y="-111"/>
      <point x="872" y="-60"/>
      <point x="872" y="0" type="curve" smooth="yes"/>
      <point x="872" y="60"/>
      <point x="821" y="111"/>
      <point x="761" y="111" type="curve" smooth="yes"/>
      <point x="367" y="111" type="line"/>
      <point x="313" y="117" type="line"/>
      <point x="289" y="128" type="line"/>
      <point x="279" y="144" type="line"/>
      <point x="289" y="152" type="line"/>
      <point x="756" y="463" type="line"/>
      <point x="823" y="508" type="line" smooth="yes"/>
      <point x="853" y="528"/>
      <point x="875" y="573"/>
      <point x="872" y="609" type="curve" smooth="yes"/>
      <point x="865" y="693" type="line" smooth="yes"/>
      <point x="863" y="707"/>
      <point x="857" y="728"/>
      <point x="850" y="740" type="curve" smooth="yes"/>
      <point x="806" y="814" type="line" smooth="yes"/>
      <point x="797" y="830"/>
      <point x="775" y="850"/>
      <point x="758" y="858" type="curve" smooth="yes"/>
      <point x="687" y="892" type="line" smooth="yes"/>
      <point x="678" y="896"/>
      <point x="662" y="901"/>
      <point x="651" y="902" type="curve" smooth="yes"/>
      <point x="573" y="910" type="line" smooth="yes"/>
      <point x="569" y="911"/>
      <point x="564" y="911"/>
      <point x="561" y="911" type="curve" smooth="yes"/>
      <point x="161" y="911" type="line" smooth="yes"/>
      <point x="101" y="911"/>
      <point x="50" y="860"/>
      <point x="50" y="800" type="curve" smooth="yes"/>
      <point x="50" y="740"/>
      <point x="101" y="689"/>
      <point x="161" y="689" type="curve" smooth="yes"/>
      <point x="555" y="689" type="line"/>
      <point x="609" y="683" type="line"/>
      <point x="632" y="672" type="line"/>
      <point x="642" y="654" type="line"/>
      <point x="166" y="337" type="line"/>
      <point x="94" y="282" type="line" smooth="yes"/>
      <point x="66" y="261"/>
      <point x="47" y="216"/>
      <point x="51" y="182" type="curve" smooth="yes"/>
      <point x="60" y="97" type="line" smooth="yes"/>
      <point x="61" y="83"/>
      <point x="69" y="62"/>
      <point x="76" y="50" type="curve" smooth="yes"/>
      <point x="118" y="-17" type="line" smooth="yes"/>
      <point x="127" y="-32"/>
      <point x="148" y="-50"/>
      <point x="164" y="-58" type="curve" smooth="yes"/>
      <point x="235" y="-92" type="line" smooth="yes"/>
      <point x="244" y="-96"/>
      <point x="260" y="-101"/>
      <point x="271" y="-102" type="curve" smooth="yes"/>
      <point x="349" y="-110" type="line" smooth="yes"/>
      <point x="353" y="-111"/>
      <point x="358" y="-111"/>
    </contour>
  </outline>
</glyph>
<glyph name="braceleft" format="1">
  <advance width="694"/>
  <unicode hex="007B"/>
  <outline>
    <contour>
      <point x="554" y="-82" type="curve" smooth="yes"/>
      <point x="564" y="-82" type="line" smooth="yes"/>
      <point x="607" y="-82"/>
      <point x="644" y="-45"/>
      <point x="644" y="-2" type="curve" smooth="yes"/>
      <point x="644" y="41"/>
      <point x="607" y="78"/>
      <point x="564" y="78" type="curve" smooth="yes"/>
      <point x="559" y="78" type="line"/>
      <point x="398" y="97" type="line"/>
      <point x="339" y="254" type="line" smooth="yes"/>
      <point x="336" y="260"/>
      <point x="331" y="269"/>
      <point x="327" y="274" type="curve" smooth="yes"/>
      <point x="230" y="403" type="line"/>
      <point x="327" y="528" type="line" smooth="yes"/>
      <point x="331" y="533"/>
      <point x="335" y="541"/>
      <point x="337" y="546" type="curve" smooth="yes"/>
      <point x="405" y="703" type="line"/>
      <point x="571" y="718" type="line" smooth="yes"/>
      <point x="614" y="722"/>
      <point x="648" y="762"/>
      <point x="644" y="805" type="curve" smooth="yes"/>
      <point x="640" y="848"/>
      <point x="600" y="882"/>
      <point x="557" y="878" type="curve" smooth="yes"/>
      <point x="343" y="858" type="line" smooth="yes"/>
      <point x="317" y="855"/>
      <point x="287" y="834"/>
      <point x="277" y="810" type="curve" smooth="yes"/>
      <point x="194" y="618" type="line"/>
      <point x="66" y="452" type="line" smooth="yes"/>
      <point x="45" y="426"/>
      <point x="45" y="382"/>
      <point x="65" y="355" type="curve" smooth="yes"/>
      <point x="193" y="187" type="line"/>
      <point x="265" y="-5" type="line" smooth="yes"/>
      <point x="275" y="-30"/>
      <point x="304" y="-53"/>
      <point x="331" y="-56" type="curve" smooth="yes"/>
      <point x="545" y="-81" type="line" smooth="yes"/>
      <point x="547" y="-82"/>
      <point x="551" y="-82"/>
    </contour>
  </outline>
</glyph>
<glyph name="bar" format="1">
  <advance width="190"/>
  <unicode hex="007C"/>
  <outline>
    <contour>
      <point x="95" y="-44" type="curve" smooth="yes"/>
      <point x="119" y="-44"/>
      <point x="140" y="-23"/>
      <point x="140" y="1" type="curve" smooth="yes"/>
      <point x="140" y="801" type="line" smooth="yes"/>
      <point x="140" y="825"/>
      <point x="119" y="846"/>
      <point x="95" y="846" type="curve" smooth="yes"/>
      <point x="71" y="846"/>
      <point x="50" y="825"/>
      <point x="50" y="801" type="curve" smooth="yes"/>
      <point x="50" y="1" type="line" smooth="yes"/>
      <point x="50" y="-23"/>
      <point x="71" y="-44"/>
    </contour>
  </outline>
</glyph>
<glyph name="braceright" format="1">
  <advance width="506"/>
  <unicode hex="007D"/>
  <outline>
    <contour>
      <point x="133" y="-45" type="curve" smooth="yes"/>
      <point x="433" y="162" type="line" smooth="yes"/>
      <point x="446" y="171"/>
      <point x="456" y="190"/>
      <point x="456" y="206" type="curve" smooth="yes"/>
      <point x="456" y="578" type="line" smooth="yes"/>
      <point x="456" y="593"/>
      <point x="446" y="612"/>
      <point x="435" y="621" type="curve" smooth="yes"/>
      <point x="134" y="842" type="line" smooth="yes"/>
      <point x="111" y="859"/>
      <point x="77" y="853"/>
      <point x="60" y="830" type="curve" smooth="yes"/>
      <point x="43" y="807"/>
      <point x="49" y="773"/>
      <point x="72" y="756" type="curve" smooth="yes"/>
      <point x="350" y="552" type="line"/>
      <point x="350" y="233" type="line"/>
      <point x="73" y="43" type="line" smooth="yes"/>
      <point x="49" y="26"/>
      <point x="43" y="-7"/>
      <point x="59" y="-31" type="curve" smooth="yes"/>
      <point x="76" y="-55"/>
      <point x="109" y="-61"/>
    </contour>
  </outline>
</glyph>
<glyph name="asciitilde" format="1">
  <advance width="883"/>
  <unicode hex="007E"/>
  <outline>
    <contour>
      <point x="142" y="11" type="curve" smooth="yes"/>
      <point x="532" y="11" type="line" smooth="yes"/>
      <point x="552" y="11"/>
      <point x="581" y="22"/>
      <point x="595" y="36" type="curve" smooth="yes"/>
      <point x="805" y="236" type="line" smooth="yes"/>
      <point x="841" y="271"/>
      <point x="843" y="330"/>
      <point x="809" y="366" type="curve" smooth="yes"/>
      <point x="774" y="402"/>
      <point x="715" y="404"/>
      <point x="679" y="370" type="curve" smooth="yes"/>
      <point x="495" y="195" type="line"/>
      <point x="142" y="195" type="line" smooth="yes"/>
      <point x="92" y="195"/>
      <point x="50" y="153"/>
      <point x="50" y="103" type="curve" smooth="yes"/>
      <point x="50" y="53"/>
      <point x="92" y="11"/>
    </contour>
  </outline>
</glyph>
<glyph name="cent" format="1">
  <advance width="671"/>
  <unicode hex="00A2"/>
  <outline>
    <contour>
      <point x="437" y="-184" type="curve" smooth="yes"/>
      <point x="482" y="-184"/>
      <point x="521" y="-145"/>
      <point x="521" y="-100" type="curve" smooth="yes"/>
      <point x="521" y="-84" type="line"/>
      <point x="537" y="-84" type="line" smooth="yes"/>
      <point x="582" y="-84"/>
      <point x="621" y="-45"/>
      <point x="621" y="0" type="curve" smooth="yes"/>
      <point x="621" y="45"/>
      <point x="582" y="84"/>
      <point x="537" y="84" type="curve" smooth="yes"/>
      <point x="522" y="84" type="line"/>
      <point x="317" y="218" type="line"/>
      <point x="569" y="322" type="line" smooth="yes"/>
      <point x="611" y="340"/>
      <point x="632" y="390"/>
      <point x="615" y="432" type="curve" smooth="yes"/>
      <point x="599" y="469"/>
      <point x="559" y="489"/>
      <point x="521" y="482" type="curve"/>
      <point x="521" y="500" type="line" smooth="yes"/>
      <point x="521" y="545"/>
      <point x="482" y="584"/>
      <point x="437" y="584" type="curve" smooth="yes"/>
      <point x="392" y="584"/>
      <point x="353" y="545"/>
      <point x="353" y="500" type="curve" smooth="yes"/>
      <point x="353" y="415" type="line"/>
      <point x="106" y="312" type="line" smooth="yes"/>
      <point x="38" y="284"/>
      <point x="31" y="204"/>
      <point x="92" y="164" type="curve" smooth="yes"/>
      <point x="353" y="-6" type="line"/>
      <point x="353" y="-100" type="line" smooth="yes"/>
      <point x="353" y="-145"/>
      <point x="392" y="-184"/>
    </contour>
  </outline>
</glyph>
<glyph name="sterling" format="1">
  <advance width="538"/>
  <unicode hex="00A3"/>
  <outline>
    <contour>
      <point x="236" y="-43" type="curve" smooth="yes"/>
      <point x="444" y="-43" type="line" smooth="yes"/>
      <point x="468" y="-43"/>
      <point x="488" y="-23"/>
      <point x="488" y="1" type="curve" smooth="yes"/>
      <point x="488" y="25"/>
      <point x="468" y="45"/>
      <point x="444" y="45" type="curve" smooth="yes"/>
      <point x="282" y="45" type="line"/>
      <point x="288" y="214" type="line"/>
      <point x="288" y="357" type="line"/>
      <point x="394" y="357" type="line" smooth="yes"/>
      <point x="418" y="357"/>
      <point x="438" y="377"/>
      <point x="438" y="401" type="curve" smooth="yes"/>
      <point x="438" y="425"/>
      <point x="418" y="445"/>
      <point x="394" y="445" type="curve" smooth="yes"/>
      <point x="288" y="445" type="line"/>
      <point x="289" y="619" type="line"/>
      <point x="406" y="755" type="line"/>
      <point x="446" y="757" type="line" smooth="yes"/>
      <point x="470" y="758"/>
      <point x="489" y="779"/>
      <point x="488" y="803" type="curve" smooth="yes"/>
      <point x="487" y="827"/>
      <point x="466" y="846"/>
      <point x="442" y="845" type="curve" smooth="yes"/>
      <point x="383" y="842" type="line" smooth="yes"/>
      <point x="372" y="842"/>
      <point x="358" y="835"/>
      <point x="351" y="827" type="curve" smooth="yes"/>
      <point x="212" y="664" type="line" smooth="yes"/>
      <point x="206" y="657"/>
      <point x="201" y="645"/>
      <point x="201" y="636" type="curve" smooth="yes"/>
      <point x="200" y="445" type="line"/>
      <point x="94" y="445" type="line" smooth="yes"/>
      <point x="70" y="445"/>
      <point x="50" y="425"/>
      <point x="50" y="401" type="curve" smooth="yes"/>
      <point x="50" y="377"/>
      <point x="70" y="357"/>
      <point x="94" y="357" type="curve" smooth="yes"/>
      <point x="200" y="357" type="line"/>
      <point x="200" y="217" type="line"/>
      <point x="192" y="3" type="line" smooth="yes"/>
      <point x="191" y="-23"/>
      <point x="211" y="-43"/>
    </contour>
  </outline>
</glyph>
<glyph name="section" format="1">
  <advance width="930"/>
  <unicode hex="00A7"/>
  <outline>
    <contour>
      <point x="566" y="-79" type="curve" smooth="yes"/>
      <point x="788" y="140" type="line" smooth="yes"/>
      <point x="851" y="201"/>
      <point x="835" y="290"/>
      <point x="760" y="325" type="curve"/>
      <point x="658" y="448" type="line"/>
      <point x="800" y="494" type="line" smooth="yes"/>
      <point x="859" y="513"/>
      <point x="894" y="579"/>
      <point x="874" y="638" type="curve" smooth="yes"/>
      <point x="855" y="697"/>
      <point x="789" y="732"/>
      <point x="730" y="712" type="curve" smooth="yes"/>
      <point x="425" y="614" type="line" smooth="yes"/>
      <point x="404" y="607"/>
      <point x="387" y="597"/>
      <point x="374" y="584" type="curve"/>
      <point x="333" y="643" type="line" smooth="yes"/>
      <point x="299" y="695"/>
      <point x="225" y="709"/>
      <point x="174" y="674" type="curve" smooth="yes"/>
      <point x="122" y="640"/>
      <point x="108" y="566"/>
      <point x="143" y="515" type="curve" smooth="yes"/>
      <point x="317" y="256" type="line" smooth="yes"/>
      <point x="329" y="238"/>
      <point x="356" y="218"/>
      <point x="376" y="211" type="curve" smooth="yes"/>
      <point x="493" y="172" type="line"/>
      <point x="452" y="132" type="line"/>
      <point x="285" y="179" type="line"/>
      <point x="279" y="221" type="line" smooth="yes"/>
      <point x="269" y="282"/>
      <point x="208" y="326"/>
      <point x="147" y="317" type="curve" smooth="yes"/>
      <point x="86" y="307"/>
      <point x="42" y="246"/>
      <point x="51" y="185" type="curve" smooth="yes"/>
      <point x="70" y="70" type="line" smooth="yes"/>
      <point x="76" y="30"/>
      <point x="113" y="-12"/>
      <point x="152" y="-23" type="curve" smooth="yes"/>
      <point x="454" y="-108" type="line" smooth="yes"/>
      <point x="489" y="-118"/>
      <point x="539" y="-105"/>
    </contour>
  </outline>
</glyph>
<glyph name="guillemotleft" format="1">
  <advance width="646"/>
  <unicode hex="00AB"/>
  <outline>
    <contour>
      <point x="571" y="-65" type="curve" smooth="yes"/>
      <point x="605" y="-32"/>
      <point x="605" y="26"/>
      <point x="571" y="59" type="curve" smooth="yes"/>
      <point x="436" y="194" type="line"/>
      <point x="471" y="235" type="line"/>
      <point x="571" y="335" type="line" smooth="yes"/>
      <point x="605" y="368"/>
      <point x="605" y="426"/>
      <point x="571" y="459" type="curve" smooth="yes"/>
      <point x="538" y="493"/>
      <point x="480" y="493"/>
      <point x="447" y="459" type="curve" smooth="yes"/>
      <point x="396" y="408" type="line"/>
      <point x="393" y="427"/>
      <point x="385" y="445"/>
      <point x="371" y="459" type="curve" smooth="yes"/>
      <point x="338" y="493"/>
      <point x="280" y="493"/>
      <point x="247" y="459" type="curve" smooth="yes"/>
      <point x="161" y="374" type="line"/>
      <point x="75" y="288" type="line" smooth="yes"/>
      <point x="51" y="264"/>
      <point x="43" y="219"/>
      <point x="58" y="188" type="curve" smooth="yes"/>
      <point x="108" y="81" type="line" smooth="yes"/>
      <point x="111" y="73"/>
      <point x="119" y="62"/>
      <point x="125" y="56" type="curve" smooth="yes"/>
      <point x="211" y="-30" type="line"/>
      <point x="247" y="-65" type="line" smooth="yes"/>
      <point x="280" y="-99"/>
      <point x="338" y="-99"/>
      <point x="371" y="-65" type="curve" smooth="yes"/>
      <point x="385" y="-51"/>
      <point x="393" y="-33"/>
      <point x="396" y="-14" type="curve"/>
      <point x="447" y="-65" type="line" smooth="yes"/>
      <point x="480" y="-99"/>
      <point x="538" y="-99"/>
    </contour>
  </outline>
</glyph>
<glyph name="degree" format="1">
  <advance width="496"/>
  <unicode hex="00B0"/>
  <outline>
    <contour>
      <point x="198" y="218" type="curve" smooth="yes"/>
      <point x="242" y="224" type="line" smooth="yes"/>
      <point x="247" y="225"/>
      <point x="255" y="227"/>
      <point x="260" y="229" type="curve" smooth="yes"/>
      <point x="306" y="246" type="line" smooth="yes"/>
      <point x="314" y="249"/>
      <point x="326" y="256"/>
      <point x="332" y="261" type="curve" smooth="yes"/>
      <point x="371" y="291" type="line" smooth="yes"/>
      <point x="380" y="298"/>
      <point x="391" y="311"/>
      <point x="396" y="320" type="curve" smooth="yes"/>
      <point x="422" y="365" type="line" smooth="yes"/>
      <point x="426" y="373"/>
      <point x="431" y="385"/>
      <point x="432" y="394" type="curve" smooth="yes"/>
      <point x="442" y="442" type="line" smooth="yes"/>
      <point x="443" y="446"/>
      <point x="444" y="454"/>
      <point x="444" y="459" type="curve" smooth="yes"/>
      <point x="446" y="510" type="line" smooth="yes"/>
      <point x="446" y="513"/>
      <point x="446" y="515"/>
      <point x="446" y="518" type="curve"/>
      <point x="446" y="519"/>
      <point x="446" y="521"/>
      <point x="446" y="523" type="curve" smooth="yes"/>
      <point x="446" y="663" type="line" smooth="yes"/>
      <point x="446" y="672"/>
      <point x="443" y="687"/>
      <point x="440" y="696" type="curve" smooth="yes"/>
      <point x="422" y="746" type="line" smooth="yes"/>
      <point x="408" y="786"/>
      <point x="362" y="815"/>
      <point x="320" y="810" type="curve" smooth="yes"/>
      <point x="273" y="805" type="line" smooth="yes"/>
      <point x="269" y="805"/>
      <point x="262" y="803"/>
      <point x="258" y="802" type="curve" smooth="yes"/>
      <point x="220" y="792" type="line" smooth="yes"/>
      <point x="214" y="790"/>
      <point x="205" y="787"/>
      <point x="199" y="784" type="curve" smooth="yes"/>
      <point x="161" y="764" type="line" smooth="yes"/>
      <point x="153" y="759"/>
      <point x="141" y="751"/>
      <point x="135" y="744" type="curve" smooth="yes"/>
      <point x="103" y="711" type="line" smooth="yes"/>
      <point x="97" y="704"/>
      <point x="88" y="690"/>
      <point x="84" y="681" type="curve" smooth="yes"/>
      <point x="65" y="634" type="line" smooth="yes"/>
      <point x="62" y="628"/>
      <point x="59" y="616"/>
      <point x="58" y="609" type="curve" smooth="yes"/>
      <point x="51" y="562" type="line" smooth="yes"/>
      <point x="51" y="558"/>
      <point x="51" y="553"/>
      <point x="51" y="550" type="curve" smooth="yes"/>
      <point x="50" y="503" type="line"/>
      <point x="50" y="353" type="line" smooth="yes"/>
      <point x="50" y="332"/>
      <point x="61" y="303"/>
      <point x="75" y="288" type="curve" smooth="yes"/>
      <point x="109" y="249" type="line" smooth="yes"/>
      <point x="129" y="227"/>
      <point x="169" y="213"/>
    </contour>
    <contour>
      <point x="246" y="503" type="line"/>
      <point x="246" y="541" type="line"/>
      <point x="250" y="568" type="line"/>
      <point x="250" y="523" type="line" smooth="yes"/>
      <point x="250" y="521"/>
      <point x="250" y="519"/>
      <point x="250" y="518" type="curve"/>
      <point x="250" y="516" type="line" smooth="yes"/>
      <point x="249" y="473" type="line"/>
      <point x="246" y="461" type="line"/>
    </contour>
  </outline>
</glyph>
<glyph name="plusminus" format="1">
  <advance width="716"/>
  <unicode hex="00B1"/>
  <outline>
    <contour>
      <point x="158" y="-111" type="curve" smooth="yes"/>
      <point x="558" y="-111" type="line" smooth="yes"/>
      <point x="616" y="-111"/>
      <point x="666" y="-61"/>
      <point x="666" y="-3" type="curve" smooth="yes"/>
      <point x="666" y="55"/>
      <point x="616" y="105"/>
      <point x="558" y="105" type="curve" smooth="yes"/>
      <point x="413" y="105" type="line"/>
      <point x="445" y="124"/>
      <point x="466" y="159"/>
      <point x="466" y="197" type="curve" smooth="yes"/>
      <point x="466" y="289" type="line"/>
      <point x="558" y="289" type="line" smooth="yes"/>
      <point x="616" y="289"/>
      <point x="666" y="339"/>
      <point x="666" y="397" type="curve" smooth="yes"/>
      <point x="666" y="455"/>
      <point x="616" y="505"/>
      <point x="558" y="505" type="curve" smooth="yes"/>
      <point x="466" y="505" type="line"/>
      <point x="466" y="597" type="line" smooth="yes"/>
      <point x="466" y="655"/>
      <point x="416" y="705"/>
      <point x="358" y="705" type="curve" smooth="yes"/>
      <point x="300" y="705"/>
      <point x="250" y="655"/>
      <point x="250" y="597" type="curve" smooth="yes"/>
      <point x="250" y="505" type="line"/>
      <point x="158" y="505" type="line" smooth="yes"/>
      <point x="100" y="505"/>
      <point x="50" y="455"/>
      <point x="50" y="397" type="curve" smooth="yes"/>
      <point x="50" y="339"/>
      <point x="100" y="289"/>
      <point x="158" y="289" type="curve" smooth="yes"/>
      <point x="250" y="289" type="line"/>
      <point x="250" y="197" type="line" smooth="yes"/>
      <point x="250" y="159"/>
      <point x="271" y="124"/>
      <point x="303" y="105" type="curve"/>
      <point x="158" y="105" type="line" smooth="yes"/>
      <point x="100" y="105"/>
      <point x="50" y="55"/>
      <point x="50" y="-3" type="curve" smooth="yes"/>
      <point x="50" y="-61"/>
      <point x="100" y="-111"/>
    </contour>
  </outline>
</glyph>
<glyph name="acute" format="1">
  <advance width="583"/>
  <unicode hex="00B4"/>
  <outline>
    <contour>
      <point x="64" y="877" type="curve" smooth="yes"/>
      <point x="92" y="836"/>
      <point x="151" y="824"/>
      <point x="192" y="851" type="curve" smooth="yes"/>
      <point x="492" y="1051" type="line" smooth="yes"/>
      <point x="533" y="1079"/>
      <point x="545" y="1138"/>
      <point x="518" y="1179" type="curve" smooth="yes"/>
      <point x="490" y="1220"/>
      <point x="431" y="1232"/>
      <point x="390" y="1205" type="curve" smooth="yes"/>
      <point x="90" y="1005" type="line" smooth="yes"/>
      <point x="49" y="977"/>
      <point x="37" y="918"/>
    </contour>
  </outline>
</glyph>
<glyph name="paragraph" format="1">
  <advance width="832"/>
  <unicode hex="00B6"/>
  <outline>
    <contour>
      <point x="651" y="-131" type="curve" smooth="yes"/>
      <point x="722" y="-131"/>
      <point x="782" y="-71"/>
      <point x="782" y="0" type="curve" smooth="yes"/>
      <point x="782" y="540" type="line" smooth="yes"/>
      <point x="782" y="559"/>
      <point x="774" y="589"/>
      <point x="764" y="605" type="curve" smooth="yes"/>
      <point x="614" y="865" type="line" smooth="yes"/>
      <point x="590" y="907"/>
      <point x="532" y="936"/>
      <point x="485" y="930" type="curve" smooth="yes"/>
      <point x="190" y="893" type="line" smooth="yes"/>
      <point x="132" y="885"/>
      <point x="81" y="832"/>
      <point x="76" y="774" type="curve" smooth="yes"/>
      <point x="51" y="478" type="line" smooth="yes"/>
      <point x="41" y="367"/>
      <point x="140" y="300"/>
      <point x="239" y="349" type="curve" smooth="yes"/>
      <point x="320" y="389" type="line"/>
      <point x="320" y="0" type="line" smooth="yes"/>
      <point x="320" y="-71"/>
      <point x="380" y="-131"/>
      <point x="451" y="-131" type="curve" smooth="yes"/>
      <point x="490" y="-131"/>
      <point x="527" y="-112"/>
      <point x="551" y="-83" type="curve"/>
      <point x="575" y="-112"/>
      <point x="612" y="-131"/>
    </contour>
  </outline>
</glyph>
<glyph name="guillemotright" format="1">
  <advance width="721"/>
  <unicode hex="00BB"/>
  <outline>
    <contour>
      <point x="457" y="-85" type="curve" smooth="yes"/>
      <point x="479" y="-64" type="line" smooth="yes"/>
      <point x="482" y="-61"/>
      <point x="486" y="-56"/>
      <point x="488" y="-53" type="curve" smooth="yes"/>
      <point x="646" y="147" type="line" smooth="yes"/>
      <point x="682" y="194"/>
      <point x="678" y="266"/>
      <point x="636" y="309" type="curve" smooth="yes"/>
      <point x="457" y="487" type="line" smooth="yes"/>
      <point x="411" y="534"/>
      <point x="331" y="534"/>
      <point x="285" y="487" type="curve" smooth="yes"/>
      <point x="280" y="483"/>
      <point x="276" y="478"/>
      <point x="272" y="472" type="curve"/>
      <point x="257" y="487" type="line" smooth="yes"/>
      <point x="211" y="534"/>
      <point x="131" y="534"/>
      <point x="85" y="487" type="curve" smooth="yes"/>
      <point x="38" y="441"/>
      <point x="38" y="361"/>
      <point x="85" y="315" type="curve" smooth="yes"/>
      <point x="183" y="216" type="line"/>
      <point x="106" y="109" type="line"/>
      <point x="85" y="87" type="line" smooth="yes"/>
      <point x="38" y="41"/>
      <point x="38" y="-39"/>
      <point x="85" y="-85" type="curve" smooth="yes"/>
      <point x="131" y="-132"/>
      <point x="211" y="-132"/>
      <point x="257" y="-85" type="curve" smooth="yes"/>
      <point x="272" y="-70" type="line"/>
      <point x="276" y="-76"/>
      <point x="280" y="-81"/>
      <point x="285" y="-85" type="curve" smooth="yes"/>
      <point x="331" y="-132"/>
      <point x="411" y="-132"/>
    </contour>
  </outline>
</glyph>
<glyph name="Agrave" format="1">
  <advance width="935"/>
  <unicode hex="00C0"/>
  <outline>
    <contour>
      <point x="767" y="-122" type="curve" smooth="yes"/>
      <point x="831" y="-122"/>
      <point x="885" y="-68"/>
      <point x="885" y="-4" type="curve" smooth="yes"/>
      <point x="885" y="360" type="line" smooth="yes"/>
      <point x="885" y="381"/>
      <point x="876" y="411"/>
      <point x="864" y="427" type="curve" smooth="yes"/>
      <point x="565" y="862" type="line"/>
      <point x="565" y="863" type="line" smooth="yes"/>
      <point x="601" y="916"/>
      <point x="585" y="991"/>
      <point x="532" y="1026" type="curve" smooth="yes"/>
      <point x="266" y="1204" type="line"/>
      <point x="232" y="1226" type="line" smooth="yes"/>
      <point x="179" y="1262"/>
      <point x="104" y="1246"/>
      <point x="69" y="1193" type="curve" smooth="yes"/>
      <point x="33" y="1140"/>
      <point x="49" y="1065"/>
      <point x="102" y="1030" type="curve" smooth="yes"/>
      <point x="268" y="919" type="line"/>
      <point x="364" y="855" type="line"/>
      <point x="363" y="852"/>
      <point x="362" y="850"/>
      <point x="360" y="847" type="curve" smooth="yes"/>
      <point x="127" y="366" type="line" smooth="yes"/>
      <point x="85" y="278"/>
      <point x="143" y="191"/>
      <point x="240" y="197" type="curve" smooth="yes"/>
      <point x="649" y="221" type="line"/>
      <point x="649" y="-4" type="line" smooth="yes"/>
      <point x="649" y="-68"/>
      <point x="703" y="-122"/>
    </contour>
    <contour>
      <point x="427" y="444" type="line"/>
      <point x="484" y="562" type="line"/>
      <point x="560" y="452" type="line"/>
    </contour>
  </outline>
</glyph>
<glyph name="Aacute" format="1">
  <advance width="784"/>
  <unicode hex="00C1"/>
  <outline>
    <contour>
      <point x="357" y="905" type="curve" smooth="yes"/>
      <point x="370" y="886"/>
      <point x="396" y="880"/>
      <point x="415" y="893" type="curve" smooth="yes"/>
      <point x="715" y="1093" type="line" smooth="yes"/>
      <point x="734" y="1106"/>
      <point x="740" y="1132"/>
      <point x="727" y="1151" type="curve" smooth="yes"/>
      <point x="714" y="1170"/>
      <point x="688" y="1176"/>
      <point x="669" y="1163" type="curve" smooth="yes"/>
      <point x="369" y="963" type="line" smooth="yes"/>
      <point x="350" y="950"/>
      <point x="344" y="924"/>
    </contour>
    <contour>
      <point x="692" y="-46" type="curve" smooth="yes"/>
      <point x="715" y="-46"/>
      <point x="734" y="-27"/>
      <point x="734" y="-4" type="curve" smooth="yes"/>
      <point x="734" y="562" type="line" smooth="yes"/>
      <point x="734" y="564"/>
      <point x="734" y="566"/>
      <point x="734" y="567" type="curve" smooth="yes"/>
      <point x="716" y="716" type="line" smooth="yes"/>
      <point x="715" y="727"/>
      <point x="706" y="741"/>
      <point x="697" y="746" type="curve" smooth="yes"/>
      <point x="565" y="829" type="line" smooth="yes"/>
      <point x="560" y="832"/>
      <point x="550" y="835"/>
      <point x="544" y="835" type="curve" smooth="yes"/>
      <point x="392" y="838" type="line" smooth="yes"/>
      <point x="392" y="838"/>
      <point x="391" y="838"/>
      <point x="391" y="838" type="curve" smooth="yes"/>
      <point x="239" y="835" type="line" smooth="yes"/>
      <point x="232" y="835"/>
      <point x="223" y="832"/>
      <point x="218" y="829" type="curve" smooth="yes"/>
      <point x="87" y="748" type="line" smooth="yes"/>
      <point x="77" y="743"/>
      <point x="68" y="729"/>
      <point x="67" y="717" type="curve" smooth="yes"/>
      <point x="50" y="564" type="line" smooth="yes"/>
      <point x="50" y="563"/>
      <point x="50" y="561"/>
      <point x="50" y="560" type="curve" smooth="yes"/>
      <point x="50" y="409" type="line"/>
      <point x="50" y="256" type="line"/>
      <point x="55" y="107" type="line" smooth="yes"/>
      <point x="57" y="54"/>
      <point x="133" y="51"/>
      <point x="139" y="104" type="curve" smooth="yes"/>
      <point x="153" y="234" type="line"/>
      <point x="254" y="301" type="line"/>
      <point x="392" y="304" type="line"/>
      <point x="650" y="304" type="line"/>
      <point x="650" y="-4" type="line" smooth="yes"/>
      <point x="650" y="-27"/>
      <point x="669" y="-46"/>
    </contour>
    <contour>
      <point x="217" y="378" type="curve" smooth="yes"/>
      <point x="134" y="322" type="line"/>
      <point x="134" y="409" type="line"/>
      <point x="134" y="557" type="line"/>
      <point x="148" y="688" type="line"/>
      <point x="252" y="751" type="line"/>
      <point x="391" y="754" type="line"/>
      <point x="531" y="751" type="line"/>
      <point x="635" y="686" type="line"/>
      <point x="650" y="560" type="line"/>
      <point x="650" y="388" type="line"/>
      <point x="392" y="388" type="line"/>
      <point x="240" y="385" type="line" smooth="yes"/>
      <point x="233" y="385"/>
      <point x="223" y="382"/>
    </contour>
  </outline>
</glyph>
<glyph name="Acircumflex" format="1">
  <advance width="958"/>
  <unicode hex="00C2"/>
  <outline>
    <contour>
      <point x="779" y="-133" type="curve" smooth="yes"/>
      <point x="849" y="-133"/>
      <point x="908" y="-74"/>
      <point x="908" y="-4" type="curve" smooth="yes"/>
      <point x="908" y="307" type="line"/>
      <point x="908" y="346" type="line"/>
      <point x="908" y="346" type="line" smooth="yes"/>
      <point x="908" y="346"/>
      <point x="908" y="346"/>
      <point x="908" y="346" type="curve"/>
      <point x="908" y="477" type="line"/>
      <point x="906" y="656" type="line" smooth="yes"/>
      <point x="906" y="683"/>
      <point x="891" y="721"/>
      <point x="873" y="741" type="curve" smooth="yes"/>
      <point x="816" y="805" type="line"/>
      <point x="844" y="813"/>
      <point x="869" y="831"/>
      <point x="886" y="856" type="curve" smooth="yes"/>
      <point x="925" y="914"/>
      <point x="909" y="997"/>
      <point x="851" y="1035" type="curve" smooth="yes"/>
      <point x="709" y="1130" type="line" smooth="yes"/>
      <point x="684" y="1146"/>
      <point x="640" y="1155"/>
      <point x="611" y="1149" type="curve" smooth="yes"/>
      <point x="153" y="1054" type="line" smooth="yes"/>
      <point x="85" y="1040"/>
      <point x="39" y="970"/>
      <point x="53" y="902" type="curve" smooth="yes"/>
      <point x="62" y="857"/>
      <point x="96" y="821"/>
      <point x="138" y="807" type="curve"/>
      <point x="96" y="769" type="line" smooth="yes"/>
      <point x="74" y="748"/>
      <point x="55" y="707"/>
      <point x="54" y="677" type="curve" smooth="yes"/>
      <point x="50" y="499" type="line"/>
      <point x="50" y="323" type="line"/>
      <point x="57" y="145" type="line" smooth="yes"/>
      <point x="63" y="-5"/>
      <point x="256" y="-35"/>
      <point x="307" y="106" type="curve" smooth="yes"/>
      <point x="341" y="201" type="line"/>
      <point x="431" y="217" type="line"/>
      <point x="650" y="217" type="line"/>
      <point x="650" y="-4" type="line" smooth="yes"/>
      <point x="650" y="-74"/>
      <point x="709" y="-133"/>
    </contour>
    <contour>
      <point x="396" y="473" type="curve" smooth="yes"/>
      <point x="308" y="457" type="line"/>
      <point x="308" y="499" type="line"/>
      <point x="311" y="615" type="line"/>
      <point x="363" y="663" type="line"/>
      <point x="487" y="667" type="line"/>
      <point x="598" y="661" type="line"/>
      <point x="649" y="605" type="line"/>
      <point x="650" y="475" type="line"/>
      <point x="419" y="475" type="line" smooth="yes"/>
      <point x="413" y="475"/>
      <point x="402" y="474"/>
    </contour>
  </outline>
</glyph>
<glyph name="Atilde" format="1">
  <advance width="914"/>
  <unicode hex="00C3"/>
  <outline>
    <contour>
      <point x="224" y="844" type="curve" smooth="yes"/>
      <point x="412" y="995" type="line"/>
      <point x="611" y="860" type="line" smooth="yes"/>
      <point x="667" y="821"/>
      <point x="738" y="840"/>
      <point x="767" y="902" type="curve" smooth="yes"/>
      <point x="854" y="1082" type="line" smooth="yes"/>
      <point x="878" y="1134"/>
      <point x="855" y="1200"/>
      <point x="803" y="1225" type="curve" smooth="yes"/>
      <point x="751" y="1249"/>
      <point x="685" y="1226"/>
      <point x="660" y="1174" type="curve" smooth="yes"/>
      <point x="628" y="1107" type="line"/>
      <point x="467" y="1216" type="line" smooth="yes"/>
      <point x="431" y="1241"/>
      <point x="374" y="1239"/>
      <point x="340" y="1212" type="curve" smooth="yes"/>
      <point x="90" y="1012" type="line" smooth="yes"/>
      <point x="45" y="975"/>
      <point x="37" y="906"/>
      <point x="73" y="861" type="curve" smooth="yes"/>
      <point x="110" y="816"/>
      <point x="179" y="808"/>
    </contour>
    <contour>
      <point x="757" y="-111" type="curve" smooth="yes"/>
      <point x="815" y="-111"/>
      <point x="864" y="-62"/>
      <point x="864" y="-4" type="curve" smooth="yes"/>
      <point x="864" y="499" type="line" smooth="yes"/>
      <point x="864" y="527"/>
      <point x="846" y="564"/>
      <point x="825" y="582" type="curve" smooth="yes"/>
      <point x="463" y="879" type="line" smooth="yes"/>
      <point x="397" y="933"/>
      <point x="311" y="904"/>
      <point x="291" y="820" type="curve" smooth="yes"/>
      <point x="187" y="364" type="line" smooth="yes"/>
      <point x="170" y="293"/>
      <point x="219" y="233"/>
      <point x="292" y="233" type="curve" smooth="yes"/>
      <point x="650" y="238" type="line"/>
      <point x="650" y="-4" type="line" smooth="yes"/>
      <point x="650" y="-62"/>
      <point x="699" y="-111"/>
    </contour>
    <contour>
      <point x="426" y="449" type="line"/>
      <point x="461" y="604" type="line"/>
      <point x="647" y="452" type="line"/>
    </contour>
  </outline>
</glyph>
<glyph name="Ccedilla" format="1">
  <advance width="862"/>
  <unicode hex="00C7"/>
  <outline>
    <contour>
      <point x="559" y="-80" type="line" smooth="yes"/>
      <point x="573" y="-80"/>
      <point x="593" y="-73"/>
      <point x="604" y="-66" type="curve" smooth="yes"/>
      <point x="765" y="43" type="line" smooth="yes"/>
      <point x="781" y="54"/>
      <point x="797" y="79"/>
      <point x="800" y="100" type="curve" smooth="yes"/>
      <point x="811" y="191" type="line" smooth="yes"/>
      <point x="817" y="234"/>
      <point x="785" y="276"/>
      <point x="741" y="281" type="curve" smooth="yes"/>
      <point x="698" y="287"/>
      <point x="656" y="255"/>
      <point x="651" y="211" type="curve" smooth="yes"/>
      <point x="644" y="156" type="line"/>
      <point x="534" y="82" type="line"/>
      <point x="417" y="82" type="line"/>
      <point x="342" y="207" type="line" smooth="yes"/>
      <point x="339" y="212"/>
      <point x="332" y="221"/>
      <point x="327" y="225" type="curve" smooth="yes"/>
      <point x="212" y="328" type="line"/>
      <point x="212" y="482" type="line"/>
      <point x="215" y="634" type="line"/>
      <point x="310" y="717" type="line"/>
      <point x="464" y="720" type="line"/>
      <point x="598" y="702" type="line"/>
      <point x="657" y="568" type="line" smooth="yes"/>
      <point x="675" y="528"/>
      <point x="724" y="509"/>
      <point x="764" y="527" type="curve" smooth="yes"/>
      <point x="804" y="545"/>
      <point x="823" y="594"/>
      <point x="805" y="634" type="curve" smooth="yes"/>
      <point x="727" y="809" type="line" smooth="yes"/>
      <point x="717" y="832"/>
      <point x="689" y="853"/>
      <point x="664" y="856" type="curve" smooth="yes"/>
      <point x="480" y="881" type="line" smooth="yes"/>
      <point x="477" y="882"/>
      <point x="471" y="882"/>
      <point x="468" y="882" type="curve" smooth="yes"/>
      <point x="277" y="879" type="line" smooth="yes"/>
      <point x="261" y="879"/>
      <point x="238" y="870"/>
      <point x="225" y="859" type="curve" smooth="yes"/>
      <point x="81" y="732" type="line" smooth="yes"/>
      <point x="66" y="719"/>
      <point x="54" y="692"/>
      <point x="53" y="672" type="curve" smooth="yes"/>
      <point x="50" y="485" type="line"/>
      <point x="50" y="292" type="line"/>
      <point x="50" y="272"/>
      <point x="62" y="245"/>
      <point x="77" y="232" type="curve" smooth="yes"/>
      <point x="209" y="113" type="line"/>
      <point x="302" y="-41" type="line" smooth="yes"/>
      <point x="315" y="-62"/>
      <point x="346" y="-80"/>
      <point x="371" y="-80" type="curve" smooth="yes"/>
    </contour>
  </outline>
</glyph>
